<svg width="44" height="49" viewBox="0 0 44 49" fill="none" xmlns="http://www.w3.org/2000/svg">
<path d="M22.2308 45.8394C24.6 45.8394 26.5385 43.9009 26.5385 41.5317H17.9231C17.9231 43.9009 19.8615 45.8394 22.2308 45.8394ZM35.1538 32.9163V22.147C35.1538 15.5347 31.6431 9.99936 25.4615 8.53474V7.07012C25.4615 5.28243 24.0185 3.83936 22.2308 3.83936C20.4431 3.83936 19 5.28243 19 7.07012V8.53474C12.84 9.99936 9.30769 15.5132 9.30769 22.147V32.9163L5 37.224V39.3778H39.4615V37.224L35.1538 32.9163ZM30.8462 35.0701H13.6154V22.147C13.6154 16.8055 16.8677 12.4547 22.2308 12.4547C27.5938 12.4547 30.8462 16.8055 30.8462 22.147V35.0701Z" fill="url(#paint0_linear_1_78)"/>
<defs>
<linearGradient id="paint0_linear_1_78" x1="39.4615" y1="3.83932" x2="4.2147" y2="4.50903" gradientUnits="userSpaceOnUse">
<stop stop-color="#1881BC"/>
<stop offset="1" stop-color="#59E6B3"/>
</linearGradient>
</defs>
</svg>
