<svg width="17" height="17" viewBox="0 0 17 17" fill="none" xmlns="http://www.w3.org/2000/svg">
<g clip-path="url(#clip0_1_636)">
<path d="M12.1928 5.52766C12.4534 5.26706 12.8761 5.26706 13.1367 5.52766C13.3973 5.78835 13.3973 6.21104 13.1367 6.47164L8.12376 11.4848C7.86308 11.7454 7.44038 11.7454 7.17979 11.4848L4.67322 8.9782C4.41263 8.7176 4.41263 8.29491 4.67322 8.03431C4.93391 7.77363 5.3566 7.77363 5.6172 8.03431L7.65178 10.0689L12.1928 5.52766ZM8.90492 0.506348C11.1137 0.506348 13.114 1.40193 14.5617 2.84964C16.0094 4.29727 16.905 6.29758 16.905 8.5063C16.905 10.7154 16.0095 12.7153 14.5617 14.163C13.114 15.6108 11.1137 16.5063 8.90492 16.5063C6.69593 16.5063 4.69589 15.6109 3.24827 14.163C1.80037 12.7153 0.904968 10.7154 0.904968 8.5063C0.904968 6.29758 1.80055 4.29727 3.24827 2.84964C4.69589 1.40175 6.69593 0.506348 8.90492 0.506348ZM13.6178 3.79353C12.4118 2.58761 10.7455 1.84162 8.90492 1.84162C7.06429 1.84162 5.39798 2.58761 4.19215 3.79353C2.98623 4.99945 2.24024 6.66585 2.24024 8.5063C2.24024 10.347 2.98623 12.0133 4.19215 13.2192C5.39798 14.4251 7.06429 15.171 8.90492 15.171C10.7455 15.171 12.4118 14.4251 13.6178 13.2192C14.8237 12.0133 15.5696 10.347 15.5696 8.5063C15.5696 6.66585 14.8237 4.99945 13.6178 3.79353Z" fill="#59E5B3"/>
</g>
<defs>
<clipPath id="clip0_1_636">
<rect width="16" height="16" fill="white" transform="translate(0.904968 0.506348)"/>
</clipPath>
</defs>
</svg>
