<svg width="44" height="45" viewBox="0 0 44 45" fill="none" xmlns="http://www.w3.org/2000/svg">
<path d="M6 10.8394C7.06087 10.8394 8.07828 10.4179 8.82843 9.66778C9.57857 8.91764 10 7.90022 10 6.83936C10 5.77849 9.57857 4.76107 8.82843 4.01093C8.07828 3.26078 7.06087 2.83936 6 2.83936C4.93913 2.83936 3.92172 3.26078 3.17157 4.01093C2.42143 4.76107 2 5.77849 2 6.83936C2 7.90022 2.42143 8.91764 3.17157 9.66778C3.92172 10.4179 4.93913 10.8394 6 10.8394ZM8 40.8394C9.5913 40.8394 11.1174 40.2072 12.2426 39.082C13.3679 37.9568 14 36.4307 14 34.8394C14 33.2481 13.3679 31.7219 12.2426 30.5967C11.1174 29.4715 9.5913 28.8394 8 28.8394C6.4087 28.8394 4.88258 29.4715 3.75736 30.5967C2.63214 31.7219 2 33.2481 2 34.8394C2 36.4307 2.63214 37.9568 3.75736 39.082C4.88258 40.2072 6.4087 40.8394 8 40.8394ZM36 42.8394C37.5913 42.8394 39.1174 42.2072 40.2426 41.082C41.3679 39.9568 42 38.4307 42 36.8394C42 35.2481 41.3679 33.7219 40.2426 32.5967C39.1174 31.4715 37.5913 30.8394 36 30.8394C34.4087 30.8394 32.8826 31.4715 31.7574 32.5967C30.6321 33.7219 30 35.2481 30 36.8394C30 38.4307 30.6321 39.9568 31.7574 41.082C32.8826 42.2072 34.4087 42.8394 36 42.8394ZM20 26.8394C22.1217 26.8394 24.1566 25.9965 25.6569 24.4962C27.1571 22.9959 28 20.9611 28 18.8394C28 16.7176 27.1571 14.6828 25.6569 13.1825C24.1566 11.6822 22.1217 10.8394 20 10.8394C17.8783 10.8394 15.8434 11.6822 14.3431 13.1825C12.8429 14.6828 12 16.7176 12 18.8394C12 20.9611 12.8429 22.9959 14.3431 24.4962C15.8434 25.9965 17.8783 26.8394 20 26.8394ZM32 10.8394C33.0609 10.8394 34.0783 10.4179 34.8284 9.66778C35.5786 8.91764 36 7.90022 36 6.83936C36 5.77849 35.5786 4.76107 34.8284 4.01093C34.0783 3.26078 33.0609 2.83936 32 2.83936C30.9391 2.83936 29.9217 3.26078 29.1716 4.01093C28.4214 4.76107 28 5.77849 28 6.83936C28 7.90022 28.4214 8.91764 29.1716 9.66778C29.9217 10.4179 30.9391 10.8394 32 10.8394Z" fill="url(#paint0_linear_1_39)"/>
<path d="M9 9.83936L13 13.8394M28 10.8394L26 12.8394M32 32.3394L26 24.8394M12 29.8394L16 25.8394" stroke="#1B87BC" stroke-width="4" stroke-linecap="round" stroke-linejoin="round"/>
<defs>
<linearGradient id="paint0_linear_1_39" x1="42" y1="2.83932" x2="1.09566" y2="3.78654" gradientUnits="userSpaceOnUse">
<stop stop-color="#1881BC"/>
<stop offset="1" stop-color="#59E6B3"/>
</linearGradient>
</defs>
</svg>
