<svg width="44" height="49" viewBox="0 0 44 49" fill="none" xmlns="http://www.w3.org/2000/svg">
<path d="M21.6 41.0094C26.0733 36.9027 29.3917 33.1715 31.555 29.8158C33.7183 26.46 34.8 23.4812 34.8 20.8794C34.8 16.8827 33.5255 13.6106 30.9764 11.063C28.4273 8.51536 25.3019 7.24082 21.6 7.23936C17.8967 7.23936 14.7705 8.51389 12.2214 11.063C9.67233 13.612 8.39853 16.8842 8.4 20.8794C8.4 23.4827 9.48167 26.4622 11.645 29.818C13.8083 33.1737 17.1267 36.9042 21.6 41.0094ZM21.6 46.8394C15.6967 41.816 11.2879 37.1506 8.3736 32.843C5.45933 28.5354 4.00147 24.5475 4 20.8794C4 15.3794 5.76953 10.9977 9.3086 7.73436C12.8477 4.47102 16.9448 2.83936 21.6 2.83936C26.2567 2.83936 30.3545 4.47102 33.8936 7.73436C37.4327 10.9977 39.2015 15.3794 39.2 20.8794C39.2 24.546 37.7421 28.5339 34.8264 32.843C31.9107 37.152 27.5019 41.8175 21.6 46.8394ZM15 27.0394H19.4V20.9894H23.8V27.0394H28.2V16.5894L21.6 12.1894L15 16.5894V27.0394Z" fill="url(#paint0_linear_1_46)"/>
<defs>
<linearGradient id="paint0_linear_1_46" x1="39.2" y1="2.83932" x2="3.19723" y2="3.50629" gradientUnits="userSpaceOnUse">
<stop stop-color="#1881BC"/>
<stop offset="1" stop-color="#59E6B3"/>
</linearGradient>
</defs>
</svg>
