<svg width="1008" height="274" viewBox="0 0 1008 274" fill="none" xmlns="http://www.w3.org/2000/svg">
<circle cx="155.5" cy="137.339" r="135.5" fill="#CEEFE6" fill-opacity="0.3" stroke="white" stroke-width="2"/>
<path d="M21 137.339C21 63.0571 81.2177 2.83936 155.5 2.83936" stroke="#59E5B3" stroke-width="2"/>
<circle cx="156" cy="136.839" r="109" fill="white"/>
<circle cx="156" cy="136.839" r="88" fill="#2E1C18"/>
<g filter="url(#filter0_d_1_91)">
<circle cx="20.5" cy="139.339" r="10.5" fill="url(#paint0_linear_1_91)"/>
<circle cx="20.5" cy="139.339" r="11.5" stroke="white" stroke-width="2"/>
</g>
<g clip-path="url(#clip0_1_91)">
<g filter="url(#filter1_d_1_91)">
<path d="M163.295 91.8394H147.671C146.565 91.8406 145.505 92.2805 144.723 93.0624C143.941 93.8444 143.501 94.9046 143.5 96.0105V127.668C143.501 128.774 143.941 129.834 144.723 130.616C145.505 131.398 146.565 131.838 147.671 131.839H163.295C164.401 131.838 165.461 131.398 166.243 130.616C167.025 129.834 167.465 128.774 167.466 127.668V96.0105C167.465 94.9046 167.025 93.8444 166.243 93.0624C165.461 92.2805 164.401 91.8406 163.295 91.8394ZM160.179 93.3367V94.3044C160.179 94.4998 160.101 94.6872 159.963 94.8254C159.824 94.9635 159.637 95.0413 159.441 95.0415H151.527C151.332 95.0413 151.144 94.9635 151.006 94.8253C150.868 94.6872 150.79 94.4998 150.79 94.3044V93.3367H160.179ZM165.968 127.668C165.968 128.377 165.686 129.057 165.184 129.558C164.683 130.059 164.004 130.341 163.295 130.342H147.671C146.962 130.341 146.283 130.059 145.781 129.558C145.28 129.057 144.998 128.377 144.997 127.668V96.0105C144.998 95.3016 145.28 94.622 145.781 94.1207C146.283 93.6194 146.962 93.3375 147.671 93.3367H149.291V94.3044C149.291 94.8968 149.527 95.4647 149.946 95.8836C150.365 96.3025 150.933 96.5381 151.525 96.5388H159.44C160.032 96.5381 160.6 96.3025 161.019 95.8836C161.438 95.4648 161.674 94.8968 161.675 94.3044V93.3367H163.295C164.004 93.3376 164.683 93.6196 165.185 94.1208C165.686 94.6221 165.968 95.3017 165.968 96.0105V127.668Z" fill="url(#paint1_linear_1_91)"/>
</g>
<g filter="url(#filter2_d_1_91)">
<path d="M160.087 126.777H150.88C150.681 126.777 150.491 126.856 150.35 126.996C150.21 127.137 150.131 127.327 150.131 127.526C150.131 127.724 150.21 127.915 150.35 128.055C150.491 128.195 150.681 128.274 150.88 128.274H160.087C160.285 128.274 160.476 128.195 160.616 128.055C160.756 127.915 160.835 127.724 160.835 127.526C160.835 127.327 160.756 127.137 160.616 126.996C160.476 126.856 160.285 126.777 160.087 126.777Z" fill="url(#paint2_linear_1_91)"/>
</g>
</g>
<path d="M89.2955 146.724C89.3655 145.804 89.7205 145.084 90.3605 144.564C91.0005 144.044 91.8305 143.784 92.8505 143.784C93.5305 143.784 94.1155 143.909 94.6055 144.159C95.1055 144.399 95.4805 144.729 95.7305 145.149C95.9905 145.569 96.1205 146.044 96.1205 146.574C96.1205 147.194 95.9405 147.729 95.5805 148.179C95.2305 148.629 94.7705 148.919 94.2005 149.049V149.124C94.8505 149.284 95.3655 149.599 95.7455 150.069C96.1255 150.539 96.3155 151.154 96.3155 151.914C96.3155 152.484 96.1855 152.999 95.9255 153.459C95.6655 153.909 95.2755 154.264 94.7555 154.524C94.2355 154.784 93.6105 154.914 92.8805 154.914C91.8205 154.914 90.9505 154.639 90.2705 154.089C89.5905 153.529 89.2105 152.739 89.1305 151.719H90.4505C90.5205 152.319 90.7655 152.809 91.1855 153.189C91.6055 153.569 92.1655 153.759 92.8655 153.759C93.5655 153.759 94.0955 153.579 94.4555 153.219C94.8255 152.849 95.0105 152.374 95.0105 151.794C95.0105 151.044 94.7605 150.504 94.2605 150.174C93.7605 149.844 93.0055 149.679 91.9955 149.679H91.6505V148.539H92.0105C92.9305 148.529 93.6255 148.379 94.0955 148.089C94.5655 147.789 94.8005 147.329 94.8005 146.709C94.8005 146.179 94.6255 145.754 94.2755 145.434C93.9355 145.114 93.4455 144.954 92.8055 144.954C92.1855 144.954 91.6855 145.114 91.3055 145.434C90.9255 145.754 90.7005 146.184 90.6305 146.724H89.2955ZM105.074 145.179H99.8085V148.599C100.039 148.279 100.379 148.019 100.829 147.819C101.279 147.609 101.764 147.504 102.284 147.504C103.114 147.504 103.789 147.679 104.309 148.029C104.829 148.369 105.199 148.814 105.419 149.364C105.649 149.904 105.764 150.479 105.764 151.089C105.764 151.809 105.629 152.454 105.359 153.024C105.089 153.594 104.674 154.044 104.114 154.374C103.564 154.704 102.879 154.869 102.059 154.869C101.009 154.869 100.159 154.599 99.5085 154.059C98.8585 153.519 98.4635 152.799 98.3235 151.899H99.6585C99.7885 152.469 100.064 152.914 100.484 153.234C100.904 153.554 101.434 153.714 102.074 153.714C102.864 153.714 103.459 153.479 103.859 153.009C104.259 152.529 104.459 151.899 104.459 151.119C104.459 150.339 104.259 149.739 103.859 149.319C103.459 148.889 102.869 148.674 102.089 148.674C101.559 148.674 101.094 148.804 100.694 149.064C100.304 149.314 100.019 149.659 99.8385 150.099H98.5485V143.979H105.074V145.179ZM115.116 154.944C114.426 154.944 113.806 154.824 113.256 154.584C112.716 154.334 112.291 153.994 111.981 153.564C111.671 153.124 111.511 152.619 111.501 152.049H112.956C113.006 152.539 113.206 152.954 113.556 153.294C113.916 153.624 114.436 153.789 115.116 153.789C115.766 153.789 116.276 153.629 116.646 153.309C117.026 152.979 117.216 152.559 117.216 152.049C117.216 151.649 117.106 151.324 116.886 151.074C116.666 150.824 116.391 150.634 116.061 150.504C115.731 150.374 115.286 150.234 114.726 150.084C114.036 149.904 113.481 149.724 113.061 149.544C112.651 149.364 112.296 149.084 111.996 148.704C111.706 148.314 111.561 147.794 111.561 147.144C111.561 146.574 111.706 146.069 111.996 145.629C112.286 145.189 112.691 144.849 113.211 144.609C113.741 144.369 114.346 144.249 115.026 144.249C116.006 144.249 116.806 144.494 117.426 144.984C118.056 145.474 118.411 146.124 118.491 146.934H116.991C116.941 146.534 116.731 146.184 116.361 145.884C115.991 145.574 115.501 145.419 114.891 145.419C114.321 145.419 113.856 145.569 113.496 145.869C113.136 146.159 112.956 146.569 112.956 147.099C112.956 147.479 113.061 147.789 113.271 148.029C113.491 148.269 113.756 148.454 114.066 148.584C114.386 148.704 114.831 148.844 115.401 149.004C116.091 149.194 116.646 149.384 117.066 149.574C117.486 149.754 117.846 150.039 118.146 150.429C118.446 150.809 118.596 151.329 118.596 151.989C118.596 152.499 118.461 152.979 118.191 153.429C117.921 153.879 117.521 154.244 116.991 154.524C116.461 154.804 115.836 154.944 115.116 154.944ZM120.095 150.714C120.095 149.864 120.265 149.124 120.605 148.494C120.945 147.854 121.415 147.359 122.015 147.009C122.625 146.659 123.32 146.484 124.1 146.484C125.11 146.484 125.94 146.729 126.59 147.219C127.25 147.709 127.685 148.389 127.895 149.259H126.425C126.285 148.759 126.01 148.364 125.6 148.074C125.2 147.784 124.7 147.639 124.1 147.639C123.32 147.639 122.69 147.909 122.21 148.449C121.73 148.979 121.49 149.734 121.49 150.714C121.49 151.704 121.73 152.469 122.21 153.009C122.69 153.549 123.32 153.819 124.1 153.819C124.7 153.819 125.2 153.679 125.6 153.399C126 153.119 126.275 152.719 126.425 152.199H127.895C127.675 153.039 127.235 153.714 126.575 154.224C125.915 154.724 125.09 154.974 124.1 154.974C123.32 154.974 122.625 154.799 122.015 154.449C121.415 154.099 120.945 153.604 120.605 152.964C120.265 152.324 120.095 151.574 120.095 150.714ZM131.082 147.954C131.322 147.484 131.662 147.119 132.102 146.859C132.552 146.599 133.097 146.469 133.737 146.469V147.879H133.377C131.847 147.879 131.082 148.709 131.082 150.369V154.839H129.717V146.619H131.082V147.954ZM142.812 150.414C142.812 150.674 142.797 150.949 142.767 151.239H136.197C136.247 152.049 136.522 152.684 137.022 153.144C137.532 153.594 138.147 153.819 138.867 153.819C139.457 153.819 139.947 153.684 140.337 153.414C140.737 153.134 141.017 152.764 141.177 152.304H142.647C142.427 153.094 141.987 153.739 141.327 154.239C140.667 154.729 139.847 154.974 138.867 154.974C138.087 154.974 137.387 154.799 136.767 154.449C136.157 154.099 135.677 153.604 135.327 152.964C134.977 152.314 134.802 151.564 134.802 150.714C134.802 149.864 134.972 149.119 135.312 148.479C135.652 147.839 136.127 147.349 136.737 147.009C137.357 146.659 138.067 146.484 138.867 146.484C139.647 146.484 140.337 146.654 140.937 146.994C141.537 147.334 141.997 147.804 142.317 148.404C142.647 148.994 142.812 149.664 142.812 150.414ZM141.402 150.129C141.402 149.609 141.287 149.164 141.057 148.794C140.827 148.414 140.512 148.129 140.112 147.939C139.722 147.739 139.287 147.639 138.807 147.639C138.117 147.639 137.527 147.859 137.037 148.299C136.557 148.739 136.282 149.349 136.212 150.129H141.402ZM152.114 150.414C152.114 150.674 152.099 150.949 152.069 151.239H145.499C145.549 152.049 145.824 152.684 146.324 153.144C146.834 153.594 147.449 153.819 148.169 153.819C148.759 153.819 149.249 153.684 149.639 153.414C150.039 153.134 150.319 152.764 150.479 152.304H151.949C151.729 153.094 151.289 153.739 150.629 154.239C149.969 154.729 149.149 154.974 148.169 154.974C147.389 154.974 146.689 154.799 146.069 154.449C145.459 154.099 144.979 153.604 144.629 152.964C144.279 152.314 144.104 151.564 144.104 150.714C144.104 149.864 144.274 149.119 144.614 148.479C144.954 147.839 145.429 147.349 146.039 147.009C146.659 146.659 147.369 146.484 148.169 146.484C148.949 146.484 149.639 146.654 150.239 146.994C150.839 147.334 151.299 147.804 151.619 148.404C151.949 148.994 152.114 149.664 152.114 150.414ZM150.704 150.129C150.704 149.609 150.589 149.164 150.359 148.794C150.129 148.414 149.814 148.129 149.414 147.939C149.024 147.739 148.589 147.639 148.109 147.639C147.419 147.639 146.829 147.859 146.339 148.299C145.859 148.739 145.584 149.349 145.514 150.129H150.704ZM157.921 146.469C158.921 146.469 159.731 146.774 160.351 147.384C160.971 147.984 161.281 148.854 161.281 149.994V154.839H159.931V150.189C159.931 149.369 159.726 148.744 159.316 148.314C158.906 147.874 158.346 147.654 157.636 147.654C156.916 147.654 156.341 147.879 155.911 148.329C155.491 148.779 155.281 149.434 155.281 150.294V154.839H153.916V146.619H155.281V147.789C155.551 147.369 155.916 147.044 156.376 146.814C156.846 146.584 157.361 146.469 157.921 146.469ZM166.42 154.974C165.79 154.974 165.225 154.869 164.725 154.659C164.225 154.439 163.83 154.139 163.54 153.759C163.25 153.369 163.09 152.924 163.06 152.424H164.47C164.51 152.834 164.7 153.169 165.04 153.429C165.39 153.689 165.845 153.819 166.405 153.819C166.925 153.819 167.335 153.704 167.635 153.474C167.935 153.244 168.085 152.954 168.085 152.604C168.085 152.244 167.925 151.979 167.605 151.809C167.285 151.629 166.79 151.454 166.12 151.284C165.51 151.124 165.01 150.964 164.62 150.804C164.24 150.634 163.91 150.389 163.63 150.069C163.36 149.739 163.225 149.309 163.225 148.779C163.225 148.359 163.35 147.974 163.6 147.624C163.85 147.274 164.205 146.999 164.665 146.799C165.125 146.589 165.65 146.484 166.24 146.484C167.15 146.484 167.885 146.714 168.445 147.174C169.005 147.634 169.305 148.264 169.345 149.064H167.98C167.95 148.634 167.775 148.289 167.455 148.029C167.145 147.769 166.725 147.639 166.195 147.639C165.705 147.639 165.315 147.744 165.025 147.954C164.735 148.164 164.59 148.439 164.59 148.779C164.59 149.049 164.675 149.274 164.845 149.454C165.025 149.624 165.245 149.764 165.505 149.874C165.775 149.974 166.145 150.089 166.615 150.219C167.205 150.379 167.685 150.539 168.055 150.699C168.425 150.849 168.74 151.079 169 151.389C169.27 151.699 169.41 152.104 169.42 152.604C169.42 153.054 169.295 153.459 169.045 153.819C168.795 154.179 168.44 154.464 167.98 154.674C167.53 154.874 167.01 154.974 166.42 154.974ZM178.691 147.744H176.966V154.839H175.601V147.744H174.536V146.619H175.601V146.034C175.601 145.114 175.836 144.444 176.306 144.024C176.786 143.594 177.551 143.379 178.601 143.379V144.519C178.001 144.519 177.576 144.639 177.326 144.879C177.086 145.109 176.966 145.494 176.966 146.034V146.619H178.691V147.744ZM183.868 154.974C183.098 154.974 182.398 154.799 181.768 154.449C181.148 154.099 180.658 153.604 180.298 152.964C179.948 152.314 179.773 151.564 179.773 150.714C179.773 149.874 179.953 149.134 180.313 148.494C180.683 147.844 181.183 147.349 181.813 147.009C182.443 146.659 183.148 146.484 183.928 146.484C184.708 146.484 185.413 146.659 186.043 147.009C186.673 147.349 187.168 147.839 187.528 148.479C187.898 149.119 188.083 149.864 188.083 150.714C188.083 151.564 187.893 152.314 187.513 152.964C187.143 153.604 186.638 154.099 185.998 154.449C185.358 154.799 184.648 154.974 183.868 154.974ZM183.868 153.774C184.358 153.774 184.818 153.659 185.248 153.429C185.678 153.199 186.023 152.854 186.283 152.394C186.553 151.934 186.688 151.374 186.688 150.714C186.688 150.054 186.558 149.494 186.298 149.034C186.038 148.574 185.698 148.234 185.278 148.014C184.858 147.784 184.403 147.669 183.913 147.669C183.413 147.669 182.953 147.784 182.533 148.014C182.123 148.234 181.793 148.574 181.543 149.034C181.293 149.494 181.168 150.054 181.168 150.714C181.168 151.384 181.288 151.949 181.528 152.409C181.778 152.869 182.108 153.214 182.518 153.444C182.928 153.664 183.378 153.774 183.868 153.774ZM191.243 147.954C191.483 147.484 191.823 147.119 192.263 146.859C192.713 146.599 193.258 146.469 193.898 146.469V147.879H193.538C192.008 147.879 191.243 148.709 191.243 150.369V154.839H189.878V146.619H191.243V147.954ZM200.837 144.384V154.839H199.472V144.384H200.837ZM207.904 154.944C206.934 154.944 206.049 154.719 205.249 154.269C204.449 153.809 203.814 153.174 203.344 152.364C202.884 151.544 202.654 150.624 202.654 149.604C202.654 148.584 202.884 147.669 203.344 146.859C203.814 146.039 204.449 145.404 205.249 144.954C206.049 144.494 206.934 144.264 207.904 144.264C208.884 144.264 209.774 144.494 210.574 144.954C211.374 145.404 212.004 146.034 212.464 146.844C212.924 147.654 213.154 148.574 213.154 149.604C213.154 150.634 212.924 151.554 212.464 152.364C212.004 153.174 211.374 153.809 210.574 154.269C209.774 154.719 208.884 154.944 207.904 154.944ZM207.904 153.759C208.634 153.759 209.289 153.589 209.869 153.249C210.459 152.909 210.919 152.424 211.249 151.794C211.589 151.164 211.759 150.434 211.759 149.604C211.759 148.764 211.589 148.034 211.249 147.414C210.919 146.784 210.464 146.299 209.884 145.959C209.304 145.619 208.644 145.449 207.904 145.449C207.164 145.449 206.504 145.619 205.924 145.959C205.344 146.299 204.884 146.784 204.544 147.414C204.214 148.034 204.049 148.764 204.049 149.604C204.049 150.434 204.214 151.164 204.544 151.794C204.884 152.424 205.344 152.909 205.924 153.249C206.514 153.589 207.174 153.759 207.904 153.759ZM218.271 154.944C217.581 154.944 216.961 154.824 216.411 154.584C215.871 154.334 215.446 153.994 215.136 153.564C214.826 153.124 214.666 152.619 214.656 152.049H216.111C216.161 152.539 216.361 152.954 216.711 153.294C217.071 153.624 217.591 153.789 218.271 153.789C218.921 153.789 219.431 153.629 219.801 153.309C220.181 152.979 220.371 152.559 220.371 152.049C220.371 151.649 220.261 151.324 220.041 151.074C219.821 150.824 219.546 150.634 219.216 150.504C218.886 150.374 218.441 150.234 217.881 150.084C217.191 149.904 216.636 149.724 216.216 149.544C215.806 149.364 215.451 149.084 215.151 148.704C214.861 148.314 214.716 147.794 214.716 147.144C214.716 146.574 214.861 146.069 215.151 145.629C215.441 145.189 215.846 144.849 216.366 144.609C216.896 144.369 217.501 144.249 218.181 144.249C219.161 144.249 219.961 144.494 220.581 144.984C221.211 145.474 221.566 146.124 221.646 146.934H220.146C220.096 146.534 219.886 146.184 219.516 145.884C219.146 145.574 218.656 145.419 218.046 145.419C217.476 145.419 217.011 145.569 216.651 145.869C216.291 146.159 216.111 146.569 216.111 147.099C216.111 147.479 216.216 147.789 216.426 148.029C216.646 148.269 216.911 148.454 217.221 148.584C217.541 148.704 217.986 148.844 218.556 149.004C219.246 149.194 219.801 149.384 220.221 149.574C220.641 149.754 221.001 150.039 221.301 150.429C221.601 150.809 221.751 151.329 221.751 151.989C221.751 152.499 221.616 152.979 221.346 153.429C221.076 153.879 220.676 154.244 220.146 154.524C219.616 154.804 218.991 154.944 218.271 154.944ZM127.707 177.839L126.342 176.459C125.832 176.989 125.287 177.384 124.707 177.644C124.127 177.894 123.472 178.019 122.742 178.019C122.022 178.019 121.382 177.889 120.822 177.629C120.272 177.369 119.842 176.999 119.532 176.519C119.232 176.039 119.082 175.479 119.082 174.839C119.082 174.109 119.287 173.469 119.697 172.919C120.117 172.359 120.732 171.919 121.542 171.599C121.222 171.219 120.992 170.869 120.852 170.549C120.712 170.229 120.642 169.879 120.642 169.499C120.642 169.059 120.752 168.664 120.972 168.314C121.202 167.954 121.527 167.674 121.947 167.474C122.367 167.274 122.852 167.174 123.402 167.174C123.942 167.174 124.412 167.279 124.812 167.489C125.212 167.699 125.512 167.994 125.712 168.374C125.912 168.744 126.002 169.159 125.982 169.619H124.617C124.627 169.209 124.512 168.889 124.272 168.659C124.032 168.419 123.722 168.299 123.342 168.299C122.942 168.299 122.617 168.414 122.367 168.644C122.127 168.864 122.007 169.149 122.007 169.499C122.007 169.799 122.087 170.089 122.247 170.369C122.417 170.649 122.697 170.994 123.087 171.404L126.207 174.539L126.477 174.119L127.497 172.409H128.967L127.737 174.539C127.567 174.839 127.367 175.154 127.137 175.484L129.492 177.839H127.707ZM122.742 176.849C123.282 176.849 123.767 176.744 124.197 176.534C124.637 176.324 125.052 175.999 125.442 175.559L122.367 172.469C121.087 172.959 120.447 173.734 120.447 174.794C120.447 175.384 120.657 175.874 121.077 176.264C121.507 176.654 122.062 176.849 122.742 176.849ZM140.95 175.514H136.39L135.55 177.839H134.11L137.89 167.444H139.465L143.23 177.839H141.79L140.95 175.514ZM140.56 174.404L138.67 169.124L136.78 174.404H140.56ZM148.883 169.469C149.883 169.469 150.693 169.774 151.313 170.384C151.933 170.984 152.243 171.854 152.243 172.994V177.839H150.893V173.189C150.893 172.369 150.688 171.744 150.278 171.314C149.868 170.874 149.308 170.654 148.598 170.654C147.878 170.654 147.303 170.879 146.873 171.329C146.453 171.779 146.243 172.434 146.243 173.294V177.839H144.878V169.619H146.243V170.789C146.513 170.369 146.878 170.044 147.338 169.814C147.808 169.584 148.323 169.469 148.883 169.469ZM153.962 173.699C153.962 172.859 154.132 172.124 154.472 171.494C154.812 170.854 155.277 170.359 155.867 170.009C156.467 169.659 157.137 169.484 157.877 169.484C158.517 169.484 159.112 169.634 159.662 169.934C160.212 170.224 160.632 170.609 160.922 171.089V166.739H162.302V177.839H160.922V176.294C160.652 176.784 160.252 177.189 159.722 177.509C159.192 177.819 158.572 177.974 157.862 177.974C157.132 177.974 156.467 177.794 155.867 177.434C155.277 177.074 154.812 176.569 154.472 175.919C154.132 175.269 153.962 174.529 153.962 173.699ZM160.922 173.714C160.922 173.094 160.797 172.554 160.547 172.094C160.297 171.634 159.957 171.284 159.527 171.044C159.107 170.794 158.642 170.669 158.132 170.669C157.622 170.669 157.157 170.789 156.737 171.029C156.317 171.269 155.982 171.619 155.732 172.079C155.482 172.539 155.357 173.079 155.357 173.699C155.357 174.329 155.482 174.879 155.732 175.349C155.982 175.809 156.317 176.164 156.737 176.414C157.157 176.654 157.622 176.774 158.132 176.774C158.642 176.774 159.107 176.654 159.527 176.414C159.957 176.164 160.297 175.809 160.547 175.349C160.797 174.879 160.922 174.334 160.922 173.714ZM165.974 170.954C166.214 170.484 166.554 170.119 166.994 169.859C167.444 169.599 167.989 169.469 168.629 169.469V170.879H168.269C166.739 170.879 165.974 171.709 165.974 173.369V177.839H164.609V169.619H165.974V170.954ZM173.79 177.974C173.02 177.974 172.32 177.799 171.69 177.449C171.07 177.099 170.58 176.604 170.22 175.964C169.87 175.314 169.695 174.564 169.695 173.714C169.695 172.874 169.875 172.134 170.235 171.494C170.605 170.844 171.105 170.349 171.735 170.009C172.365 169.659 173.07 169.484 173.85 169.484C174.63 169.484 175.335 169.659 175.965 170.009C176.595 170.349 177.09 170.839 177.45 171.479C177.82 172.119 178.005 172.864 178.005 173.714C178.005 174.564 177.815 175.314 177.435 175.964C177.065 176.604 176.56 177.099 175.92 177.449C175.28 177.799 174.57 177.974 173.79 177.974ZM173.79 176.774C174.28 176.774 174.74 176.659 175.17 176.429C175.6 176.199 175.945 175.854 176.205 175.394C176.475 174.934 176.61 174.374 176.61 173.714C176.61 173.054 176.48 172.494 176.22 172.034C175.96 171.574 175.62 171.234 175.2 171.014C174.78 170.784 174.325 170.669 173.835 170.669C173.335 170.669 172.875 170.784 172.455 171.014C172.045 171.234 171.715 171.574 171.465 172.034C171.215 172.494 171.09 173.054 171.09 173.714C171.09 174.384 171.21 174.949 171.45 175.409C171.7 175.869 172.03 176.214 172.44 176.444C172.85 176.664 173.3 176.774 173.79 176.774ZM180.505 168.284C180.245 168.284 180.025 168.194 179.845 168.014C179.665 167.834 179.575 167.614 179.575 167.354C179.575 167.094 179.665 166.874 179.845 166.694C180.025 166.514 180.245 166.424 180.505 166.424C180.755 166.424 180.965 166.514 181.135 166.694C181.315 166.874 181.405 167.094 181.405 167.354C181.405 167.614 181.315 167.834 181.135 168.014C180.965 168.194 180.755 168.284 180.505 168.284ZM181.165 169.619V177.839H179.8V169.619H181.165ZM182.981 173.699C182.981 172.859 183.151 172.124 183.491 171.494C183.831 170.854 184.296 170.359 184.886 170.009C185.486 169.659 186.156 169.484 186.896 169.484C187.536 169.484 188.131 169.634 188.681 169.934C189.231 170.224 189.651 170.609 189.941 171.089V166.739H191.321V177.839H189.941V176.294C189.671 176.784 189.271 177.189 188.741 177.509C188.211 177.819 187.591 177.974 186.881 177.974C186.151 177.974 185.486 177.794 184.886 177.434C184.296 177.074 183.831 176.569 183.491 175.919C183.151 175.269 182.981 174.529 182.981 173.699ZM189.941 173.714C189.941 173.094 189.816 172.554 189.566 172.094C189.316 171.634 188.976 171.284 188.546 171.044C188.126 170.794 187.661 170.669 187.151 170.669C186.641 170.669 186.176 170.789 185.756 171.029C185.336 171.269 185.001 171.619 184.751 172.079C184.501 172.539 184.376 173.079 184.376 173.699C184.376 174.329 184.501 174.879 184.751 175.349C185.001 175.809 185.336 176.164 185.756 176.414C186.176 176.654 186.641 176.774 187.151 176.774C187.661 176.774 188.126 176.654 188.546 176.414C188.976 176.164 189.316 175.809 189.566 175.349C189.816 174.879 189.941 174.334 189.941 173.714Z" fill="#D7C5C5"/>
<circle cx="513.5" cy="137.339" r="135.5" fill="#CEEFE6" fill-opacity="0.3" stroke="white" stroke-width="2"/>
<path d="M379 137.339C379 63.0571 439.218 2.83936 513.5 2.83936" stroke="#59E5B3" stroke-width="2"/>
<circle cx="514" cy="136.839" r="109" fill="white"/>
<circle cx="514" cy="136.839" r="88" fill="#2E1C18"/>
<g filter="url(#filter3_d_1_91)">
<circle cx="378.5" cy="139.339" r="10.5" fill="url(#paint3_linear_1_91)"/>
<circle cx="378.5" cy="139.339" r="11.5" stroke="white" stroke-width="2"/>
</g>
<g clip-path="url(#clip1_1_91)">
<g filter="url(#filter4_d_1_91)">
<path d="M530.479 106.833V107.985C529.227 106.98 527.64 106.377 525.914 106.377C521.886 106.377 518.609 109.654 518.609 113.681C518.609 117.709 521.886 120.986 525.914 120.986C527.64 120.986 529.227 120.382 530.479 119.377V120.529H533.218V106.833H530.479ZM525.914 118.246C523.396 118.246 521.348 116.198 521.348 113.681C521.348 111.164 523.396 109.116 525.914 109.116C528.431 109.116 530.479 111.164 530.479 113.681C530.479 116.199 528.431 118.246 525.914 118.246Z" fill="url(#paint4_linear_1_91)"/>
</g>
<g filter="url(#filter5_d_1_91)">
<path d="M535.5 123.724H493.5V126.463H535.5V123.724Z" fill="url(#paint5_linear_1_91)"/>
</g>
<g filter="url(#filter6_d_1_91)">
<path d="M507.197 95.0891L496.059 120.403H499.051L502.868 111.729H511.525L515.342 120.403H518.334L507.197 95.0891ZM504.073 108.99L507.196 101.89L510.32 108.99H504.073Z" fill="url(#paint6_linear_1_91)"/>
</g>
</g>
<path d="M459.219 153.944C458.529 153.944 457.909 153.824 457.359 153.584C456.819 153.334 456.394 152.994 456.084 152.564C455.774 152.124 455.614 151.619 455.604 151.049H457.059C457.109 151.539 457.309 151.954 457.659 152.294C458.019 152.624 458.539 152.789 459.219 152.789C459.869 152.789 460.379 152.629 460.749 152.309C461.129 151.979 461.319 151.559 461.319 151.049C461.319 150.649 461.209 150.324 460.989 150.074C460.769 149.824 460.494 149.634 460.164 149.504C459.834 149.374 459.389 149.234 458.829 149.084C458.139 148.904 457.584 148.724 457.164 148.544C456.754 148.364 456.399 148.084 456.099 147.704C455.809 147.314 455.664 146.794 455.664 146.144C455.664 145.574 455.809 145.069 456.099 144.629C456.389 144.189 456.794 143.849 457.314 143.609C457.844 143.369 458.449 143.249 459.129 143.249C460.109 143.249 460.909 143.494 461.529 143.984C462.159 144.474 462.514 145.124 462.594 145.934H461.094C461.044 145.534 460.834 145.184 460.464 144.884C460.094 144.574 459.604 144.419 458.994 144.419C458.424 144.419 457.959 144.569 457.599 144.869C457.239 145.159 457.059 145.569 457.059 146.099C457.059 146.479 457.164 146.789 457.374 147.029C457.594 147.269 457.859 147.454 458.169 147.584C458.489 147.704 458.934 147.844 459.504 148.004C460.194 148.194 460.749 148.384 461.169 148.574C461.589 148.754 461.949 149.039 462.249 149.429C462.549 149.809 462.699 150.329 462.699 150.989C462.699 151.499 462.564 151.979 462.294 152.429C462.024 152.879 461.624 153.244 461.094 153.524C460.564 153.804 459.939 153.944 459.219 153.944ZM466.373 146.744V151.589C466.373 151.989 466.458 152.274 466.628 152.444C466.798 152.604 467.093 152.684 467.513 152.684H468.518V153.839H467.288C466.528 153.839 465.958 153.664 465.578 153.314C465.198 152.964 465.008 152.389 465.008 151.589V146.744H463.943V145.619H465.008V143.549H466.373V145.619H468.518V146.744H466.373ZM477.252 145.619L472.302 157.709H470.892L472.512 153.749L469.197 145.619H470.712L473.292 152.279L475.842 145.619H477.252ZM479.989 142.739V153.839H478.624V142.739H479.989ZM483.02 144.284C482.76 144.284 482.54 144.194 482.36 144.014C482.18 143.834 482.09 143.614 482.09 143.354C482.09 143.094 482.18 142.874 482.36 142.694C482.54 142.514 482.76 142.424 483.02 142.424C483.27 142.424 483.48 142.514 483.65 142.694C483.83 142.874 483.92 143.094 483.92 143.354C483.92 143.614 483.83 143.834 483.65 144.014C483.48 144.194 483.27 144.284 483.02 144.284ZM483.68 145.619V153.839H482.315V145.619H483.68ZM488.917 153.974C488.287 153.974 487.722 153.869 487.222 153.659C486.722 153.439 486.327 153.139 486.037 152.759C485.747 152.369 485.587 151.924 485.557 151.424H486.967C487.007 151.834 487.197 152.169 487.537 152.429C487.887 152.689 488.342 152.819 488.902 152.819C489.422 152.819 489.832 152.704 490.132 152.474C490.432 152.244 490.582 151.954 490.582 151.604C490.582 151.244 490.422 150.979 490.102 150.809C489.782 150.629 489.287 150.454 488.617 150.284C488.007 150.124 487.507 149.964 487.117 149.804C486.737 149.634 486.407 149.389 486.127 149.069C485.857 148.739 485.722 148.309 485.722 147.779C485.722 147.359 485.847 146.974 486.097 146.624C486.347 146.274 486.702 145.999 487.162 145.799C487.622 145.589 488.147 145.484 488.737 145.484C489.647 145.484 490.382 145.714 490.942 146.174C491.502 146.634 491.802 147.264 491.842 148.064H490.477C490.447 147.634 490.272 147.289 489.952 147.029C489.642 146.769 489.222 146.639 488.692 146.639C488.202 146.639 487.812 146.744 487.522 146.954C487.232 147.164 487.087 147.439 487.087 147.779C487.087 148.049 487.172 148.274 487.342 148.454C487.522 148.624 487.742 148.764 488.002 148.874C488.272 148.974 488.642 149.089 489.112 149.219C489.702 149.379 490.182 149.539 490.552 149.699C490.922 149.849 491.237 150.079 491.497 150.389C491.767 150.699 491.907 151.104 491.917 151.604C491.917 152.054 491.792 152.459 491.542 152.819C491.292 153.179 490.937 153.464 490.477 153.674C490.027 153.874 489.507 153.974 488.917 153.974ZM497.923 145.469C498.543 145.469 499.103 145.604 499.603 145.874C500.103 146.134 500.493 146.529 500.773 147.059C501.063 147.589 501.208 148.234 501.208 148.994V153.839H499.858V149.189C499.858 148.369 499.653 147.744 499.243 147.314C498.833 146.874 498.273 146.654 497.563 146.654C496.843 146.654 496.268 146.879 495.838 147.329C495.418 147.779 495.208 148.434 495.208 149.294V153.839H493.843V142.739H495.208V146.789C495.478 146.369 495.848 146.044 496.318 145.814C496.798 145.584 497.333 145.469 497.923 145.469ZM513.347 143.384V144.494H508.802V148.019H512.492V149.129H508.802V153.839H507.437V143.384H513.347ZM516.361 146.954C516.601 146.484 516.941 146.119 517.381 145.859C517.831 145.599 518.376 145.469 519.016 145.469V146.879H518.656C517.126 146.879 516.361 147.709 516.361 149.369V153.839H514.996V145.619H516.361V146.954ZM528.092 149.414C528.092 149.674 528.077 149.949 528.047 150.239H521.477C521.527 151.049 521.802 151.684 522.302 152.144C522.812 152.594 523.427 152.819 524.147 152.819C524.737 152.819 525.227 152.684 525.617 152.414C526.017 152.134 526.297 151.764 526.457 151.304H527.927C527.707 152.094 527.267 152.739 526.607 153.239C525.947 153.729 525.127 153.974 524.147 153.974C523.367 153.974 522.667 153.799 522.047 153.449C521.437 153.099 520.957 152.604 520.607 151.964C520.257 151.314 520.082 150.564 520.082 149.714C520.082 148.864 520.252 148.119 520.592 147.479C520.932 146.839 521.407 146.349 522.017 146.009C522.637 145.659 523.347 145.484 524.147 145.484C524.927 145.484 525.617 145.654 526.217 145.994C526.817 146.334 527.277 146.804 527.597 147.404C527.927 147.994 528.092 148.664 528.092 149.414ZM526.682 149.129C526.682 148.609 526.567 148.164 526.337 147.794C526.107 147.414 525.792 147.129 525.392 146.939C525.002 146.739 524.567 146.639 524.087 146.639C523.397 146.639 522.807 146.859 522.317 147.299C521.837 147.739 521.562 148.349 521.492 149.129H526.682ZM537.393 149.414C537.393 149.674 537.378 149.949 537.348 150.239H530.778C530.828 151.049 531.103 151.684 531.603 152.144C532.113 152.594 532.728 152.819 533.448 152.819C534.038 152.819 534.528 152.684 534.918 152.414C535.318 152.134 535.598 151.764 535.758 151.304H537.228C537.008 152.094 536.568 152.739 535.908 153.239C535.248 153.729 534.428 153.974 533.448 153.974C532.668 153.974 531.968 153.799 531.348 153.449C530.738 153.099 530.258 152.604 529.908 151.964C529.558 151.314 529.383 150.564 529.383 149.714C529.383 148.864 529.553 148.119 529.893 147.479C530.233 146.839 530.708 146.349 531.318 146.009C531.938 145.659 532.648 145.484 533.448 145.484C534.228 145.484 534.918 145.654 535.518 145.994C536.118 146.334 536.578 146.804 536.898 147.404C537.228 147.994 537.393 148.664 537.393 149.414ZM535.983 149.129C535.983 148.609 535.868 148.164 535.638 147.794C535.408 147.414 535.093 147.129 534.693 146.939C534.303 146.739 533.868 146.639 533.388 146.639C532.698 146.639 532.108 146.859 531.618 147.299C531.138 147.739 530.863 148.349 530.793 149.129H535.983ZM549.104 143.384V144.494H544.559V148.019H548.249V149.129H544.559V153.839H543.194V143.384H549.104ZM554.338 153.974C553.568 153.974 552.868 153.799 552.238 153.449C551.618 153.099 551.128 152.604 550.768 151.964C550.418 151.314 550.243 150.564 550.243 149.714C550.243 148.874 550.423 148.134 550.783 147.494C551.153 146.844 551.653 146.349 552.283 146.009C552.913 145.659 553.618 145.484 554.398 145.484C555.178 145.484 555.883 145.659 556.513 146.009C557.143 146.349 557.638 146.839 557.998 147.479C558.368 148.119 558.553 148.864 558.553 149.714C558.553 150.564 558.363 151.314 557.983 151.964C557.613 152.604 557.108 153.099 556.468 153.449C555.828 153.799 555.118 153.974 554.338 153.974ZM554.338 152.774C554.828 152.774 555.288 152.659 555.718 152.429C556.148 152.199 556.493 151.854 556.753 151.394C557.023 150.934 557.158 150.374 557.158 149.714C557.158 149.054 557.028 148.494 556.768 148.034C556.508 147.574 556.168 147.234 555.748 147.014C555.328 146.784 554.873 146.669 554.383 146.669C553.883 146.669 553.423 146.784 553.003 147.014C552.593 147.234 552.263 147.574 552.013 148.034C551.763 148.494 551.638 149.054 551.638 149.714C551.638 150.384 551.758 150.949 551.998 151.409C552.248 151.869 552.578 152.214 552.988 152.444C553.398 152.664 553.848 152.774 554.338 152.774ZM564.352 145.469C565.352 145.469 566.162 145.774 566.782 146.384C567.402 146.984 567.712 147.854 567.712 148.994V153.839H566.362V149.189C566.362 148.369 566.157 147.744 565.747 147.314C565.337 146.874 564.777 146.654 564.067 146.654C563.347 146.654 562.772 146.879 562.342 147.329C561.922 147.779 561.712 148.434 561.712 149.294V153.839H560.347V145.619H561.712V146.789C561.982 146.369 562.347 146.044 562.807 145.814C563.277 145.584 563.792 145.469 564.352 145.469ZM571.607 146.744V151.589C571.607 151.989 571.692 152.274 571.862 152.444C572.032 152.604 572.327 152.684 572.747 152.684H573.752V153.839H572.522C571.762 153.839 571.192 153.664 570.812 153.314C570.432 152.964 570.242 152.389 570.242 151.589V146.744H569.177V145.619H570.242V143.549H571.607V145.619H573.752V146.744H571.607ZM465.86 168.619V176.839H464.495V175.624C464.235 176.044 463.87 176.374 463.4 176.614C462.94 176.844 462.43 176.959 461.87 176.959C461.23 176.959 460.655 176.829 460.145 176.569C459.635 176.299 459.23 175.899 458.93 175.369C458.64 174.839 458.495 174.194 458.495 173.434V168.619H459.845V173.254C459.845 174.064 460.05 174.689 460.46 175.129C460.87 175.559 461.43 175.774 462.14 175.774C462.87 175.774 463.445 175.549 463.865 175.099C464.285 174.649 464.495 173.994 464.495 173.134V168.619H465.86ZM471.075 176.974C470.445 176.974 469.88 176.869 469.38 176.659C468.88 176.439 468.485 176.139 468.195 175.759C467.905 175.369 467.745 174.924 467.715 174.424H469.125C469.165 174.834 469.355 175.169 469.695 175.429C470.045 175.689 470.5 175.819 471.06 175.819C471.58 175.819 471.99 175.704 472.29 175.474C472.59 175.244 472.74 174.954 472.74 174.604C472.74 174.244 472.58 173.979 472.26 173.809C471.94 173.629 471.445 173.454 470.775 173.284C470.165 173.124 469.665 172.964 469.275 172.804C468.895 172.634 468.565 172.389 468.285 172.069C468.015 171.739 467.88 171.309 467.88 170.779C467.88 170.359 468.005 169.974 468.255 169.624C468.505 169.274 468.86 168.999 469.32 168.799C469.78 168.589 470.305 168.484 470.895 168.484C471.805 168.484 472.54 168.714 473.1 169.174C473.66 169.634 473.96 170.264 474 171.064H472.635C472.605 170.634 472.43 170.289 472.11 170.029C471.8 169.769 471.38 169.639 470.85 169.639C470.36 169.639 469.97 169.744 469.68 169.954C469.39 170.164 469.245 170.439 469.245 170.779C469.245 171.049 469.33 171.274 469.5 171.454C469.68 171.624 469.9 171.764 470.16 171.874C470.43 171.974 470.8 172.089 471.27 172.219C471.86 172.379 472.34 172.539 472.71 172.699C473.08 172.849 473.395 173.079 473.655 173.389C473.925 173.699 474.065 174.104 474.075 174.604C474.075 175.054 473.95 175.459 473.7 175.819C473.45 176.179 473.095 176.464 472.635 176.674C472.185 176.874 471.665 176.974 471.075 176.974ZM483.502 172.414C483.502 172.674 483.487 172.949 483.457 173.239H476.887C476.937 174.049 477.212 174.684 477.712 175.144C478.222 175.594 478.837 175.819 479.557 175.819C480.147 175.819 480.637 175.684 481.027 175.414C481.427 175.134 481.707 174.764 481.867 174.304H483.337C483.117 175.094 482.677 175.739 482.017 176.239C481.357 176.729 480.537 176.974 479.557 176.974C478.777 176.974 478.077 176.799 477.457 176.449C476.847 176.099 476.367 175.604 476.017 174.964C475.667 174.314 475.492 173.564 475.492 172.714C475.492 171.864 475.662 171.119 476.002 170.479C476.342 169.839 476.817 169.349 477.427 169.009C478.047 168.659 478.757 168.484 479.557 168.484C480.337 168.484 481.027 168.654 481.627 168.994C482.227 169.334 482.687 169.804 483.007 170.404C483.337 170.994 483.502 171.664 483.502 172.414ZM482.092 172.129C482.092 171.609 481.977 171.164 481.747 170.794C481.517 170.414 481.202 170.129 480.802 169.939C480.412 169.739 479.977 169.639 479.497 169.639C478.807 169.639 478.217 169.859 477.727 170.299C477.247 170.739 476.972 171.349 476.902 172.129H482.092ZM484.793 172.699C484.793 171.859 484.963 171.124 485.303 170.494C485.643 169.854 486.108 169.359 486.698 169.009C487.298 168.659 487.968 168.484 488.708 168.484C489.348 168.484 489.943 168.634 490.493 168.934C491.043 169.224 491.463 169.609 491.753 170.089V165.739H493.133V176.839H491.753V175.294C491.483 175.784 491.083 176.189 490.553 176.509C490.023 176.819 489.403 176.974 488.693 176.974C487.963 176.974 487.298 176.794 486.698 176.434C486.108 176.074 485.643 175.569 485.303 174.919C484.963 174.269 484.793 173.529 484.793 172.699ZM491.753 172.714C491.753 172.094 491.628 171.554 491.378 171.094C491.128 170.634 490.788 170.284 490.358 170.044C489.938 169.794 489.473 169.669 488.963 169.669C488.453 169.669 487.988 169.789 487.568 170.029C487.148 170.269 486.813 170.619 486.563 171.079C486.313 171.539 486.188 172.079 486.188 172.699C486.188 173.329 486.313 173.879 486.563 174.349C486.813 174.809 487.148 175.164 487.568 175.414C487.988 175.654 488.453 175.774 488.963 175.774C489.473 175.774 489.938 175.654 490.358 175.414C490.788 175.164 491.128 174.809 491.378 174.349C491.628 173.879 491.753 173.334 491.753 172.714ZM502.949 179.629C501.989 178.689 501.239 177.494 500.699 176.044C500.169 174.594 499.904 173.029 499.904 171.349C499.904 169.629 500.184 168.024 500.744 166.534C501.314 165.034 502.124 163.799 503.174 162.829H504.599V162.964C503.479 164.014 502.634 165.279 502.064 166.759C501.504 168.229 501.224 169.759 501.224 171.349C501.224 172.899 501.489 174.379 502.019 175.789C502.559 177.199 503.344 178.434 504.374 179.494V179.629H502.949ZM513.241 169.444C513.241 170.314 512.941 171.039 512.341 171.619C511.751 172.189 510.846 172.474 509.626 172.474H507.616V176.839H506.251V166.384H509.626C510.806 166.384 511.701 166.669 512.311 167.239C512.931 167.809 513.241 168.544 513.241 169.444ZM509.626 171.349C510.386 171.349 510.946 171.184 511.306 170.854C511.666 170.524 511.846 170.054 511.846 169.444C511.846 168.154 511.106 167.509 509.626 167.509H507.616V171.349H509.626ZM518.522 176.974C517.752 176.974 517.052 176.799 516.422 176.449C515.802 176.099 515.312 175.604 514.952 174.964C514.602 174.314 514.427 173.564 514.427 172.714C514.427 171.874 514.607 171.134 514.967 170.494C515.337 169.844 515.837 169.349 516.467 169.009C517.097 168.659 517.802 168.484 518.582 168.484C519.362 168.484 520.067 168.659 520.697 169.009C521.327 169.349 521.822 169.839 522.182 170.479C522.552 171.119 522.737 171.864 522.737 172.714C522.737 173.564 522.547 174.314 522.167 174.964C521.797 175.604 521.292 176.099 520.652 176.449C520.012 176.799 519.302 176.974 518.522 176.974ZM518.522 175.774C519.012 175.774 519.472 175.659 519.902 175.429C520.332 175.199 520.677 174.854 520.937 174.394C521.207 173.934 521.342 173.374 521.342 172.714C521.342 172.054 521.212 171.494 520.952 171.034C520.692 170.574 520.352 170.234 519.932 170.014C519.512 169.784 519.057 169.669 518.567 169.669C518.067 169.669 517.607 169.784 517.187 170.014C516.777 170.234 516.447 170.574 516.197 171.034C515.947 171.494 515.822 172.054 515.822 172.714C515.822 173.384 515.942 173.949 516.182 174.409C516.432 174.869 516.762 175.214 517.172 175.444C517.582 175.664 518.032 175.774 518.522 175.774ZM525.897 170.134C526.167 169.664 526.567 169.274 527.097 168.964C527.637 168.644 528.262 168.484 528.972 168.484C529.702 168.484 530.362 168.659 530.952 169.009C531.552 169.359 532.022 169.854 532.362 170.494C532.702 171.124 532.872 171.859 532.872 172.699C532.872 173.529 532.702 174.269 532.362 174.919C532.022 175.569 531.552 176.074 530.952 176.434C530.362 176.794 529.702 176.974 528.972 176.974C528.272 176.974 527.652 176.819 527.112 176.509C526.582 176.189 526.177 175.794 525.897 175.324V180.739H524.532V168.619H525.897V170.134ZM531.477 172.699C531.477 172.079 531.352 171.539 531.102 171.079C530.852 170.619 530.512 170.269 530.082 170.029C529.662 169.789 529.197 169.669 528.687 169.669C528.187 169.669 527.722 169.794 527.292 170.044C526.872 170.284 526.532 170.639 526.272 171.109C526.022 171.569 525.897 172.104 525.897 172.714C525.897 173.334 526.022 173.879 526.272 174.349C526.532 174.809 526.872 175.164 527.292 175.414C527.722 175.654 528.187 175.774 528.687 175.774C529.197 175.774 529.662 175.654 530.082 175.414C530.512 175.164 530.852 174.809 531.102 174.349C531.352 173.879 531.477 173.329 531.477 172.699ZM536.034 170.134C536.304 169.664 536.704 169.274 537.234 168.964C537.774 168.644 538.399 168.484 539.109 168.484C539.839 168.484 540.499 168.659 541.089 169.009C541.689 169.359 542.159 169.854 542.499 170.494C542.839 171.124 543.009 171.859 543.009 172.699C543.009 173.529 542.839 174.269 542.499 174.919C542.159 175.569 541.689 176.074 541.089 176.434C540.499 176.794 539.839 176.974 539.109 176.974C538.409 176.974 537.789 176.819 537.249 176.509C536.719 176.189 536.314 175.794 536.034 175.324V180.739H534.669V168.619H536.034V170.134ZM541.614 172.699C541.614 172.079 541.489 171.539 541.239 171.079C540.989 170.619 540.649 170.269 540.219 170.029C539.799 169.789 539.334 169.669 538.824 169.669C538.324 169.669 537.859 169.794 537.429 170.044C537.009 170.284 536.669 170.639 536.409 171.109C536.159 171.569 536.034 172.104 536.034 172.714C536.034 173.334 536.159 173.879 536.409 174.349C536.669 174.809 537.009 175.164 537.429 175.414C537.859 175.654 538.324 175.774 538.824 175.774C539.334 175.774 539.799 175.654 540.219 175.414C540.649 175.164 540.989 174.809 541.239 174.349C541.489 173.879 541.614 173.329 541.614 172.699ZM545.51 167.284C545.25 167.284 545.03 167.194 544.85 167.014C544.67 166.834 544.58 166.614 544.58 166.354C544.58 166.094 544.67 165.874 544.85 165.694C545.03 165.514 545.25 165.424 545.51 165.424C545.76 165.424 545.97 165.514 546.14 165.694C546.32 165.874 546.41 166.094 546.41 166.354C546.41 166.614 546.32 166.834 546.14 167.014C545.97 167.194 545.76 167.284 545.51 167.284ZM546.17 168.619V176.839H544.805V168.619H546.17ZM552.502 168.469C553.502 168.469 554.312 168.774 554.932 169.384C555.552 169.984 555.862 170.854 555.862 171.994V176.839H554.512V172.189C554.512 171.369 554.307 170.744 553.897 170.314C553.487 169.874 552.927 169.654 552.217 169.654C551.497 169.654 550.922 169.879 550.492 170.329C550.072 170.779 549.862 171.434 549.862 172.294V176.839H548.497V168.619H549.862V169.789C550.132 169.369 550.497 169.044 550.957 168.814C551.427 168.584 551.942 168.469 552.502 168.469ZM561.002 176.974C560.372 176.974 559.807 176.869 559.307 176.659C558.807 176.439 558.412 176.139 558.122 175.759C557.832 175.369 557.672 174.924 557.642 174.424H559.052C559.092 174.834 559.282 175.169 559.622 175.429C559.972 175.689 560.427 175.819 560.987 175.819C561.507 175.819 561.917 175.704 562.217 175.474C562.517 175.244 562.667 174.954 562.667 174.604C562.667 174.244 562.507 173.979 562.187 173.809C561.867 173.629 561.372 173.454 560.702 173.284C560.092 173.124 559.592 172.964 559.202 172.804C558.822 172.634 558.492 172.389 558.212 172.069C557.942 171.739 557.807 171.309 557.807 170.779C557.807 170.359 557.932 169.974 558.182 169.624C558.432 169.274 558.787 168.999 559.247 168.799C559.707 168.589 560.232 168.484 560.822 168.484C561.732 168.484 562.467 168.714 563.027 169.174C563.587 169.634 563.887 170.264 563.927 171.064H562.562C562.532 170.634 562.357 170.289 562.037 170.029C561.727 169.769 561.307 169.639 560.777 169.639C560.287 169.639 559.897 169.744 559.607 169.954C559.317 170.164 559.172 170.439 559.172 170.779C559.172 171.049 559.257 171.274 559.427 171.454C559.607 171.624 559.827 171.764 560.087 171.874C560.357 171.974 560.727 172.089 561.197 172.219C561.787 172.379 562.267 172.539 562.637 172.699C563.007 172.849 563.322 173.079 563.582 173.389C563.852 173.699 563.992 174.104 564.002 174.604C564.002 175.054 563.877 175.459 563.627 175.819C563.377 176.179 563.022 176.464 562.562 176.674C562.112 176.874 561.592 176.974 561.002 176.974ZM565.493 179.629V179.494C566.523 178.434 567.303 177.199 567.833 175.789C568.373 174.379 568.643 172.899 568.643 171.349C568.643 169.759 568.358 168.229 567.788 166.759C567.228 165.279 566.388 164.014 565.268 162.964V162.829H566.693C567.743 163.799 568.548 165.034 569.108 166.534C569.678 168.024 569.963 169.629 569.963 171.349C569.963 173.029 569.693 174.594 569.153 176.044C568.623 177.494 567.878 178.689 566.918 179.629H565.493Z" fill="#D7C5C5"/>
<circle cx="871.5" cy="137.339" r="135.5" fill="#CEEFE6" fill-opacity="0.3" stroke="white" stroke-width="2"/>
<path d="M737 137.339C737 63.0571 797.218 2.83936 871.5 2.83936" stroke="#59E5B3" stroke-width="2"/>
<circle cx="872" cy="136.839" r="109" fill="white"/>
<circle cx="872" cy="136.839" r="88" fill="#2E1C18"/>
<g filter="url(#filter7_d_1_91)">
<circle cx="736.5" cy="139.339" r="10.5" fill="url(#paint7_linear_1_91)"/>
<circle cx="736.5" cy="139.339" r="11.5" stroke="white" stroke-width="2"/>
</g>
<path d="M853.429 99.9121H856.486C856.815 101.123 857.533 102.191 858.529 102.953C859.526 103.715 860.746 104.128 862 104.128C863.254 104.128 864.474 103.715 865.471 102.953C866.467 102.191 867.185 101.123 867.514 99.9121H890.571C890.95 99.9121 891.314 99.7616 891.582 99.4937C891.849 99.2258 892 98.8624 892 98.4835C892 98.1046 891.849 97.7413 891.582 97.4734C891.314 97.2055 890.95 97.0549 890.571 97.0549H867.514C867.185 95.8444 866.467 94.7758 865.471 94.0139C864.474 93.252 863.254 92.8392 862 92.8392C860.746 92.8392 859.526 93.252 858.529 94.0139C857.533 94.7758 856.815 95.8444 856.486 97.0549H853.429C853.05 97.0549 852.686 97.2055 852.418 97.4734C852.151 97.7413 852 98.1046 852 98.4835C852 98.8624 852.151 99.2258 852.418 99.4937C852.686 99.7616 853.05 99.9121 853.429 99.9121ZM862 95.6264C862.565 95.6264 863.117 95.7939 863.587 96.1079C864.057 96.4218 864.423 96.8681 864.64 97.3901C864.856 97.9122 864.912 98.4867 864.802 99.0409C864.692 99.5951 864.42 100.104 864.02 100.504C863.621 100.903 863.112 101.176 862.557 101.286C862.003 101.396 861.429 101.339 860.907 101.123C860.385 100.907 859.938 100.541 859.624 100.071C859.31 99.601 859.143 99.0486 859.143 98.4835C859.143 97.7258 859.444 96.999 859.98 96.4632C860.516 95.9274 861.242 95.6264 862 95.6264Z" fill="url(#paint8_linear_1_91)"/>
<path d="M853.429 112.769H876.486C876.815 113.98 877.533 115.048 878.529 115.81C879.526 116.572 880.746 116.985 882 116.985C883.254 116.985 884.474 116.572 885.471 115.81C886.467 115.048 887.185 113.98 887.514 112.769H890.571C890.95 112.769 891.314 112.619 891.582 112.351C891.849 112.083 892 111.719 892 111.341C892 110.962 891.849 110.598 891.582 110.33C891.314 110.063 890.95 109.912 890.571 109.912H887.514C887.185 108.701 886.467 107.633 885.471 106.871C884.474 106.109 883.254 105.696 882 105.696C880.746 105.696 879.526 106.109 878.529 106.871C877.533 107.633 876.815 108.701 876.486 109.912H853.429C853.05 109.912 852.686 110.063 852.418 110.33C852.151 110.598 852 110.962 852 111.341C852 111.719 852.151 112.083 852.418 112.351C852.686 112.619 853.05 112.769 853.429 112.769ZM882 108.483C882.565 108.483 883.117 108.651 883.587 108.965C884.057 109.279 884.423 109.725 884.64 110.247C884.856 110.769 884.912 111.344 884.802 111.898C884.692 112.452 884.42 112.961 884.02 113.361C883.621 113.76 883.112 114.033 882.557 114.143C882.003 114.253 881.429 114.196 880.907 113.98C880.385 113.764 879.938 113.398 879.624 112.928C879.31 112.458 879.143 111.906 879.143 111.341C879.143 110.583 879.444 109.856 879.98 109.32C880.516 108.784 881.242 108.483 882 108.483Z" fill="url(#paint9_linear_1_91)"/>
<path d="M853.429 125.626H866.486C866.815 126.837 867.533 127.905 868.529 128.667C869.526 129.429 870.746 129.842 872 129.842C873.254 129.842 874.474 129.429 875.471 128.667C876.467 127.905 877.185 126.837 877.514 125.626H890.571C890.95 125.626 891.314 125.476 891.582 125.208C891.849 124.94 892 124.577 892 124.198C892 123.819 891.849 123.456 891.582 123.188C891.314 122.92 890.95 122.769 890.571 122.769H877.514C877.185 121.559 876.467 120.49 875.471 119.728C874.474 118.966 873.254 118.553 872 118.553C870.746 118.553 869.526 118.966 868.529 119.728C867.533 120.49 866.815 121.559 866.486 122.769H853.429C853.05 122.769 852.686 122.92 852.418 123.188C852.151 123.456 852 123.819 852 124.198C852 124.577 852.151 124.94 852.418 125.208C852.686 125.476 853.05 125.626 853.429 125.626ZM872 121.341C872.565 121.341 873.117 121.508 873.587 121.822C874.057 122.136 874.423 122.582 874.64 123.104C874.856 123.626 874.912 124.201 874.802 124.755C874.692 125.309 874.42 125.818 874.02 126.218C873.621 126.618 873.112 126.89 872.557 127C872.003 127.11 871.429 127.054 870.907 126.837C870.385 126.621 869.938 126.255 869.624 125.785C869.31 125.315 869.143 124.763 869.143 124.198C869.143 123.44 869.444 122.713 869.98 122.177C870.516 121.642 871.242 121.341 872 121.341Z" fill="url(#paint10_linear_1_91)"/>
<path d="M808.414 144.384V145.494H803.869V149.019H807.559V150.129H803.869V154.839H802.504V144.384H808.414ZM817.352 146.619V154.839H815.987V153.624C815.727 154.044 815.362 154.374 814.892 154.614C814.432 154.844 813.922 154.959 813.362 154.959C812.722 154.959 812.147 154.829 811.637 154.569C811.127 154.299 810.722 153.899 810.422 153.369C810.132 152.839 809.987 152.194 809.987 151.434V146.619H811.337V151.254C811.337 152.064 811.542 152.689 811.952 153.129C812.362 153.559 812.922 153.774 813.632 153.774C814.362 153.774 814.937 153.549 815.357 153.099C815.777 152.649 815.987 151.994 815.987 151.134V146.619H817.352ZM821.022 143.739V154.839H819.657V143.739H821.022ZM824.713 143.739V154.839H823.348V143.739H824.713ZM834.12 146.619L829.17 158.709H827.76L829.38 154.749L826.065 146.619H827.58L830.16 153.279L832.71 146.619H834.12ZM838.981 149.604C838.981 148.584 839.211 147.669 839.671 146.859C840.131 146.039 840.756 145.399 841.546 144.939C842.346 144.479 843.231 144.249 844.201 144.249C845.341 144.249 846.336 144.524 847.186 145.074C848.036 145.624 848.656 146.404 849.046 147.414H847.411C847.121 146.784 846.701 146.299 846.151 145.959C845.611 145.619 844.961 145.449 844.201 145.449C843.471 145.449 842.816 145.619 842.236 145.959C841.656 146.299 841.201 146.784 840.871 147.414C840.541 148.034 840.376 148.764 840.376 149.604C840.376 150.434 840.541 151.164 840.871 151.794C841.201 152.414 841.656 152.894 842.236 153.234C842.816 153.574 843.471 153.744 844.201 153.744C844.961 153.744 845.611 153.579 846.151 153.249C846.701 152.909 847.121 152.424 847.411 151.794H849.046C848.656 152.794 848.036 153.569 847.186 154.119C846.336 154.659 845.341 154.929 844.201 154.929C843.231 154.929 842.346 154.704 841.546 154.254C840.756 153.794 840.131 153.159 839.671 152.349C839.211 151.539 838.981 150.624 838.981 149.604ZM858.368 146.619V154.839H857.003V153.624C856.743 154.044 856.378 154.374 855.908 154.614C855.448 154.844 854.938 154.959 854.378 154.959C853.738 154.959 853.163 154.829 852.653 154.569C852.143 154.299 851.738 153.899 851.438 153.369C851.148 152.839 851.003 152.194 851.003 151.434V146.619H852.353V151.254C852.353 152.064 852.558 152.689 852.968 153.129C853.378 153.559 853.938 153.774 854.648 153.774C855.378 153.774 855.953 153.549 856.373 153.099C856.793 152.649 857.003 151.994 857.003 151.134V146.619H858.368ZM863.583 154.974C862.953 154.974 862.388 154.869 861.888 154.659C861.388 154.439 860.993 154.139 860.703 153.759C860.413 153.369 860.253 152.924 860.223 152.424H861.633C861.673 152.834 861.863 153.169 862.203 153.429C862.553 153.689 863.008 153.819 863.568 153.819C864.088 153.819 864.498 153.704 864.798 153.474C865.098 153.244 865.248 152.954 865.248 152.604C865.248 152.244 865.088 151.979 864.768 151.809C864.448 151.629 863.953 151.454 863.283 151.284C862.673 151.124 862.173 150.964 861.783 150.804C861.403 150.634 861.073 150.389 860.793 150.069C860.523 149.739 860.388 149.309 860.388 148.779C860.388 148.359 860.513 147.974 860.763 147.624C861.013 147.274 861.368 146.999 861.828 146.799C862.288 146.589 862.813 146.484 863.403 146.484C864.313 146.484 865.048 146.714 865.608 147.174C866.168 147.634 866.468 148.264 866.508 149.064H865.143C865.113 148.634 864.938 148.289 864.618 148.029C864.308 147.769 863.888 147.639 863.358 147.639C862.868 147.639 862.478 147.744 862.188 147.954C861.898 148.164 861.753 148.439 861.753 148.779C861.753 149.049 861.838 149.274 862.008 149.454C862.188 149.624 862.408 149.764 862.668 149.874C862.938 149.974 863.308 150.089 863.778 150.219C864.368 150.379 864.848 150.539 865.218 150.699C865.588 150.849 865.903 151.079 866.163 151.389C866.433 151.699 866.573 152.104 866.583 152.604C866.583 153.054 866.458 153.459 866.208 153.819C865.958 154.179 865.603 154.464 865.143 154.674C864.693 154.874 864.173 154.974 863.583 154.974ZM870.174 147.744V152.589C870.174 152.989 870.259 153.274 870.429 153.444C870.599 153.604 870.894 153.684 871.314 153.684H872.319V154.839H871.089C870.329 154.839 869.759 154.664 869.379 154.314C868.999 153.964 868.809 153.389 868.809 152.589V147.744H867.744V146.619H868.809V144.549H870.174V146.619H872.319V147.744H870.174ZM877.558 154.974C876.788 154.974 876.088 154.799 875.458 154.449C874.838 154.099 874.348 153.604 873.988 152.964C873.638 152.314 873.463 151.564 873.463 150.714C873.463 149.874 873.643 149.134 874.003 148.494C874.373 147.844 874.873 147.349 875.503 147.009C876.133 146.659 876.838 146.484 877.618 146.484C878.398 146.484 879.103 146.659 879.733 147.009C880.363 147.349 880.858 147.839 881.218 148.479C881.588 149.119 881.773 149.864 881.773 150.714C881.773 151.564 881.583 152.314 881.203 152.964C880.833 153.604 880.328 154.099 879.688 154.449C879.048 154.799 878.338 154.974 877.558 154.974ZM877.558 153.774C878.048 153.774 878.508 153.659 878.938 153.429C879.368 153.199 879.713 152.854 879.973 152.394C880.243 151.934 880.378 151.374 880.378 150.714C880.378 150.054 880.248 149.494 879.988 149.034C879.728 148.574 879.388 148.234 878.968 148.014C878.548 147.784 878.093 147.669 877.603 147.669C877.103 147.669 876.643 147.784 876.223 148.014C875.813 148.234 875.483 148.574 875.233 149.034C874.983 149.494 874.858 150.054 874.858 150.714C874.858 151.384 874.978 151.949 875.218 152.409C875.468 152.869 875.798 153.214 876.208 153.444C876.618 153.664 877.068 153.774 877.558 153.774ZM893.453 146.469C894.093 146.469 894.663 146.604 895.163 146.874C895.663 147.134 896.058 147.529 896.348 148.059C896.638 148.589 896.783 149.234 896.783 149.994V154.839H895.433V150.189C895.433 149.369 895.228 148.744 894.818 148.314C894.418 147.874 893.873 147.654 893.183 147.654C892.473 147.654 891.908 147.884 891.488 148.344C891.068 148.794 890.858 149.449 890.858 150.309V154.839H889.508V150.189C889.508 149.369 889.303 148.744 888.893 148.314C888.493 147.874 887.948 147.654 887.258 147.654C886.548 147.654 885.983 147.884 885.563 148.344C885.143 148.794 884.933 149.449 884.933 150.309V154.839H883.568V146.619H884.933V147.804C885.203 147.374 885.563 147.044 886.013 146.814C886.473 146.584 886.978 146.469 887.528 146.469C888.218 146.469 888.828 146.624 889.358 146.934C889.888 147.244 890.283 147.699 890.543 148.299C890.773 147.719 891.153 147.269 891.683 146.949C892.213 146.629 892.803 146.469 893.453 146.469ZM899.727 145.284C899.467 145.284 899.247 145.194 899.067 145.014C898.887 144.834 898.797 144.614 898.797 144.354C898.797 144.094 898.887 143.874 899.067 143.694C899.247 143.514 899.467 143.424 899.727 143.424C899.977 143.424 900.187 143.514 900.357 143.694C900.537 143.874 900.627 144.094 900.627 144.354C900.627 144.614 900.537 144.834 900.357 145.014C900.187 145.194 899.977 145.284 899.727 145.284ZM900.387 146.619V154.839H899.022V146.619H900.387ZM903.734 153.714H907.769V154.839H902.174V153.714L906.164 147.729H902.204V146.619H907.739V147.729L903.734 153.714ZM909.03 150.699C909.03 149.859 909.2 149.124 909.54 148.494C909.88 147.854 910.345 147.359 910.935 147.009C911.535 146.659 912.2 146.484 912.93 146.484C913.65 146.484 914.275 146.639 914.805 146.949C915.335 147.259 915.73 147.649 915.99 148.119V146.619H917.37V154.839H915.99V153.309C915.72 153.789 915.315 154.189 914.775 154.509C914.245 154.819 913.625 154.974 912.915 154.974C912.185 154.974 911.525 154.794 910.935 154.434C910.345 154.074 909.88 153.569 909.54 152.919C909.2 152.269 909.03 151.529 909.03 150.699ZM915.99 150.714C915.99 150.094 915.865 149.554 915.615 149.094C915.365 148.634 915.025 148.284 914.595 148.044C914.175 147.794 913.71 147.669 913.2 147.669C912.69 147.669 912.225 147.789 911.805 148.029C911.385 148.269 911.05 148.619 910.8 149.079C910.55 149.539 910.425 150.079 910.425 150.699C910.425 151.329 910.55 151.879 910.8 152.349C911.05 152.809 911.385 153.164 911.805 153.414C912.225 153.654 912.69 153.774 913.2 153.774C913.71 153.774 914.175 153.654 914.595 153.414C915.025 153.164 915.365 152.809 915.615 152.349C915.865 151.879 915.99 151.334 915.99 150.714ZM921.041 148.149C921.321 147.659 921.731 147.259 922.271 146.949C922.811 146.639 923.426 146.484 924.116 146.484C924.856 146.484 925.521 146.659 926.111 147.009C926.701 147.359 927.166 147.854 927.506 148.494C927.846 149.124 928.016 149.859 928.016 150.699C928.016 151.529 927.846 152.269 927.506 152.919C927.166 153.569 926.696 154.074 926.096 154.434C925.506 154.794 924.846 154.974 924.116 154.974C923.406 154.974 922.781 154.819 922.241 154.509C921.711 154.199 921.311 153.804 921.041 153.324V154.839H919.676V143.739H921.041V148.149ZM926.621 150.699C926.621 150.079 926.496 149.539 926.246 149.079C925.996 148.619 925.656 148.269 925.226 148.029C924.806 147.789 924.341 147.669 923.831 147.669C923.331 147.669 922.866 147.794 922.436 148.044C922.016 148.284 921.676 148.639 921.416 149.109C921.166 149.569 921.041 150.104 921.041 150.714C921.041 151.334 921.166 151.879 921.416 152.349C921.676 152.809 922.016 153.164 922.436 153.414C922.866 153.654 923.331 153.774 923.831 153.774C924.341 153.774 924.806 153.654 925.226 153.414C925.656 153.164 925.996 152.809 926.246 152.349C926.496 151.879 926.621 151.329 926.621 150.699ZM931.178 143.739V154.839H929.813V143.739H931.178ZM941.005 150.414C941.005 150.674 940.99 150.949 940.96 151.239H934.39C934.44 152.049 934.715 152.684 935.215 153.144C935.725 153.594 936.34 153.819 937.06 153.819C937.65 153.819 938.14 153.684 938.53 153.414C938.93 153.134 939.21 152.764 939.37 152.304H940.84C940.62 153.094 940.18 153.739 939.52 154.239C938.86 154.729 938.04 154.974 937.06 154.974C936.28 154.974 935.58 154.799 934.96 154.449C934.35 154.099 933.87 153.604 933.52 152.964C933.17 152.314 932.995 151.564 932.995 150.714C932.995 149.864 933.165 149.119 933.505 148.479C933.845 147.839 934.32 147.349 934.93 147.009C935.55 146.659 936.26 146.484 937.06 146.484C937.84 146.484 938.53 146.654 939.13 146.994C939.73 147.334 940.19 147.804 940.51 148.404C940.84 148.994 941.005 149.664 941.005 150.414ZM939.595 150.129C939.595 149.609 939.48 149.164 939.25 148.794C939.02 148.414 938.705 148.129 938.305 147.939C937.915 147.739 937.48 147.639 937 147.639C936.31 147.639 935.72 147.859 935.23 148.299C934.75 148.739 934.475 149.349 934.405 150.129H939.595ZM823.065 172.604C823.065 171.584 823.295 170.669 823.755 169.859C824.215 169.039 824.84 168.399 825.63 167.939C826.43 167.479 827.315 167.249 828.285 167.249C829.425 167.249 830.42 167.524 831.27 168.074C832.12 168.624 832.74 169.404 833.13 170.414H831.495C831.205 169.784 830.785 169.299 830.235 168.959C829.695 168.619 829.045 168.449 828.285 168.449C827.555 168.449 826.9 168.619 826.32 168.959C825.74 169.299 825.285 169.784 824.955 170.414C824.625 171.034 824.46 171.764 824.46 172.604C824.46 173.434 824.625 174.164 824.955 174.794C825.285 175.414 825.74 175.894 826.32 176.234C826.9 176.574 827.555 176.744 828.285 176.744C829.045 176.744 829.695 176.579 830.235 176.249C830.785 175.909 831.205 175.424 831.495 174.794H833.13C832.74 175.794 832.12 176.569 831.27 177.119C830.42 177.659 829.425 177.929 828.285 177.929C827.315 177.929 826.43 177.704 825.63 177.254C824.84 176.794 824.215 176.159 823.755 175.349C823.295 174.539 823.065 173.624 823.065 172.604ZM838.747 177.974C837.977 177.974 837.277 177.799 836.647 177.449C836.027 177.099 835.537 176.604 835.177 175.964C834.827 175.314 834.652 174.564 834.652 173.714C834.652 172.874 834.832 172.134 835.192 171.494C835.562 170.844 836.062 170.349 836.692 170.009C837.322 169.659 838.027 169.484 838.807 169.484C839.587 169.484 840.292 169.659 840.922 170.009C841.552 170.349 842.047 170.839 842.407 171.479C842.777 172.119 842.962 172.864 842.962 173.714C842.962 174.564 842.772 175.314 842.392 175.964C842.022 176.604 841.517 177.099 840.877 177.449C840.237 177.799 839.527 177.974 838.747 177.974ZM838.747 176.774C839.237 176.774 839.697 176.659 840.127 176.429C840.557 176.199 840.902 175.854 841.162 175.394C841.432 174.934 841.567 174.374 841.567 173.714C841.567 173.054 841.437 172.494 841.177 172.034C840.917 171.574 840.577 171.234 840.157 171.014C839.737 170.784 839.282 170.669 838.792 170.669C838.292 170.669 837.832 170.784 837.412 171.014C837.002 171.234 836.672 171.574 836.422 172.034C836.172 172.494 836.047 173.054 836.047 173.714C836.047 174.384 836.167 174.949 836.407 175.409C836.657 175.869 836.987 176.214 837.397 176.444C837.807 176.664 838.257 176.774 838.747 176.774ZM854.642 169.469C855.282 169.469 855.852 169.604 856.352 169.874C856.852 170.134 857.247 170.529 857.537 171.059C857.827 171.589 857.972 172.234 857.972 172.994V177.839H856.622V173.189C856.622 172.369 856.417 171.744 856.007 171.314C855.607 170.874 855.062 170.654 854.372 170.654C853.662 170.654 853.097 170.884 852.677 171.344C852.257 171.794 852.047 172.449 852.047 173.309V177.839H850.697V173.189C850.697 172.369 850.492 171.744 850.082 171.314C849.682 170.874 849.137 170.654 848.447 170.654C847.737 170.654 847.172 170.884 846.752 171.344C846.332 171.794 846.122 172.449 846.122 173.309V177.839H844.757V169.619H846.122V170.804C846.392 170.374 846.752 170.044 847.202 169.814C847.662 169.584 848.167 169.469 848.717 169.469C849.407 169.469 850.017 169.624 850.547 169.934C851.077 170.244 851.472 170.699 851.732 171.299C851.962 170.719 852.342 170.269 852.872 169.949C853.402 169.629 853.992 169.469 854.642 169.469ZM861.576 171.134C861.846 170.664 862.246 170.274 862.776 169.964C863.316 169.644 863.941 169.484 864.651 169.484C865.381 169.484 866.041 169.659 866.631 170.009C867.231 170.359 867.701 170.854 868.041 171.494C868.381 172.124 868.551 172.859 868.551 173.699C868.551 174.529 868.381 175.269 868.041 175.919C867.701 176.569 867.231 177.074 866.631 177.434C866.041 177.794 865.381 177.974 864.651 177.974C863.951 177.974 863.331 177.819 862.791 177.509C862.261 177.189 861.856 176.794 861.576 176.324V181.739H860.211V169.619H861.576V171.134ZM867.156 173.699C867.156 173.079 867.031 172.539 866.781 172.079C866.531 171.619 866.191 171.269 865.761 171.029C865.341 170.789 864.876 170.669 864.366 170.669C863.866 170.669 863.401 170.794 862.971 171.044C862.551 171.284 862.211 171.639 861.951 172.109C861.701 172.569 861.576 173.104 861.576 173.714C861.576 174.334 861.701 174.879 861.951 175.349C862.211 175.809 862.551 176.164 862.971 176.414C863.401 176.654 863.866 176.774 864.366 176.774C864.876 176.774 865.341 176.654 865.761 176.414C866.191 176.164 866.531 175.809 866.781 175.349C867.031 174.879 867.156 174.329 867.156 173.699ZM873.933 177.974C873.163 177.974 872.463 177.799 871.833 177.449C871.213 177.099 870.723 176.604 870.363 175.964C870.013 175.314 869.838 174.564 869.838 173.714C869.838 172.874 870.018 172.134 870.378 171.494C870.748 170.844 871.248 170.349 871.878 170.009C872.508 169.659 873.213 169.484 873.993 169.484C874.773 169.484 875.478 169.659 876.108 170.009C876.738 170.349 877.233 170.839 877.593 171.479C877.963 172.119 878.148 172.864 878.148 173.714C878.148 174.564 877.958 175.314 877.578 175.964C877.208 176.604 876.703 177.099 876.063 177.449C875.423 177.799 874.713 177.974 873.933 177.974ZM873.933 176.774C874.423 176.774 874.883 176.659 875.313 176.429C875.743 176.199 876.088 175.854 876.348 175.394C876.618 174.934 876.753 174.374 876.753 173.714C876.753 173.054 876.623 172.494 876.363 172.034C876.103 171.574 875.763 171.234 875.343 171.014C874.923 170.784 874.468 170.669 873.978 170.669C873.478 170.669 873.018 170.784 872.598 171.014C872.188 171.234 871.858 171.574 871.608 172.034C871.358 172.494 871.233 173.054 871.233 173.714C871.233 174.384 871.353 174.949 871.593 175.409C871.843 175.869 872.173 176.214 872.583 176.444C872.993 176.664 873.443 176.774 873.933 176.774ZM883.948 169.469C884.948 169.469 885.758 169.774 886.378 170.384C886.998 170.984 887.308 171.854 887.308 172.994V177.839H885.958V173.189C885.958 172.369 885.753 171.744 885.343 171.314C884.933 170.874 884.373 170.654 883.663 170.654C882.943 170.654 882.368 170.879 881.938 171.329C881.518 171.779 881.308 172.434 881.308 173.294V177.839H879.943V169.619H881.308V170.789C881.578 170.369 881.943 170.044 882.403 169.814C882.873 169.584 883.388 169.469 883.948 169.469ZM897.037 173.414C897.037 173.674 897.022 173.949 896.992 174.239H890.422C890.472 175.049 890.747 175.684 891.247 176.144C891.757 176.594 892.372 176.819 893.092 176.819C893.682 176.819 894.172 176.684 894.562 176.414C894.962 176.134 895.242 175.764 895.402 175.304H896.872C896.652 176.094 896.212 176.739 895.552 177.239C894.892 177.729 894.072 177.974 893.092 177.974C892.312 177.974 891.612 177.799 890.992 177.449C890.382 177.099 889.902 176.604 889.552 175.964C889.202 175.314 889.027 174.564 889.027 173.714C889.027 172.864 889.197 172.119 889.537 171.479C889.877 170.839 890.352 170.349 890.962 170.009C891.582 169.659 892.292 169.484 893.092 169.484C893.872 169.484 894.562 169.654 895.162 169.994C895.762 170.334 896.222 170.804 896.542 171.404C896.872 171.994 897.037 172.664 897.037 173.414ZM895.627 173.129C895.627 172.609 895.512 172.164 895.282 171.794C895.052 171.414 894.737 171.129 894.337 170.939C893.947 170.739 893.512 170.639 893.032 170.639C892.342 170.639 891.752 170.859 891.262 171.299C890.782 171.739 890.507 172.349 890.437 173.129H895.627ZM902.844 169.469C903.844 169.469 904.654 169.774 905.274 170.384C905.894 170.984 906.204 171.854 906.204 172.994V177.839H904.854V173.189C904.854 172.369 904.649 171.744 904.239 171.314C903.829 170.874 903.269 170.654 902.559 170.654C901.839 170.654 901.264 170.879 900.834 171.329C900.414 171.779 900.204 172.434 900.204 173.294V177.839H898.839V169.619H900.204V170.789C900.474 170.369 900.839 170.044 901.299 169.814C901.769 169.584 902.284 169.469 902.844 169.469ZM910.099 170.744V175.589C910.099 175.989 910.184 176.274 910.354 176.444C910.524 176.604 910.819 176.684 911.239 176.684H912.244V177.839H911.014C910.254 177.839 909.684 177.664 909.304 177.314C908.924 176.964 908.734 176.389 908.734 175.589V170.744H907.669V169.619H908.734V167.549H910.099V169.619H912.244V170.744H910.099ZM916.808 177.974C916.178 177.974 915.613 177.869 915.113 177.659C914.613 177.439 914.218 177.139 913.928 176.759C913.638 176.369 913.478 175.924 913.448 175.424H914.858C914.898 175.834 915.088 176.169 915.428 176.429C915.778 176.689 916.233 176.819 916.793 176.819C917.313 176.819 917.723 176.704 918.023 176.474C918.323 176.244 918.473 175.954 918.473 175.604C918.473 175.244 918.313 174.979 917.993 174.809C917.673 174.629 917.178 174.454 916.508 174.284C915.898 174.124 915.398 173.964 915.008 173.804C914.628 173.634 914.298 173.389 914.018 173.069C913.748 172.739 913.613 172.309 913.613 171.779C913.613 171.359 913.738 170.974 913.988 170.624C914.238 170.274 914.593 169.999 915.053 169.799C915.513 169.589 916.038 169.484 916.628 169.484C917.538 169.484 918.273 169.714 918.833 170.174C919.393 170.634 919.693 171.264 919.733 172.064H918.368C918.338 171.634 918.163 171.289 917.843 171.029C917.533 170.769 917.113 170.639 916.583 170.639C916.093 170.639 915.703 170.744 915.413 170.954C915.123 171.164 914.978 171.439 914.978 171.779C914.978 172.049 915.063 172.274 915.233 172.454C915.413 172.624 915.633 172.764 915.893 172.874C916.163 172.974 916.533 173.089 917.003 173.219C917.593 173.379 918.073 173.539 918.443 173.699C918.813 173.849 919.128 174.079 919.388 174.389C919.658 174.699 919.798 175.104 919.808 175.604C919.808 176.054 919.683 176.459 919.433 176.819C919.183 177.179 918.828 177.464 918.368 177.674C917.918 177.874 917.398 177.974 916.808 177.974Z" fill="#D7C5C5"/>
<defs>
<filter id="filter0_d_1_91" x="0" y="124.839" width="41" height="41" filterUnits="userSpaceOnUse" color-interpolation-filters="sRGB">
<feFlood flood-opacity="0" result="BackgroundImageFix"/>
<feColorMatrix in="SourceAlpha" type="matrix" values="0 0 0 0 0 0 0 0 0 0 0 0 0 0 0 0 0 0 127 0" result="hardAlpha"/>
<feOffset dy="6"/>
<feGaussianBlur stdDeviation="4"/>
<feComposite in2="hardAlpha" operator="out"/>
<feColorMatrix type="matrix" values="0 0 0 0 0 0 0 0 0 0 0 0 0 0 0 0 0 0 0.07 0"/>
<feBlend mode="normal" in2="BackgroundImageFix" result="effect1_dropShadow_1_91"/>
<feBlend mode="normal" in="SourceGraphic" in2="effect1_dropShadow_1_91" result="shape"/>
</filter>
<filter id="filter1_d_1_91" x="135.5" y="89.8394" width="39.9662" height="56" filterUnits="userSpaceOnUse" color-interpolation-filters="sRGB">
<feFlood flood-opacity="0" result="BackgroundImageFix"/>
<feColorMatrix in="SourceAlpha" type="matrix" values="0 0 0 0 0 0 0 0 0 0 0 0 0 0 0 0 0 0 127 0" result="hardAlpha"/>
<feOffset dy="6"/>
<feGaussianBlur stdDeviation="4"/>
<feComposite in2="hardAlpha" operator="out"/>
<feColorMatrix type="matrix" values="0 0 0 0 0 0 0 0 0 0 0 0 0 0 0 0 0 0 0.07 0"/>
<feBlend mode="normal" in2="BackgroundImageFix" result="effect1_dropShadow_1_91"/>
<feBlend mode="normal" in="SourceGraphic" in2="effect1_dropShadow_1_91" result="shape"/>
</filter>
<filter id="filter2_d_1_91" x="142.131" y="124.777" width="26.7042" height="17.4973" filterUnits="userSpaceOnUse" color-interpolation-filters="sRGB">
<feFlood flood-opacity="0" result="BackgroundImageFix"/>
<feColorMatrix in="SourceAlpha" type="matrix" values="0 0 0 0 0 0 0 0 0 0 0 0 0 0 0 0 0 0 127 0" result="hardAlpha"/>
<feOffset dy="6"/>
<feGaussianBlur stdDeviation="4"/>
<feComposite in2="hardAlpha" operator="out"/>
<feColorMatrix type="matrix" values="0 0 0 0 0 0 0 0 0 0 0 0 0 0 0 0 0 0 0.07 0"/>
<feBlend mode="normal" in2="BackgroundImageFix" result="effect1_dropShadow_1_91"/>
<feBlend mode="normal" in="SourceGraphic" in2="effect1_dropShadow_1_91" result="shape"/>
</filter>
<filter id="filter3_d_1_91" x="358" y="124.839" width="41" height="41" filterUnits="userSpaceOnUse" color-interpolation-filters="sRGB">
<feFlood flood-opacity="0" result="BackgroundImageFix"/>
<feColorMatrix in="SourceAlpha" type="matrix" values="0 0 0 0 0 0 0 0 0 0 0 0 0 0 0 0 0 0 127 0" result="hardAlpha"/>
<feOffset dy="6"/>
<feGaussianBlur stdDeviation="4"/>
<feComposite in2="hardAlpha" operator="out"/>
<feColorMatrix type="matrix" values="0 0 0 0 0 0 0 0 0 0 0 0 0 0 0 0 0 0 0.07 0"/>
<feBlend mode="normal" in2="BackgroundImageFix" result="effect1_dropShadow_1_91"/>
<feBlend mode="normal" in="SourceGraphic" in2="effect1_dropShadow_1_91" result="shape"/>
</filter>
<filter id="filter4_d_1_91" x="510.609" y="104.377" width="30.6086" height="30.6086" filterUnits="userSpaceOnUse" color-interpolation-filters="sRGB">
<feFlood flood-opacity="0" result="BackgroundImageFix"/>
<feColorMatrix in="SourceAlpha" type="matrix" values="0 0 0 0 0 0 0 0 0 0 0 0 0 0 0 0 0 0 127 0" result="hardAlpha"/>
<feOffset dy="6"/>
<feGaussianBlur stdDeviation="4"/>
<feComposite in2="hardAlpha" operator="out"/>
<feColorMatrix type="matrix" values="0 0 0 0 0 0 0 0 0 0 0 0 0 0 0 0 0 0 0.07 0"/>
<feBlend mode="normal" in2="BackgroundImageFix" result="effect1_dropShadow_1_91"/>
<feBlend mode="normal" in="SourceGraphic" in2="effect1_dropShadow_1_91" result="shape"/>
</filter>
<filter id="filter5_d_1_91" x="485.5" y="121.724" width="58" height="18.7391" filterUnits="userSpaceOnUse" color-interpolation-filters="sRGB">
<feFlood flood-opacity="0" result="BackgroundImageFix"/>
<feColorMatrix in="SourceAlpha" type="matrix" values="0 0 0 0 0 0 0 0 0 0 0 0 0 0 0 0 0 0 127 0" result="hardAlpha"/>
<feOffset dy="6"/>
<feGaussianBlur stdDeviation="4"/>
<feComposite in2="hardAlpha" operator="out"/>
<feColorMatrix type="matrix" values="0 0 0 0 0 0 0 0 0 0 0 0 0 0 0 0 0 0 0.07 0"/>
<feBlend mode="normal" in2="BackgroundImageFix" result="effect1_dropShadow_1_91"/>
<feBlend mode="normal" in="SourceGraphic" in2="effect1_dropShadow_1_91" result="shape"/>
</filter>
<filter id="filter6_d_1_91" x="488.059" y="93.0891" width="38.2758" height="41.3137" filterUnits="userSpaceOnUse" color-interpolation-filters="sRGB">
<feFlood flood-opacity="0" result="BackgroundImageFix"/>
<feColorMatrix in="SourceAlpha" type="matrix" values="0 0 0 0 0 0 0 0 0 0 0 0 0 0 0 0 0 0 127 0" result="hardAlpha"/>
<feOffset dy="6"/>
<feGaussianBlur stdDeviation="4"/>
<feComposite in2="hardAlpha" operator="out"/>
<feColorMatrix type="matrix" values="0 0 0 0 0 0 0 0 0 0 0 0 0 0 0 0 0 0 0.07 0"/>
<feBlend mode="normal" in2="BackgroundImageFix" result="effect1_dropShadow_1_91"/>
<feBlend mode="normal" in="SourceGraphic" in2="effect1_dropShadow_1_91" result="shape"/>
</filter>
<filter id="filter7_d_1_91" x="716" y="124.839" width="41" height="41" filterUnits="userSpaceOnUse" color-interpolation-filters="sRGB">
<feFlood flood-opacity="0" result="BackgroundImageFix"/>
<feColorMatrix in="SourceAlpha" type="matrix" values="0 0 0 0 0 0 0 0 0 0 0 0 0 0 0 0 0 0 127 0" result="hardAlpha"/>
<feOffset dy="6"/>
<feGaussianBlur stdDeviation="4"/>
<feComposite in2="hardAlpha" operator="out"/>
<feColorMatrix type="matrix" values="0 0 0 0 0 0 0 0 0 0 0 0 0 0 0 0 0 0 0.07 0"/>
<feBlend mode="normal" in2="BackgroundImageFix" result="effect1_dropShadow_1_91"/>
<feBlend mode="normal" in="SourceGraphic" in2="effect1_dropShadow_1_91" result="shape"/>
</filter>
<linearGradient id="paint0_linear_1_91" x1="10.8842" y1="139.141" x2="29.83" y2="139.273" gradientUnits="userSpaceOnUse">
<stop stop-color="#1881BC"/>
<stop offset="1" stop-color="#59E5B3"/>
</linearGradient>
<linearGradient id="paint1_linear_1_91" x1="144.509" y1="111.462" x2="166.132" y2="111.552" gradientUnits="userSpaceOnUse">
<stop stop-color="#1881BC"/>
<stop offset="1" stop-color="#59E5B3"/>
</linearGradient>
<linearGradient id="paint2_linear_1_91" x1="150.582" y1="127.512" x2="160.216" y2="127.989" gradientUnits="userSpaceOnUse">
<stop stop-color="#1881BC"/>
<stop offset="1" stop-color="#59E5B3"/>
</linearGradient>
<linearGradient id="paint3_linear_1_91" x1="368.884" y1="139.141" x2="387.83" y2="139.273" gradientUnits="userSpaceOnUse">
<stop stop-color="#1881BC"/>
<stop offset="1" stop-color="#59E5B3"/>
</linearGradient>
<linearGradient id="paint4_linear_1_91" x1="519.224" y1="113.543" x2="532.404" y2="113.635" gradientUnits="userSpaceOnUse">
<stop stop-color="#1881BC"/>
<stop offset="1" stop-color="#59E5B3"/>
</linearGradient>
<linearGradient id="paint5_linear_1_91" x1="495.268" y1="125.068" x2="532.738" y2="129.051" gradientUnits="userSpaceOnUse">
<stop stop-color="#1881BC"/>
<stop offset="1" stop-color="#59E5B3"/>
</linearGradient>
<linearGradient id="paint6_linear_1_91" x1="496.997" y1="107.507" x2="517.094" y2="107.63" gradientUnits="userSpaceOnUse">
<stop stop-color="#1881BC"/>
<stop offset="1" stop-color="#59E5B3"/>
</linearGradient>
<linearGradient id="paint7_linear_1_91" x1="726.884" y1="139.141" x2="745.83" y2="139.273" gradientUnits="userSpaceOnUse">
<stop stop-color="#1881BC"/>
<stop offset="1" stop-color="#59E5B3"/>
</linearGradient>
<linearGradient id="paint8_linear_1_91" x1="853.684" y1="98.377" x2="889.751" y2="99.263" gradientUnits="userSpaceOnUse">
<stop stop-color="#1881BC"/>
<stop offset="1" stop-color="#59E5B3"/>
</linearGradient>
<linearGradient id="paint9_linear_1_91" x1="853.684" y1="111.234" x2="889.751" y2="112.12" gradientUnits="userSpaceOnUse">
<stop stop-color="#1881BC"/>
<stop offset="1" stop-color="#59E5B3"/>
</linearGradient>
<linearGradient id="paint10_linear_1_91" x1="853.684" y1="124.091" x2="889.751" y2="124.977" gradientUnits="userSpaceOnUse">
<stop stop-color="#1881BC"/>
<stop offset="1" stop-color="#59E5B3"/>
</linearGradient>
<clipPath id="clip0_1_91">
<rect width="42" height="42" fill="white" transform="translate(134.5 90.8394)"/>
</clipPath>
<clipPath id="clip1_1_91">
<rect width="42" height="42" fill="white" transform="translate(493.5 89.8394)"/>
</clipPath>
</defs>
</svg>
