<svg width="1008" height="274" viewBox="0 0 1008 274" fill="none" xmlns="http://www.w3.org/2000/svg">
<circle cx="155.5" cy="137.339" r="135.5" fill="#CEEFE6" fill-opacity="0.3" stroke="white" stroke-width="2"/>
<path d="M21 137.339C21 63.0571 81.2177 2.83936 155.5 2.83936" stroke="#59E5B3" stroke-width="2"/>
<circle cx="156" cy="136.839" r="109" fill="white"/>
<circle cx="156" cy="136.839" r="88" fill="#2E1C18"/>
<g filter="url(#filter0_d_1_136)">
<circle cx="20.5" cy="139.339" r="10.5" fill="url(#paint0_linear_1_136)"/>
<circle cx="20.5" cy="139.339" r="11.5" stroke="white" stroke-width="2"/>
</g>
<g clip-path="url(#clip0_1_136)">
<g filter="url(#filter1_d_1_136)">
<path d="M176 111.838C176 110.887 175.496 110.021 174.649 109.518L172.422 108.208C173.28 107.699 174.044 107.244 174.651 106.883C175.496 106.379 176 105.512 176 104.565C176 103.618 175.496 102.751 174.651 102.246C171.867 100.59 162.426 94.9801 157.772 92.3122C156.694 91.6934 155.384 91.6686 154.219 92.3176C154.219 92.3176 141.563 99.7515 137.351 102.245C136.504 102.748 136 103.614 136 104.565C136 105.512 136.504 106.379 137.349 106.884C137.956 107.245 138.72 107.699 139.578 108.208L137.351 109.518C136.504 110.021 136 110.887 136 111.838C136 112.786 136.504 113.652 137.349 114.157C137.956 114.518 138.72 114.972 139.578 115.482L137.351 116.792C136.504 117.294 136 118.161 136 119.111C136 120.059 136.504 120.925 137.349 121.431C140.952 123.573 149.807 128.83 154.228 131.364C154.77 131.675 155.384 131.839 156 131.839C156.616 131.839 157.231 131.675 157.774 131.364C162.193 128.83 171.048 123.573 174.651 121.43C175.496 120.925 176 120.059 176 119.111C176 118.161 175.496 117.294 174.649 116.792L172.422 115.481C173.28 114.972 174.044 114.517 174.651 114.156C175.496 113.652 176 112.786 176 111.838ZM138.28 105.324C138.141 105.241 137.818 105.001 137.818 104.567C137.818 104.131 138.14 103.893 138.278 103.811C142.484 101.32 155.123 93.8973 155.121 93.8981C155.7 93.5723 156.332 93.5847 156.868 93.8919C161.51 96.5526 170.941 102.156 173.72 103.809C173.859 103.893 174.182 104.133 174.182 104.567C174.182 105.001 173.859 105.24 173.72 105.323C170.123 107.463 161.279 112.714 156.87 115.241C156.323 115.553 155.675 115.552 155.132 115.241C150.721 112.714 141.877 107.463 138.28 105.324ZM173.722 118.357C173.861 118.438 174.182 118.676 174.182 119.112C174.182 119.546 173.859 119.786 173.72 119.869C170.123 122.008 161.279 127.259 156.87 129.786C156.323 130.099 155.675 130.098 155.132 129.787C150.721 127.259 141.877 122.008 138.28 119.869C138.141 119.786 137.818 119.546 137.818 119.112C137.818 118.676 138.14 118.438 138.278 118.357L141.363 116.541C145.533 119.013 151.034 122.261 154.228 124.092C154.77 124.402 155.384 124.567 156 124.567C156.616 124.567 157.231 124.402 157.774 124.091C160.967 122.26 166.467 119.013 170.637 116.541L173.722 118.357ZM173.72 112.596C170.123 114.735 161.279 119.987 156.87 122.513C156.323 122.826 155.675 122.825 155.132 122.514C150.721 119.987 141.877 114.735 138.28 112.597C138.141 112.513 137.818 112.273 137.818 111.839C137.818 111.403 138.14 111.166 138.278 111.084L141.363 109.268C145.533 111.74 151.034 114.988 154.228 116.819C154.77 117.13 155.384 117.294 156 117.294C156.616 117.294 157.231 117.13 157.774 116.818C160.967 114.988 166.467 111.74 170.637 109.268L173.722 111.084C173.861 111.166 174.182 111.403 174.182 111.839C174.182 112.273 173.859 112.513 173.72 112.596Z" fill="url(#paint1_linear_1_136)"/>
</g>
</g>
<path d="M88.8413 154.944C87.8713 154.944 86.9863 154.719 86.1863 154.269C85.3863 153.809 84.7513 153.174 84.2813 152.364C83.8213 151.544 83.5913 150.624 83.5913 149.604C83.5913 148.584 83.8213 147.669 84.2813 146.859C84.7513 146.039 85.3863 145.404 86.1863 144.954C86.9863 144.494 87.8713 144.264 88.8413 144.264C89.8213 144.264 90.7113 144.494 91.5113 144.954C92.3113 145.404 92.9413 146.034 93.4013 146.844C93.8613 147.654 94.0913 148.574 94.0913 149.604C94.0913 150.634 93.8613 151.554 93.4013 152.364C92.9413 153.174 92.3113 153.809 91.5113 154.269C90.7113 154.719 89.8213 154.944 88.8413 154.944ZM88.8413 153.759C89.5713 153.759 90.2263 153.589 90.8063 153.249C91.3963 152.909 91.8563 152.424 92.1863 151.794C92.5263 151.164 92.6963 150.434 92.6963 149.604C92.6963 148.764 92.5263 148.034 92.1863 147.414C91.8563 146.784 91.4013 146.299 90.8213 145.959C90.2413 145.619 89.5813 145.449 88.8413 145.449C88.1013 145.449 87.4413 145.619 86.8613 145.959C86.2813 146.299 85.8213 146.784 85.4813 147.414C85.1513 148.034 84.9863 148.764 84.9863 149.604C84.9863 150.434 85.1513 151.164 85.4813 151.794C85.8213 152.424 86.2813 152.909 86.8613 153.249C87.4513 153.589 88.1113 153.759 88.8413 153.759ZM97.2583 147.954C97.4983 147.484 97.8383 147.119 98.2783 146.859C98.7283 146.599 99.2733 146.469 99.9133 146.469V147.879H99.5533C98.0233 147.879 97.2583 148.709 97.2583 150.369V154.839H95.8933V146.619H97.2583V147.954ZM104.879 146.484C105.589 146.484 106.209 146.639 106.739 146.949C107.279 147.259 107.679 147.649 107.939 148.119V146.619H109.319V155.019C109.319 155.769 109.159 156.434 108.839 157.014C108.519 157.604 108.059 158.064 107.459 158.394C106.869 158.724 106.179 158.889 105.389 158.889C104.309 158.889 103.409 158.634 102.689 158.124C101.969 157.614 101.544 156.919 101.414 156.039H102.764C102.914 156.539 103.224 156.939 103.694 157.239C104.164 157.549 104.729 157.704 105.389 157.704C106.139 157.704 106.749 157.469 107.219 156.999C107.699 156.529 107.939 155.869 107.939 155.019V153.294C107.669 153.774 107.269 154.174 106.739 154.494C106.209 154.814 105.589 154.974 104.879 154.974C104.149 154.974 103.484 154.794 102.884 154.434C102.294 154.074 101.829 153.569 101.489 152.919C101.149 152.269 100.979 151.529 100.979 150.699C100.979 149.859 101.149 149.124 101.489 148.494C101.829 147.854 102.294 147.359 102.884 147.009C103.484 146.659 104.149 146.484 104.879 146.484ZM107.939 150.714C107.939 150.094 107.814 149.554 107.564 149.094C107.314 148.634 106.974 148.284 106.544 148.044C106.124 147.794 105.659 147.669 105.149 147.669C104.639 147.669 104.174 147.789 103.754 148.029C103.334 148.269 102.999 148.619 102.749 149.079C102.499 149.539 102.374 150.079 102.374 150.699C102.374 151.329 102.499 151.879 102.749 152.349C102.999 152.809 103.334 153.164 103.754 153.414C104.174 153.654 104.639 153.774 105.149 153.774C105.659 153.774 106.124 153.654 106.544 153.414C106.974 153.164 107.314 152.809 107.564 152.349C107.814 151.879 107.939 151.334 107.939 150.714ZM111.116 150.699C111.116 149.859 111.286 149.124 111.626 148.494C111.966 147.854 112.431 147.359 113.021 147.009C113.621 146.659 114.286 146.484 115.016 146.484C115.736 146.484 116.361 146.639 116.891 146.949C117.421 147.259 117.816 147.649 118.076 148.119V146.619H119.456V154.839H118.076V153.309C117.806 153.789 117.401 154.189 116.861 154.509C116.331 154.819 115.711 154.974 115.001 154.974C114.271 154.974 113.611 154.794 113.021 154.434C112.431 154.074 111.966 153.569 111.626 152.919C111.286 152.269 111.116 151.529 111.116 150.699ZM118.076 150.714C118.076 150.094 117.951 149.554 117.701 149.094C117.451 148.634 117.111 148.284 116.681 148.044C116.261 147.794 115.796 147.669 115.286 147.669C114.776 147.669 114.311 147.789 113.891 148.029C113.471 148.269 113.136 148.619 112.886 149.079C112.636 149.539 112.511 150.079 112.511 150.699C112.511 151.329 112.636 151.879 112.886 152.349C113.136 152.809 113.471 153.164 113.891 153.414C114.311 153.654 114.776 153.774 115.286 153.774C115.796 153.774 116.261 153.654 116.681 153.414C117.111 153.164 117.451 152.809 117.701 152.349C117.951 151.879 118.076 151.334 118.076 150.714ZM125.767 146.469C126.767 146.469 127.577 146.774 128.197 147.384C128.817 147.984 129.127 148.854 129.127 149.994V154.839H127.777V150.189C127.777 149.369 127.572 148.744 127.162 148.314C126.752 147.874 126.192 147.654 125.482 147.654C124.762 147.654 124.187 147.879 123.757 148.329C123.337 148.779 123.127 149.434 123.127 150.294V154.839H121.762V146.619H123.127V147.789C123.397 147.369 123.762 147.044 124.222 146.814C124.692 146.584 125.207 146.469 125.767 146.469ZM132.062 145.284C131.802 145.284 131.582 145.194 131.402 145.014C131.222 144.834 131.132 144.614 131.132 144.354C131.132 144.094 131.222 143.874 131.402 143.694C131.582 143.514 131.802 143.424 132.062 143.424C132.312 143.424 132.522 143.514 132.692 143.694C132.872 143.874 132.962 144.094 132.962 144.354C132.962 144.614 132.872 144.834 132.692 145.014C132.522 145.194 132.312 145.284 132.062 145.284ZM132.722 146.619V154.839H131.357V146.619H132.722ZM137.959 154.974C137.329 154.974 136.764 154.869 136.264 154.659C135.764 154.439 135.369 154.139 135.079 153.759C134.789 153.369 134.629 152.924 134.599 152.424H136.009C136.049 152.834 136.239 153.169 136.579 153.429C136.929 153.689 137.384 153.819 137.944 153.819C138.464 153.819 138.874 153.704 139.174 153.474C139.474 153.244 139.624 152.954 139.624 152.604C139.624 152.244 139.464 151.979 139.144 151.809C138.824 151.629 138.329 151.454 137.659 151.284C137.049 151.124 136.549 150.964 136.159 150.804C135.779 150.634 135.449 150.389 135.169 150.069C134.899 149.739 134.764 149.309 134.764 148.779C134.764 148.359 134.889 147.974 135.139 147.624C135.389 147.274 135.744 146.999 136.204 146.799C136.664 146.589 137.189 146.484 137.779 146.484C138.689 146.484 139.424 146.714 139.984 147.174C140.544 147.634 140.844 148.264 140.884 149.064H139.519C139.489 148.634 139.314 148.289 138.994 148.029C138.684 147.769 138.264 147.639 137.734 147.639C137.244 147.639 136.854 147.744 136.564 147.954C136.274 148.164 136.129 148.439 136.129 148.779C136.129 149.049 136.214 149.274 136.384 149.454C136.564 149.624 136.784 149.764 137.044 149.874C137.314 149.974 137.684 150.089 138.154 150.219C138.744 150.379 139.224 150.539 139.594 150.699C139.964 150.849 140.279 151.079 140.539 151.389C140.809 151.699 140.949 152.104 140.959 152.604C140.959 153.054 140.834 153.459 140.584 153.819C140.334 154.179 139.979 154.464 139.519 154.674C139.069 154.874 138.549 154.974 137.959 154.974ZM150.385 150.414C150.385 150.674 150.37 150.949 150.34 151.239H143.77C143.82 152.049 144.095 152.684 144.595 153.144C145.105 153.594 145.72 153.819 146.44 153.819C147.03 153.819 147.52 153.684 147.91 153.414C148.31 153.134 148.59 152.764 148.75 152.304H150.22C150 153.094 149.56 153.739 148.9 154.239C148.24 154.729 147.42 154.974 146.44 154.974C145.66 154.974 144.96 154.799 144.34 154.449C143.73 154.099 143.25 153.604 142.9 152.964C142.55 152.314 142.375 151.564 142.375 150.714C142.375 149.864 142.545 149.119 142.885 148.479C143.225 147.839 143.7 147.349 144.31 147.009C144.93 146.659 145.64 146.484 146.44 146.484C147.22 146.484 147.91 146.654 148.51 146.994C149.11 147.334 149.57 147.804 149.89 148.404C150.22 148.994 150.385 149.664 150.385 150.414ZM148.975 150.129C148.975 149.609 148.86 149.164 148.63 148.794C148.4 148.414 148.085 148.129 147.685 147.939C147.295 147.739 146.86 147.639 146.38 147.639C145.69 147.639 145.1 147.859 144.61 148.299C144.13 148.739 143.855 149.349 143.785 150.129H148.975ZM151.677 150.699C151.677 149.859 151.847 149.124 152.187 148.494C152.527 147.854 152.992 147.359 153.582 147.009C154.182 146.659 154.852 146.484 155.592 146.484C156.232 146.484 156.827 146.634 157.377 146.934C157.927 147.224 158.347 147.609 158.637 148.089V143.739H160.017V154.839H158.637V153.294C158.367 153.784 157.967 154.189 157.437 154.509C156.907 154.819 156.287 154.974 155.577 154.974C154.847 154.974 154.182 154.794 153.582 154.434C152.992 154.074 152.527 153.569 152.187 152.919C151.847 152.269 151.677 151.529 151.677 150.699ZM158.637 150.714C158.637 150.094 158.512 149.554 158.262 149.094C158.012 148.634 157.672 148.284 157.242 148.044C156.822 147.794 156.357 147.669 155.847 147.669C155.337 147.669 154.872 147.789 154.452 148.029C154.032 148.269 153.697 148.619 153.447 149.079C153.197 149.539 153.072 150.079 153.072 150.699C153.072 151.329 153.197 151.879 153.447 152.349C153.697 152.809 154.032 153.164 154.452 153.414C154.872 153.654 155.337 153.774 155.847 153.774C156.357 153.774 156.822 153.654 157.242 153.414C157.672 153.164 158.012 152.809 158.262 152.349C158.512 151.879 158.637 151.334 158.637 150.714ZM167.688 153.729H171.348V154.839H166.323V144.384H167.688V153.729ZM172.288 150.699C172.288 149.859 172.458 149.124 172.798 148.494C173.138 147.854 173.603 147.359 174.193 147.009C174.793 146.659 175.458 146.484 176.188 146.484C176.908 146.484 177.533 146.639 178.063 146.949C178.593 147.259 178.988 147.649 179.248 148.119V146.619H180.628V154.839H179.248V153.309C178.978 153.789 178.573 154.189 178.033 154.509C177.503 154.819 176.883 154.974 176.173 154.974C175.443 154.974 174.783 154.794 174.193 154.434C173.603 154.074 173.138 153.569 172.798 152.919C172.458 152.269 172.288 151.529 172.288 150.699ZM179.248 150.714C179.248 150.094 179.123 149.554 178.873 149.094C178.623 148.634 178.283 148.284 177.853 148.044C177.433 147.794 176.968 147.669 176.458 147.669C175.948 147.669 175.483 147.789 175.063 148.029C174.643 148.269 174.308 148.619 174.058 149.079C173.808 149.539 173.683 150.079 173.683 150.699C173.683 151.329 173.808 151.879 174.058 152.349C174.308 152.809 174.643 153.164 175.063 153.414C175.483 153.654 175.948 153.774 176.458 153.774C176.968 153.774 177.433 153.654 177.853 153.414C178.283 153.164 178.623 152.809 178.873 152.349C179.123 151.879 179.248 151.334 179.248 150.714ZM190.014 146.619L185.064 158.709H183.654L185.274 154.749L181.959 146.619H183.474L186.054 153.279L188.604 146.619H190.014ZM198.886 150.414C198.886 150.674 198.871 150.949 198.841 151.239H192.271C192.321 152.049 192.596 152.684 193.096 153.144C193.606 153.594 194.221 153.819 194.941 153.819C195.531 153.819 196.021 153.684 196.411 153.414C196.811 153.134 197.091 152.764 197.251 152.304H198.721C198.501 153.094 198.061 153.739 197.401 154.239C196.741 154.729 195.921 154.974 194.941 154.974C194.161 154.974 193.461 154.799 192.841 154.449C192.231 154.099 191.751 153.604 191.401 152.964C191.051 152.314 190.876 151.564 190.876 150.714C190.876 149.864 191.046 149.119 191.386 148.479C191.726 147.839 192.201 147.349 192.811 147.009C193.431 146.659 194.141 146.484 194.941 146.484C195.721 146.484 196.411 146.654 197.011 146.994C197.611 147.334 198.071 147.804 198.391 148.404C198.721 148.994 198.886 149.664 198.886 150.414ZM197.476 150.129C197.476 149.609 197.361 149.164 197.131 148.794C196.901 148.414 196.586 148.129 196.186 147.939C195.796 147.739 195.361 147.639 194.881 147.639C194.191 147.639 193.601 147.859 193.111 148.299C192.631 148.739 192.356 149.349 192.286 150.129H197.476ZM202.053 147.954C202.293 147.484 202.633 147.119 203.073 146.859C203.523 146.599 204.068 146.469 204.708 146.469V147.879H204.348C202.818 147.879 202.053 148.709 202.053 150.369V154.839H200.688V146.619H202.053V147.954ZM209.194 154.974C208.564 154.974 207.999 154.869 207.499 154.659C206.999 154.439 206.604 154.139 206.314 153.759C206.024 153.369 205.864 152.924 205.834 152.424H207.244C207.284 152.834 207.474 153.169 207.814 153.429C208.164 153.689 208.619 153.819 209.179 153.819C209.699 153.819 210.109 153.704 210.409 153.474C210.709 153.244 210.859 152.954 210.859 152.604C210.859 152.244 210.699 151.979 210.379 151.809C210.059 151.629 209.564 151.454 208.894 151.284C208.284 151.124 207.784 150.964 207.394 150.804C207.014 150.634 206.684 150.389 206.404 150.069C206.134 149.739 205.999 149.309 205.999 148.779C205.999 148.359 206.124 147.974 206.374 147.624C206.624 147.274 206.979 146.999 207.439 146.799C207.899 146.589 208.424 146.484 209.014 146.484C209.924 146.484 210.659 146.714 211.219 147.174C211.779 147.634 212.079 148.264 212.119 149.064H210.754C210.724 148.634 210.549 148.289 210.229 148.029C209.919 147.769 209.499 147.639 208.969 147.639C208.479 147.639 208.089 147.744 207.799 147.954C207.509 148.164 207.364 148.439 207.364 148.779C207.364 149.049 207.449 149.274 207.619 149.454C207.799 149.624 208.019 149.764 208.279 149.874C208.549 149.974 208.919 150.089 209.389 150.219C209.979 150.379 210.459 150.539 210.829 150.699C211.199 150.849 211.514 151.079 211.774 151.389C212.044 151.699 212.184 152.104 212.194 152.604C212.194 153.054 212.069 153.459 211.819 153.819C211.569 154.179 211.214 154.464 210.754 154.674C210.304 154.874 209.784 154.974 209.194 154.974ZM226.145 154.839L224.78 153.459C224.27 153.989 223.725 154.384 223.145 154.644C222.565 154.894 221.91 155.019 221.18 155.019C220.46 155.019 219.82 154.889 219.26 154.629C218.71 154.369 218.28 153.999 217.97 153.519C217.67 153.039 217.52 152.479 217.52 151.839C217.52 151.109 217.725 150.469 218.135 149.919C218.555 149.359 219.17 148.919 219.98 148.599C219.66 148.219 219.43 147.869 219.29 147.549C219.15 147.229 219.08 146.879 219.08 146.499C219.08 146.059 219.19 145.664 219.41 145.314C219.64 144.954 219.965 144.674 220.385 144.474C220.805 144.274 221.29 144.174 221.84 144.174C222.38 144.174 222.85 144.279 223.25 144.489C223.65 144.699 223.95 144.994 224.15 145.374C224.35 145.744 224.44 146.159 224.42 146.619H223.055C223.065 146.209 222.95 145.889 222.71 145.659C222.47 145.419 222.16 145.299 221.78 145.299C221.38 145.299 221.055 145.414 220.805 145.644C220.565 145.864 220.445 146.149 220.445 146.499C220.445 146.799 220.525 147.089 220.685 147.369C220.855 147.649 221.135 147.994 221.525 148.404L224.645 151.539L224.915 151.119L225.935 149.409H227.405L226.175 151.539C226.005 151.839 225.805 152.154 225.575 152.484L227.93 154.839H226.145ZM221.18 153.849C221.72 153.849 222.205 153.744 222.635 153.534C223.075 153.324 223.49 152.999 223.88 152.559L220.805 149.469C219.525 149.959 218.885 150.734 218.885 151.794C218.885 152.384 219.095 152.874 219.515 153.264C219.945 153.654 220.5 153.849 221.18 153.849ZM137.358 170.414C137.068 169.804 136.648 169.334 136.098 169.004C135.548 168.664 134.908 168.494 134.178 168.494C133.448 168.494 132.788 168.664 132.198 169.004C131.618 169.334 131.158 169.814 130.818 170.444C130.488 171.064 130.323 171.784 130.323 172.604C130.323 173.424 130.488 174.144 130.818 174.764C131.158 175.384 131.618 175.864 132.198 176.204C132.788 176.534 133.448 176.699 134.178 176.699C135.198 176.699 136.038 176.394 136.698 175.784C137.358 175.174 137.743 174.349 137.853 173.309H133.683V172.199H139.308V173.249C139.228 174.109 138.958 174.899 138.498 175.619C138.038 176.329 137.433 176.894 136.683 177.314C135.933 177.724 135.098 177.929 134.178 177.929C133.208 177.929 132.323 177.704 131.523 177.254C130.723 176.794 130.088 176.159 129.618 175.349C129.158 174.539 128.928 173.624 128.928 172.604C128.928 171.584 129.158 170.669 129.618 169.859C130.088 169.039 130.723 168.404 131.523 167.954C132.323 167.494 133.208 167.264 134.178 167.264C135.288 167.264 136.268 167.539 137.118 168.089C137.978 168.639 138.603 169.414 138.993 170.414H137.358ZM142.478 170.954C142.718 170.484 143.058 170.119 143.498 169.859C143.948 169.599 144.493 169.469 145.133 169.469V170.879H144.773C143.243 170.879 142.478 171.709 142.478 173.369V177.839H141.113V169.619H142.478V170.954ZM150.294 177.974C149.524 177.974 148.824 177.799 148.194 177.449C147.574 177.099 147.084 176.604 146.724 175.964C146.374 175.314 146.199 174.564 146.199 173.714C146.199 172.874 146.379 172.134 146.739 171.494C147.109 170.844 147.609 170.349 148.239 170.009C148.869 169.659 149.574 169.484 150.354 169.484C151.134 169.484 151.839 169.659 152.469 170.009C153.099 170.349 153.594 170.839 153.954 171.479C154.324 172.119 154.509 172.864 154.509 173.714C154.509 174.564 154.319 175.314 153.939 175.964C153.569 176.604 153.064 177.099 152.424 177.449C151.784 177.799 151.074 177.974 150.294 177.974ZM150.294 176.774C150.784 176.774 151.244 176.659 151.674 176.429C152.104 176.199 152.449 175.854 152.709 175.394C152.979 174.934 153.114 174.374 153.114 173.714C153.114 173.054 152.984 172.494 152.724 172.034C152.464 171.574 152.124 171.234 151.704 171.014C151.284 170.784 150.829 170.669 150.339 170.669C149.839 170.669 149.379 170.784 148.959 171.014C148.549 171.234 148.219 171.574 147.969 172.034C147.719 172.494 147.594 173.054 147.594 173.714C147.594 174.384 147.714 174.949 147.954 175.409C148.204 175.869 148.534 176.214 148.944 176.444C149.354 176.664 149.804 176.774 150.294 176.774ZM163.593 169.619V177.839H162.228V176.624C161.968 177.044 161.603 177.374 161.133 177.614C160.673 177.844 160.163 177.959 159.603 177.959C158.963 177.959 158.388 177.829 157.878 177.569C157.368 177.299 156.963 176.899 156.663 176.369C156.373 175.839 156.228 175.194 156.228 174.434V169.619H157.578V174.254C157.578 175.064 157.783 175.689 158.193 176.129C158.603 176.559 159.163 176.774 159.873 176.774C160.603 176.774 161.178 176.549 161.598 176.099C162.018 175.649 162.228 174.994 162.228 174.134V169.619H163.593ZM167.263 171.134C167.533 170.664 167.933 170.274 168.463 169.964C169.003 169.644 169.628 169.484 170.338 169.484C171.068 169.484 171.728 169.659 172.318 170.009C172.918 170.359 173.388 170.854 173.728 171.494C174.068 172.124 174.238 172.859 174.238 173.699C174.238 174.529 174.068 175.269 173.728 175.919C173.388 176.569 172.918 177.074 172.318 177.434C171.728 177.794 171.068 177.974 170.338 177.974C169.638 177.974 169.018 177.819 168.478 177.509C167.948 177.189 167.543 176.794 167.263 176.324V181.739H165.898V169.619H167.263V171.134ZM172.843 173.699C172.843 173.079 172.718 172.539 172.468 172.079C172.218 171.619 171.878 171.269 171.448 171.029C171.028 170.789 170.563 170.669 170.053 170.669C169.553 170.669 169.088 170.794 168.658 171.044C168.238 171.284 167.898 171.639 167.638 172.109C167.388 172.569 167.263 173.104 167.263 173.714C167.263 174.334 167.388 174.879 167.638 175.349C167.898 175.809 168.238 176.164 168.658 176.414C169.088 176.654 169.553 176.774 170.053 176.774C170.563 176.774 171.028 176.654 171.448 176.414C171.878 176.164 172.218 175.809 172.468 175.349C172.718 174.879 172.843 174.329 172.843 173.699ZM178.945 177.974C178.315 177.974 177.75 177.869 177.25 177.659C176.75 177.439 176.355 177.139 176.065 176.759C175.775 176.369 175.615 175.924 175.585 175.424H176.995C177.035 175.834 177.225 176.169 177.565 176.429C177.915 176.689 178.37 176.819 178.93 176.819C179.45 176.819 179.86 176.704 180.16 176.474C180.46 176.244 180.61 175.954 180.61 175.604C180.61 175.244 180.45 174.979 180.13 174.809C179.81 174.629 179.315 174.454 178.645 174.284C178.035 174.124 177.535 173.964 177.145 173.804C176.765 173.634 176.435 173.389 176.155 173.069C175.885 172.739 175.75 172.309 175.75 171.779C175.75 171.359 175.875 170.974 176.125 170.624C176.375 170.274 176.73 169.999 177.19 169.799C177.65 169.589 178.175 169.484 178.765 169.484C179.675 169.484 180.41 169.714 180.97 170.174C181.53 170.634 181.83 171.264 181.87 172.064H180.505C180.475 171.634 180.3 171.289 179.98 171.029C179.67 170.769 179.25 170.639 178.72 170.639C178.23 170.639 177.84 170.744 177.55 170.954C177.26 171.164 177.115 171.439 177.115 171.779C177.115 172.049 177.2 172.274 177.37 172.454C177.55 172.624 177.77 172.764 178.03 172.874C178.3 172.974 178.67 173.089 179.14 173.219C179.73 173.379 180.21 173.539 180.58 173.699C180.95 173.849 181.265 174.079 181.525 174.389C181.795 174.699 181.935 175.104 181.945 175.604C181.945 176.054 181.82 176.459 181.57 176.819C181.32 177.179 180.965 177.464 180.505 177.674C180.055 177.874 179.535 177.974 178.945 177.974Z" fill="#D7C5C5"/>
<circle cx="513.5" cy="137.339" r="135.5" fill="#CEEFE6" fill-opacity="0.3" stroke="white" stroke-width="2"/>
<path d="M379 137.339C379 63.0571 439.218 2.83936 513.5 2.83936" stroke="#59E5B3" stroke-width="2"/>
<circle cx="514" cy="136.839" r="109" fill="white"/>
<circle cx="514" cy="136.839" r="88" fill="#2E1C18"/>
<g filter="url(#filter2_d_1_136)">
<circle cx="378.5" cy="139.339" r="10.5" fill="url(#paint2_linear_1_136)"/>
<circle cx="378.5" cy="139.339" r="11.5" stroke="white" stroke-width="2"/>
</g>
<g clip-path="url(#clip1_1_136)">
<g filter="url(#filter3_d_1_136)">
<path d="M531.74 118.159H524.54L530.804 114.535C531.117 114.355 531.392 114.114 531.612 113.827C531.832 113.541 531.993 113.213 532.087 112.864C532.181 112.515 532.204 112.151 532.157 111.792C532.11 111.434 531.993 111.088 531.812 110.775L528.228 104.567C528.047 104.254 527.807 103.98 527.52 103.76C527.233 103.539 526.906 103.378 526.557 103.284C526.208 103.191 525.843 103.167 525.485 103.214C525.127 103.261 524.781 103.379 524.468 103.559L518.196 107.175L518.348 106.911L521.812 100.903C521.994 100.591 522.112 100.245 522.16 99.8863C522.208 99.5277 522.184 99.1631 522.09 98.8137C521.996 98.4642 521.835 98.1367 521.614 97.8501C521.393 97.5634 521.118 97.3232 520.804 97.1434L514.564 93.5594C514.251 93.3786 513.905 93.2612 513.547 93.2141C513.189 93.1669 512.824 93.1908 512.475 93.2844C512.126 93.378 511.799 93.5395 511.512 93.7596C511.225 93.9798 510.985 94.2542 510.804 94.5674L507.18 100.831V93.6314C507.184 93.2662 507.116 92.9039 506.979 92.5653C506.842 92.2268 506.64 91.9187 506.383 91.659C506.126 91.3993 505.821 91.1932 505.484 91.0525C505.147 90.9118 504.785 90.8393 504.42 90.8394H497.26C496.529 90.8415 495.828 91.1329 495.311 91.6501C494.794 92.1672 494.502 92.868 494.5 93.5994V124.495C494.502 126.177 495.171 127.79 496.36 128.979C497.55 130.168 499.162 130.837 500.844 130.839H531.74C532.471 130.837 533.172 130.546 533.689 130.029C534.206 129.511 534.498 128.811 534.5 128.079V120.919C534.498 120.188 534.206 119.487 533.689 118.97C533.172 118.453 532.471 118.161 531.74 118.159ZM498.94 118.255L503.844 109.759L508.756 112.591L498.94 118.255ZM496.1 120.031V110.215H501.764L496.1 120.031ZM510.78 113.287L510.844 113.247L513.7 118.159H502.34L510.78 113.287ZM515.124 119.759V129.239H507.836V119.759H515.124ZM516.724 119.759H524.012V129.239H516.724V119.759ZM515.524 118.159L512.228 112.439L518.54 108.799L523.3 117.015L521.332 118.159H515.524ZM525.236 104.943C525.368 104.864 525.515 104.811 525.668 104.79C525.821 104.768 525.977 104.777 526.126 104.816C526.275 104.856 526.415 104.925 526.537 105.02C526.659 105.114 526.761 105.233 526.836 105.367L530.42 111.575C530.499 111.708 530.55 111.855 530.571 112.007C530.592 112.16 530.583 112.315 530.544 112.464C530.504 112.613 530.435 112.753 530.341 112.875C530.247 112.997 530.13 113.099 529.996 113.175L524.692 116.239L519.924 108.007L525.236 104.943ZM510.388 111.639L504.676 108.351L508.324 102.039L516.532 106.839L515.388 108.815L510.388 111.639ZM512.188 95.3434C512.263 95.2086 512.365 95.0904 512.487 94.9958C512.609 94.9011 512.749 94.832 512.898 94.7924C513.047 94.7529 513.203 94.7437 513.356 94.7655C513.509 94.7873 513.656 94.8396 513.788 94.9194L519.996 98.5034C520.13 98.5773 520.247 98.6779 520.341 98.799C520.434 98.9201 520.502 99.0591 520.54 99.2074C520.579 99.3534 520.588 99.5057 520.567 99.6554C520.547 99.805 520.497 99.9491 520.42 100.079L517.356 105.391L509.124 100.671L512.188 95.3434ZM502.692 108.615H496.1V101.327H505.58V103.639L502.692 108.615ZM497.26 92.4394H504.46C504.768 92.4394 505.063 92.5616 505.28 92.7791C505.498 92.9967 505.62 93.2917 505.62 93.5994V99.7274H496.1V93.5994C496.1 93.2917 496.222 92.9967 496.44 92.7791C496.657 92.5616 496.952 92.4394 497.26 92.4394ZM496.1 124.495C496.102 123.239 496.603 122.034 497.492 121.146C498.382 120.258 499.587 119.759 500.844 119.759H506.236V129.239H500.844C499.586 129.237 498.381 128.737 497.492 127.848C496.603 126.958 496.102 125.753 496.1 124.495ZM532.9 128.079C532.9 128.387 532.778 128.682 532.56 128.9C532.343 129.117 532.048 129.239 531.74 129.239H525.612V119.759H531.74C532.048 119.759 532.343 119.882 532.56 120.099C532.778 120.317 532.9 120.612 532.9 120.919V128.079Z" fill="url(#paint3_linear_1_136)"/>
<path d="M500.843 121.327C500.21 121.327 499.591 121.515 499.065 121.867C498.539 122.218 498.129 122.718 497.886 123.303C497.644 123.888 497.581 124.531 497.704 125.152C497.828 125.772 498.133 126.343 498.58 126.79C499.028 127.238 499.598 127.542 500.219 127.666C500.839 127.789 501.483 127.726 502.067 127.484C502.652 127.242 503.152 126.832 503.504 126.305C503.855 125.779 504.043 125.16 504.043 124.527C504.043 123.679 503.706 122.865 503.106 122.265C502.505 121.665 501.692 121.327 500.843 121.327ZM500.843 126.071C500.526 126.071 500.217 125.978 499.954 125.802C499.691 125.626 499.486 125.376 499.365 125.084C499.244 124.791 499.212 124.47 499.274 124.159C499.335 123.849 499.488 123.564 499.711 123.34C499.935 123.116 500.22 122.964 500.531 122.902C500.841 122.84 501.163 122.872 501.455 122.993C501.748 123.114 501.997 123.319 502.173 123.583C502.349 123.846 502.443 124.155 502.443 124.471C502.434 124.89 502.262 125.289 501.963 125.582C501.664 125.875 501.262 126.04 500.843 126.039V126.071Z" fill="url(#paint4_linear_1_136)"/>
</g>
</g>
<path d="M463.275 146.414C462.985 145.804 462.565 145.334 462.015 145.004C461.465 144.664 460.825 144.494 460.095 144.494C459.365 144.494 458.705 144.664 458.115 145.004C457.535 145.334 457.075 145.814 456.735 146.444C456.405 147.064 456.24 147.784 456.24 148.604C456.24 149.424 456.405 150.144 456.735 150.764C457.075 151.384 457.535 151.864 458.115 152.204C458.705 152.534 459.365 152.699 460.095 152.699C461.115 152.699 461.955 152.394 462.615 151.784C463.275 151.174 463.66 150.349 463.77 149.309H459.6V148.199H465.225V149.249C465.145 150.109 464.875 150.899 464.415 151.619C463.955 152.329 463.35 152.894 462.6 153.314C461.85 153.724 461.015 153.929 460.095 153.929C459.125 153.929 458.24 153.704 457.44 153.254C456.64 152.794 456.005 152.159 455.535 151.349C455.075 150.539 454.845 149.624 454.845 148.604C454.845 147.584 455.075 146.669 455.535 145.859C456.005 145.039 456.64 144.404 457.44 143.954C458.24 143.494 459.125 143.264 460.095 143.264C461.205 143.264 462.185 143.539 463.035 144.089C463.895 144.639 464.52 145.414 464.91 146.414H463.275ZM468.395 142.739V153.839H467.03V142.739H468.395ZM474.306 153.974C473.536 153.974 472.836 153.799 472.206 153.449C471.586 153.099 471.096 152.604 470.736 151.964C470.386 151.314 470.211 150.564 470.211 149.714C470.211 148.874 470.391 148.134 470.751 147.494C471.121 146.844 471.621 146.349 472.251 146.009C472.881 145.659 473.586 145.484 474.366 145.484C475.146 145.484 475.851 145.659 476.481 146.009C477.111 146.349 477.606 146.839 477.966 147.479C478.336 148.119 478.521 148.864 478.521 149.714C478.521 150.564 478.331 151.314 477.951 151.964C477.581 152.604 477.076 153.099 476.436 153.449C475.796 153.799 475.086 153.974 474.306 153.974ZM474.306 152.774C474.796 152.774 475.256 152.659 475.686 152.429C476.116 152.199 476.461 151.854 476.721 151.394C476.991 150.934 477.126 150.374 477.126 149.714C477.126 149.054 476.996 148.494 476.736 148.034C476.476 147.574 476.136 147.234 475.716 147.014C475.296 146.784 474.841 146.669 474.351 146.669C473.851 146.669 473.391 146.784 472.971 147.014C472.561 147.234 472.231 147.574 471.981 148.034C471.731 148.494 471.606 149.054 471.606 149.714C471.606 150.384 471.726 150.949 471.966 151.409C472.216 151.869 472.546 152.214 472.956 152.444C473.366 152.664 473.816 152.774 474.306 152.774ZM481.681 147.149C481.961 146.659 482.371 146.259 482.911 145.949C483.451 145.639 484.066 145.484 484.756 145.484C485.496 145.484 486.161 145.659 486.751 146.009C487.341 146.359 487.806 146.854 488.146 147.494C488.486 148.124 488.656 148.859 488.656 149.699C488.656 150.529 488.486 151.269 488.146 151.919C487.806 152.569 487.336 153.074 486.736 153.434C486.146 153.794 485.486 153.974 484.756 153.974C484.046 153.974 483.421 153.819 482.881 153.509C482.351 153.199 481.951 152.804 481.681 152.324V153.839H480.316V142.739H481.681V147.149ZM487.261 149.699C487.261 149.079 487.136 148.539 486.886 148.079C486.636 147.619 486.296 147.269 485.866 147.029C485.446 146.789 484.981 146.669 484.471 146.669C483.971 146.669 483.506 146.794 483.076 147.044C482.656 147.284 482.316 147.639 482.056 148.109C481.806 148.569 481.681 149.104 481.681 149.714C481.681 150.334 481.806 150.879 482.056 151.349C482.316 151.809 482.656 152.164 483.076 152.414C483.506 152.654 483.971 152.774 484.471 152.774C484.981 152.774 485.446 152.654 485.866 152.414C486.296 152.164 486.636 151.809 486.886 151.349C487.136 150.879 487.261 150.329 487.261 149.699ZM489.942 149.699C489.942 148.859 490.112 148.124 490.452 147.494C490.792 146.854 491.257 146.359 491.847 146.009C492.447 145.659 493.112 145.484 493.842 145.484C494.562 145.484 495.187 145.639 495.717 145.949C496.247 146.259 496.642 146.649 496.902 147.119V145.619H498.282V153.839H496.902V152.309C496.632 152.789 496.227 153.189 495.687 153.509C495.157 153.819 494.537 153.974 493.827 153.974C493.097 153.974 492.437 153.794 491.847 153.434C491.257 153.074 490.792 152.569 490.452 151.919C490.112 151.269 489.942 150.529 489.942 149.699ZM496.902 149.714C496.902 149.094 496.777 148.554 496.527 148.094C496.277 147.634 495.937 147.284 495.507 147.044C495.087 146.794 494.622 146.669 494.112 146.669C493.602 146.669 493.137 146.789 492.717 147.029C492.297 147.269 491.962 147.619 491.712 148.079C491.462 148.539 491.337 149.079 491.337 149.699C491.337 150.329 491.462 150.879 491.712 151.349C491.962 151.809 492.297 152.164 492.717 152.414C493.137 152.654 493.602 152.774 494.112 152.774C494.622 152.774 495.087 152.654 495.507 152.414C495.937 152.164 496.277 151.809 496.527 151.349C496.777 150.879 496.902 150.334 496.902 149.714ZM501.954 142.739V153.839H500.589V142.739H501.954ZM511.595 153.944C510.905 153.944 510.285 153.824 509.735 153.584C509.195 153.334 508.77 152.994 508.46 152.564C508.15 152.124 507.99 151.619 507.98 151.049H509.435C509.485 151.539 509.685 151.954 510.035 152.294C510.395 152.624 510.915 152.789 511.595 152.789C512.245 152.789 512.755 152.629 513.125 152.309C513.505 151.979 513.695 151.559 513.695 151.049C513.695 150.649 513.585 150.324 513.365 150.074C513.145 149.824 512.87 149.634 512.54 149.504C512.21 149.374 511.765 149.234 511.205 149.084C510.515 148.904 509.96 148.724 509.54 148.544C509.13 148.364 508.775 148.084 508.475 147.704C508.185 147.314 508.04 146.794 508.04 146.144C508.04 145.574 508.185 145.069 508.475 144.629C508.765 144.189 509.17 143.849 509.69 143.609C510.22 143.369 510.825 143.249 511.505 143.249C512.485 143.249 513.285 143.494 513.905 143.984C514.535 144.474 514.89 145.124 514.97 145.934H513.47C513.42 145.534 513.21 145.184 512.84 144.884C512.47 144.574 511.98 144.419 511.37 144.419C510.8 144.419 510.335 144.569 509.975 144.869C509.615 145.159 509.435 145.569 509.435 146.099C509.435 146.479 509.54 146.789 509.75 147.029C509.97 147.269 510.235 147.454 510.545 147.584C510.865 147.704 511.31 147.844 511.88 148.004C512.57 148.194 513.125 148.384 513.545 148.574C513.965 148.754 514.325 149.039 514.625 149.429C514.925 149.809 515.075 150.329 515.075 150.989C515.075 151.499 514.94 151.979 514.67 152.429C514.4 152.879 514 153.244 513.47 153.524C512.94 153.804 512.315 153.944 511.595 153.944ZM518.748 146.744V151.589C518.748 151.989 518.833 152.274 519.003 152.444C519.173 152.604 519.468 152.684 519.888 152.684H520.893V153.839H519.663C518.903 153.839 518.333 153.664 517.953 153.314C517.573 152.964 517.383 152.389 517.383 151.589V146.744H516.318V145.619H517.383V143.549H518.748V145.619H520.893V146.744H518.748ZM529.627 145.619L524.677 157.709H523.267L524.887 153.749L521.572 145.619H523.087L525.667 152.279L528.217 145.619H529.627ZM532.364 142.739V153.839H530.999V142.739H532.364ZM542.191 149.414C542.191 149.674 542.176 149.949 542.146 150.239H535.576C535.626 151.049 535.901 151.684 536.401 152.144C536.911 152.594 537.526 152.819 538.246 152.819C538.836 152.819 539.326 152.684 539.716 152.414C540.116 152.134 540.396 151.764 540.556 151.304H542.026C541.806 152.094 541.366 152.739 540.706 153.239C540.046 153.729 539.226 153.974 538.246 153.974C537.466 153.974 536.766 153.799 536.146 153.449C535.536 153.099 535.056 152.604 534.706 151.964C534.356 151.314 534.181 150.564 534.181 149.714C534.181 148.864 534.351 148.119 534.691 147.479C535.031 146.839 535.506 146.349 536.116 146.009C536.736 145.659 537.446 145.484 538.246 145.484C539.026 145.484 539.716 145.654 540.316 145.994C540.916 146.334 541.376 146.804 541.696 147.404C542.026 147.994 542.191 148.664 542.191 149.414ZM540.781 149.129C540.781 148.609 540.666 148.164 540.436 147.794C540.206 147.414 539.891 147.129 539.491 146.939C539.101 146.739 538.666 146.639 538.186 146.639C537.496 146.639 536.906 146.859 536.416 147.299C535.936 147.739 535.661 148.349 535.591 149.129H540.781ZM546.902 153.974C546.272 153.974 545.707 153.869 545.207 153.659C544.707 153.439 544.312 153.139 544.022 152.759C543.732 152.369 543.572 151.924 543.542 151.424H544.952C544.992 151.834 545.182 152.169 545.522 152.429C545.872 152.689 546.327 152.819 546.887 152.819C547.407 152.819 547.817 152.704 548.117 152.474C548.417 152.244 548.567 151.954 548.567 151.604C548.567 151.244 548.407 150.979 548.087 150.809C547.767 150.629 547.272 150.454 546.602 150.284C545.992 150.124 545.492 149.964 545.102 149.804C544.722 149.634 544.392 149.389 544.112 149.069C543.842 148.739 543.707 148.309 543.707 147.779C543.707 147.359 543.832 146.974 544.082 146.624C544.332 146.274 544.687 145.999 545.147 145.799C545.607 145.589 546.132 145.484 546.722 145.484C547.632 145.484 548.367 145.714 548.927 146.174C549.487 146.634 549.787 147.264 549.827 148.064H548.462C548.432 147.634 548.257 147.289 547.937 147.029C547.627 146.769 547.207 146.639 546.677 146.639C546.187 146.639 545.797 146.744 545.507 146.954C545.217 147.164 545.072 147.439 545.072 147.779C545.072 148.049 545.157 148.274 545.327 148.454C545.507 148.624 545.727 148.764 545.987 148.874C546.257 148.974 546.627 149.089 547.097 149.219C547.687 149.379 548.167 149.539 548.537 149.699C548.907 149.849 549.222 150.079 549.482 150.389C549.752 150.699 549.892 151.104 549.902 151.604C549.902 152.054 549.777 152.459 549.527 152.819C549.277 153.179 548.922 153.464 548.462 153.674C548.012 153.874 547.492 153.974 546.902 153.974ZM559.173 146.744H557.448V153.839H556.083V146.744H555.018V145.619H556.083V145.034C556.083 144.114 556.318 143.444 556.788 143.024C557.268 142.594 558.033 142.379 559.083 142.379V143.519C558.483 143.519 558.058 143.639 557.808 143.879C557.568 144.109 557.448 144.494 557.448 145.034V145.619H559.173V146.744ZM564.35 153.974C563.58 153.974 562.88 153.799 562.25 153.449C561.63 153.099 561.14 152.604 560.78 151.964C560.43 151.314 560.255 150.564 560.255 149.714C560.255 148.874 560.435 148.134 560.795 147.494C561.165 146.844 561.665 146.349 562.295 146.009C562.925 145.659 563.63 145.484 564.41 145.484C565.19 145.484 565.895 145.659 566.525 146.009C567.155 146.349 567.65 146.839 568.01 147.479C568.38 148.119 568.565 148.864 568.565 149.714C568.565 150.564 568.375 151.314 567.995 151.964C567.625 152.604 567.12 153.099 566.48 153.449C565.84 153.799 565.13 153.974 564.35 153.974ZM564.35 152.774C564.84 152.774 565.3 152.659 565.73 152.429C566.16 152.199 566.505 151.854 566.765 151.394C567.035 150.934 567.17 150.374 567.17 149.714C567.17 149.054 567.04 148.494 566.78 148.034C566.52 147.574 566.18 147.234 565.76 147.014C565.34 146.784 564.885 146.669 564.395 146.669C563.895 146.669 563.435 146.784 563.015 147.014C562.605 147.234 562.275 147.574 562.025 148.034C561.775 148.494 561.65 149.054 561.65 149.714C561.65 150.384 561.77 150.949 562.01 151.409C562.26 151.869 562.59 152.214 563 152.444C563.41 152.664 563.86 152.774 564.35 152.774ZM571.725 146.954C571.965 146.484 572.305 146.119 572.745 145.859C573.195 145.599 573.74 145.469 574.38 145.469V146.879H574.02C572.49 146.879 571.725 147.709 571.725 149.369V153.839H570.36V145.619H571.725V146.954ZM458.58 171.604C458.58 170.584 458.81 169.669 459.27 168.859C459.73 168.039 460.355 167.399 461.145 166.939C461.945 166.479 462.83 166.249 463.8 166.249C464.94 166.249 465.935 166.524 466.785 167.074C467.635 167.624 468.255 168.404 468.645 169.414H467.01C466.72 168.784 466.3 168.299 465.75 167.959C465.21 167.619 464.56 167.449 463.8 167.449C463.07 167.449 462.415 167.619 461.835 167.959C461.255 168.299 460.8 168.784 460.47 169.414C460.14 170.034 459.975 170.764 459.975 171.604C459.975 172.434 460.14 173.164 460.47 173.794C460.8 174.414 461.255 174.894 461.835 175.234C462.415 175.574 463.07 175.744 463.8 175.744C464.56 175.744 465.21 175.579 465.75 175.249C466.3 174.909 466.72 174.424 467.01 173.794H468.645C468.255 174.794 467.635 175.569 466.785 176.119C465.935 176.659 464.94 176.929 463.8 176.929C462.83 176.929 461.945 176.704 461.145 176.254C460.355 175.794 459.73 175.159 459.27 174.349C458.81 173.539 458.58 172.624 458.58 171.604ZM474.262 176.974C473.492 176.974 472.792 176.799 472.162 176.449C471.542 176.099 471.052 175.604 470.692 174.964C470.342 174.314 470.167 173.564 470.167 172.714C470.167 171.874 470.347 171.134 470.707 170.494C471.077 169.844 471.577 169.349 472.207 169.009C472.837 168.659 473.542 168.484 474.322 168.484C475.102 168.484 475.807 168.659 476.437 169.009C477.067 169.349 477.562 169.839 477.922 170.479C478.292 171.119 478.477 171.864 478.477 172.714C478.477 173.564 478.287 174.314 477.907 174.964C477.537 175.604 477.032 176.099 476.392 176.449C475.752 176.799 475.042 176.974 474.262 176.974ZM474.262 175.774C474.752 175.774 475.212 175.659 475.642 175.429C476.072 175.199 476.417 174.854 476.677 174.394C476.947 173.934 477.082 173.374 477.082 172.714C477.082 172.054 476.952 171.494 476.692 171.034C476.432 170.574 476.092 170.234 475.672 170.014C475.252 169.784 474.797 169.669 474.307 169.669C473.807 169.669 473.347 169.784 472.927 170.014C472.517 170.234 472.187 170.574 471.937 171.034C471.687 171.494 471.562 172.054 471.562 172.714C471.562 173.384 471.682 173.949 471.922 174.409C472.172 174.869 472.502 175.214 472.912 175.444C473.322 175.664 473.772 175.774 474.262 175.774ZM481.637 165.739V176.839H480.272V165.739H481.637ZM487.548 176.974C486.778 176.974 486.078 176.799 485.448 176.449C484.828 176.099 484.338 175.604 483.978 174.964C483.628 174.314 483.453 173.564 483.453 172.714C483.453 171.874 483.633 171.134 483.993 170.494C484.363 169.844 484.863 169.349 485.493 169.009C486.123 168.659 486.828 168.484 487.608 168.484C488.388 168.484 489.093 168.659 489.723 169.009C490.353 169.349 490.848 169.839 491.208 170.479C491.578 171.119 491.763 171.864 491.763 172.714C491.763 173.564 491.573 174.314 491.193 174.964C490.823 175.604 490.318 176.099 489.678 176.449C489.038 176.799 488.328 176.974 487.548 176.974ZM487.548 175.774C488.038 175.774 488.498 175.659 488.928 175.429C489.358 175.199 489.703 174.854 489.963 174.394C490.233 173.934 490.368 173.374 490.368 172.714C490.368 172.054 490.238 171.494 489.978 171.034C489.718 170.574 489.378 170.234 488.958 170.014C488.538 169.784 488.083 169.669 487.593 169.669C487.093 169.669 486.633 169.784 486.213 170.014C485.803 170.234 485.473 170.574 485.223 171.034C484.973 171.494 484.848 172.054 484.848 172.714C484.848 173.384 484.968 173.949 485.208 174.409C485.458 174.869 485.788 175.214 486.198 175.444C486.608 175.664 487.058 175.774 487.548 175.774ZM494.923 169.954C495.163 169.484 495.503 169.119 495.943 168.859C496.393 168.599 496.938 168.469 497.578 168.469V169.879H497.218C495.688 169.879 494.923 170.709 494.923 172.369V176.839H493.558V168.619H494.923V169.954ZM502.064 176.974C501.434 176.974 500.869 176.869 500.369 176.659C499.869 176.439 499.474 176.139 499.184 175.759C498.894 175.369 498.734 174.924 498.704 174.424H500.114C500.154 174.834 500.344 175.169 500.684 175.429C501.034 175.689 501.489 175.819 502.049 175.819C502.569 175.819 502.979 175.704 503.279 175.474C503.579 175.244 503.729 174.954 503.729 174.604C503.729 174.244 503.569 173.979 503.249 173.809C502.929 173.629 502.434 173.454 501.764 173.284C501.154 173.124 500.654 172.964 500.264 172.804C499.884 172.634 499.554 172.389 499.274 172.069C499.004 171.739 498.869 171.309 498.869 170.779C498.869 170.359 498.994 169.974 499.244 169.624C499.494 169.274 499.849 168.999 500.309 168.799C500.769 168.589 501.294 168.484 501.884 168.484C502.794 168.484 503.529 168.714 504.089 169.174C504.649 169.634 504.949 170.264 504.989 171.064H503.624C503.594 170.634 503.419 170.289 503.099 170.029C502.789 169.769 502.369 169.639 501.839 169.639C501.349 169.639 500.959 169.744 500.669 169.954C500.379 170.164 500.234 170.439 500.234 170.779C500.234 171.049 500.319 171.274 500.489 171.454C500.669 171.624 500.889 171.764 501.149 171.874C501.419 171.974 501.789 172.089 502.259 172.219C502.849 172.379 503.329 172.539 503.699 172.699C504.069 172.849 504.384 173.079 504.644 173.389C504.914 173.699 505.054 174.104 505.064 174.604C505.064 175.054 504.939 175.459 504.689 175.819C504.439 176.179 504.084 176.464 503.624 176.674C503.174 176.874 502.654 176.974 502.064 176.974ZM508.4 174.949L506.72 178.984H505.805L506.9 174.949H508.4ZM515.628 169.744V174.589C515.628 174.989 515.713 175.274 515.883 175.444C516.053 175.604 516.348 175.684 516.768 175.684H517.773V176.839H516.543C515.783 176.839 515.213 176.664 514.833 176.314C514.453 175.964 514.263 175.389 514.263 174.589V169.744H513.198V168.619H514.263V166.549H515.628V168.619H517.773V169.744H515.628ZM526.927 172.414C526.927 172.674 526.912 172.949 526.882 173.239H520.312C520.362 174.049 520.637 174.684 521.137 175.144C521.647 175.594 522.262 175.819 522.982 175.819C523.572 175.819 524.062 175.684 524.452 175.414C524.852 175.134 525.132 174.764 525.292 174.304H526.762C526.542 175.094 526.102 175.739 525.442 176.239C524.782 176.729 523.962 176.974 522.982 176.974C522.202 176.974 521.502 176.799 520.882 176.449C520.272 176.099 519.792 175.604 519.442 174.964C519.092 174.314 518.917 173.564 518.917 172.714C518.917 171.864 519.087 171.119 519.427 170.479C519.767 169.839 520.242 169.349 520.852 169.009C521.472 168.659 522.182 168.484 522.982 168.484C523.762 168.484 524.452 168.654 525.052 168.994C525.652 169.334 526.112 169.804 526.432 170.404C526.762 170.994 526.927 171.664 526.927 172.414ZM525.517 172.129C525.517 171.609 525.402 171.164 525.172 170.794C524.942 170.414 524.627 170.129 524.227 169.939C523.837 169.739 523.402 169.639 522.922 169.639C522.232 169.639 521.642 169.859 521.152 170.299C520.672 170.739 520.397 171.349 520.327 172.129H525.517ZM533.019 176.839L531.069 173.779L529.194 176.839H527.769L530.424 172.759L527.769 168.619H529.314L531.264 171.664L533.124 168.619H534.549L531.909 172.684L534.564 176.839H533.019ZM537.571 169.744V174.589C537.571 174.989 537.656 175.274 537.826 175.444C537.996 175.604 538.291 175.684 538.711 175.684H539.716V176.839H538.486C537.726 176.839 537.156 176.664 536.776 176.314C536.396 175.964 536.206 175.389 536.206 174.589V169.744H535.141V168.619H536.206V166.549H537.571V168.619H539.716V169.744H537.571ZM542.78 174.949L541.1 178.984H540.185L541.28 174.949H542.78ZM555.843 172.414C555.843 172.674 555.828 172.949 555.798 173.239H549.228C549.278 174.049 549.553 174.684 550.053 175.144C550.563 175.594 551.178 175.819 551.898 175.819C552.488 175.819 552.978 175.684 553.368 175.414C553.768 175.134 554.048 174.764 554.208 174.304H555.678C555.458 175.094 555.018 175.739 554.358 176.239C553.698 176.729 552.878 176.974 551.898 176.974C551.118 176.974 550.418 176.799 549.798 176.449C549.188 176.099 548.708 175.604 548.358 174.964C548.008 174.314 547.833 173.564 547.833 172.714C547.833 171.864 548.003 171.119 548.343 170.479C548.683 169.839 549.158 169.349 549.768 169.009C550.388 168.659 551.098 168.484 551.898 168.484C552.678 168.484 553.368 168.654 553.968 168.994C554.568 169.334 555.028 169.804 555.348 170.404C555.678 170.994 555.843 171.664 555.843 172.414ZM554.433 172.129C554.433 171.609 554.318 171.164 554.088 170.794C553.858 170.414 553.543 170.129 553.143 169.939C552.753 169.739 552.318 169.639 551.838 169.639C551.148 169.639 550.558 169.859 550.068 170.299C549.588 170.739 549.313 171.349 549.243 172.129H554.433ZM559.31 169.744V174.589C559.31 174.989 559.395 175.274 559.565 175.444C559.735 175.604 560.03 175.684 560.45 175.684H561.455V176.839H560.225C559.465 176.839 558.895 176.664 558.515 176.314C558.135 175.964 557.945 175.389 557.945 174.589V169.744H556.88V168.619H557.945V166.549H559.31V168.619H561.455V169.744H559.31ZM562.599 172.714C562.599 171.864 562.769 171.124 563.109 170.494C563.449 169.854 563.919 169.359 564.519 169.009C565.129 168.659 565.824 168.484 566.604 168.484C567.614 168.484 568.444 168.729 569.094 169.219C569.754 169.709 570.189 170.389 570.399 171.259H568.929C568.789 170.759 568.514 170.364 568.104 170.074C567.704 169.784 567.204 169.639 566.604 169.639C565.824 169.639 565.194 169.909 564.714 170.449C564.234 170.979 563.994 171.734 563.994 172.714C563.994 173.704 564.234 174.469 564.714 175.009C565.194 175.549 565.824 175.819 566.604 175.819C567.204 175.819 567.704 175.679 568.104 175.399C568.504 175.119 568.779 174.719 568.929 174.199H570.399C570.179 175.039 569.739 175.714 569.079 176.224C568.419 176.724 567.594 176.974 566.604 176.974C565.824 176.974 565.129 176.799 564.519 176.449C563.919 176.099 563.449 175.604 563.109 174.964C562.769 174.324 562.599 173.574 562.599 172.714Z" fill="#D7C5C5"/>
<circle cx="871.5" cy="137.339" r="135.5" fill="#CEEFE6" fill-opacity="0.3" stroke="white" stroke-width="2"/>
<path d="M737 137.339C737 63.0571 797.218 2.83936 871.5 2.83936" stroke="#59E5B3" stroke-width="2"/>
<circle cx="872" cy="136.839" r="109" fill="white"/>
<circle cx="872" cy="136.839" r="88" fill="#2E1C18"/>
<g filter="url(#filter4_d_1_136)">
<circle cx="736.5" cy="139.339" r="10.5" fill="url(#paint5_linear_1_136)"/>
<circle cx="736.5" cy="139.339" r="11.5" stroke="white" stroke-width="2"/>
</g>
<g clip-path="url(#clip2_1_136)">
<g filter="url(#filter5_d_1_136)">
<path d="M859.229 97.1251C859.458 97.4679 859.801 97.5822 860.144 97.5822C860.372 97.5822 860.601 97.4679 860.829 97.3536C861.287 97.0108 861.401 96.2108 861.058 95.7536L860.372 94.8394C860.029 94.3822 859.344 94.2679 858.772 94.6108C858.315 94.9536 858.201 95.7536 858.544 96.2108L859.229 97.1251Z" fill="url(#paint6_linear_1_136)"/>
<path d="M853.4 115.182L852.257 115.525C851.686 115.754 851.343 116.325 851.572 117.011C851.686 117.468 852.143 117.811 852.714 117.811H853.057L854.2 117.468C854.772 117.24 855.114 116.668 854.886 115.982C854.657 115.411 853.972 115.068 853.4 115.182Z" fill="url(#paint7_linear_1_136)"/>
<path d="M870.658 94.2679C871.344 94.2679 871.801 93.8108 871.801 93.1251V91.9822C871.801 91.2965 871.344 90.8394 870.658 90.8394C869.972 90.8394 869.515 91.2965 869.515 91.9822V93.1251C869.515 93.8108 869.972 94.2679 870.658 94.2679Z" fill="url(#paint8_linear_1_136)"/>
<path d="M852.371 106.153C852.371 106.153 853.743 106.611 853.857 106.611C854.314 106.611 854.771 106.268 855 105.811C855.228 105.239 854.886 104.553 854.314 104.325L853.171 103.982C852.6 103.753 851.914 104.096 851.686 104.668C851.343 105.239 851.686 105.925 852.371 106.153Z" fill="url(#paint9_linear_1_136)"/>
<path d="M859.229 124.554L858.544 125.468C858.201 125.925 858.315 126.725 858.772 127.068C859.001 127.182 859.229 127.297 859.458 127.297C859.801 127.297 860.144 127.182 860.372 126.839L861.058 125.925C861.401 125.468 861.287 124.668 860.829 124.325C860.372 123.868 859.687 123.982 859.229 124.554Z" fill="url(#paint10_linear_1_136)"/>
<path d="M893.744 108.782C893.401 108.554 892.944 108.44 892.601 108.554C891.572 108.897 890.43 109.125 889.287 108.897C885.63 108.325 883.001 104.897 883.572 101.24C883.801 99.8681 884.372 98.6109 885.401 97.5824C885.744 97.2395 885.744 96.7824 885.63 96.4395C885.515 95.9824 885.058 95.7538 884.487 95.6395C881.744 95.1824 879.001 95.8681 876.715 97.2395C874.887 96.4395 872.83 95.9824 870.772 95.9824C862.544 95.8681 855.801 102.611 855.801 110.84C855.801 119.068 862.544 125.811 870.772 125.811C875.915 125.811 880.715 123.182 883.458 118.84C888.487 118.611 892.944 115.068 894.201 109.925C894.201 109.468 894.087 109.011 893.744 108.782ZM870.772 123.525C863.801 123.525 858.087 117.811 858.087 110.84C858.087 103.868 863.801 98.1538 870.772 98.1538C872.144 98.1538 873.401 98.3824 874.658 98.7252C872.83 100.44 871.687 102.725 871.23 105.354C870.315 111.64 874.544 117.468 880.715 118.497C878.315 121.697 874.658 123.525 870.772 123.525ZM881.401 116.44C876.258 115.64 872.715 110.954 873.401 105.811C874.087 101.24 877.858 97.9252 882.315 97.8109C881.744 98.7252 881.401 99.8681 881.287 101.011C880.601 105.925 884.03 110.497 888.944 111.297C889.744 111.411 890.43 111.411 891.23 111.297C889.515 114.84 885.515 117.011 881.401 116.44Z" fill="url(#paint11_linear_1_136)"/>
<path d="M881.972 124.554C881.629 124.097 880.943 123.982 880.372 124.325C879.915 124.668 879.8 125.468 880.143 125.925L880.829 126.839C881.058 127.182 881.4 127.297 881.743 127.297C881.972 127.297 882.2 127.182 882.429 127.068C882.886 126.725 883 125.925 882.658 125.468L881.972 124.554Z" fill="url(#paint12_linear_1_136)"/>
<path d="M870.658 127.411C869.972 127.411 869.515 127.868 869.515 128.554V129.696C869.515 130.382 869.972 130.839 870.658 130.839C871.344 130.839 871.801 130.382 871.801 129.696V128.554C871.801 127.868 871.23 127.411 870.658 127.411Z" fill="url(#paint13_linear_1_136)"/>
</g>
</g>
<path d="M817.147 151.514H812.587L811.747 153.839H810.307L814.087 143.444H815.662L819.427 153.839H817.987L817.147 151.514ZM816.757 150.404L814.867 145.124L812.977 150.404H816.757ZM824.134 152.579L826.684 145.619H828.139L824.914 153.839H823.324L820.099 145.619H821.569L824.134 152.579ZM828.973 149.699C828.973 148.859 829.143 148.124 829.483 147.494C829.823 146.854 830.288 146.359 830.878 146.009C831.478 145.659 832.143 145.484 832.873 145.484C833.593 145.484 834.218 145.639 834.748 145.949C835.278 146.259 835.673 146.649 835.933 147.119V145.619H837.313V153.839H835.933V152.309C835.663 152.789 835.258 153.189 834.718 153.509C834.188 153.819 833.568 153.974 832.858 153.974C832.128 153.974 831.468 153.794 830.878 153.434C830.288 153.074 829.823 152.569 829.483 151.919C829.143 151.269 828.973 150.529 828.973 149.699ZM835.933 149.714C835.933 149.094 835.808 148.554 835.558 148.094C835.308 147.634 834.968 147.284 834.538 147.044C834.118 146.794 833.653 146.669 833.143 146.669C832.633 146.669 832.168 146.789 831.748 147.029C831.328 147.269 830.993 147.619 830.743 148.079C830.493 148.539 830.368 149.079 830.368 149.699C830.368 150.329 830.493 150.879 830.743 151.349C830.993 151.809 831.328 152.164 831.748 152.414C832.168 152.654 832.633 152.774 833.143 152.774C833.653 152.774 834.118 152.654 834.538 152.414C834.968 152.164 835.308 151.809 835.558 151.349C835.808 150.879 835.933 150.334 835.933 149.714ZM840.324 144.284C840.064 144.284 839.844 144.194 839.664 144.014C839.484 143.834 839.394 143.614 839.394 143.354C839.394 143.094 839.484 142.874 839.664 142.694C839.844 142.514 840.064 142.424 840.324 142.424C840.574 142.424 840.784 142.514 840.954 142.694C841.134 142.874 841.224 143.094 841.224 143.354C841.224 143.614 841.134 143.834 840.954 144.014C840.784 144.194 840.574 144.284 840.324 144.284ZM840.984 145.619V153.839H839.619V145.619H840.984ZM844.676 142.739V153.839H843.311V142.739H844.676ZM846.492 149.699C846.492 148.859 846.662 148.124 847.002 147.494C847.342 146.854 847.807 146.359 848.397 146.009C848.997 145.659 849.662 145.484 850.392 145.484C851.112 145.484 851.737 145.639 852.267 145.949C852.797 146.259 853.192 146.649 853.452 147.119V145.619H854.832V153.839H853.452V152.309C853.182 152.789 852.777 153.189 852.237 153.509C851.707 153.819 851.087 153.974 850.377 153.974C849.647 153.974 848.987 153.794 848.397 153.434C847.807 153.074 847.342 152.569 847.002 151.919C846.662 151.269 846.492 150.529 846.492 149.699ZM853.452 149.714C853.452 149.094 853.327 148.554 853.077 148.094C852.827 147.634 852.487 147.284 852.057 147.044C851.637 146.794 851.172 146.669 850.662 146.669C850.152 146.669 849.687 146.789 849.267 147.029C848.847 147.269 848.512 147.619 848.262 148.079C848.012 148.539 847.887 149.079 847.887 149.699C847.887 150.329 848.012 150.879 848.262 151.349C848.512 151.809 848.847 152.164 849.267 152.414C849.687 152.654 850.152 152.774 850.662 152.774C851.172 152.774 851.637 152.654 852.057 152.414C852.487 152.164 852.827 151.809 853.077 151.349C853.327 150.879 853.452 150.334 853.452 149.714ZM858.504 147.149C858.784 146.659 859.194 146.259 859.734 145.949C860.274 145.639 860.889 145.484 861.579 145.484C862.319 145.484 862.984 145.659 863.574 146.009C864.164 146.359 864.629 146.854 864.969 147.494C865.309 148.124 865.479 148.859 865.479 149.699C865.479 150.529 865.309 151.269 864.969 151.919C864.629 152.569 864.159 153.074 863.559 153.434C862.969 153.794 862.309 153.974 861.579 153.974C860.869 153.974 860.244 153.819 859.704 153.509C859.174 153.199 858.774 152.804 858.504 152.324V153.839H857.139V142.739H858.504V147.149ZM864.084 149.699C864.084 149.079 863.959 148.539 863.709 148.079C863.459 147.619 863.119 147.269 862.689 147.029C862.269 146.789 861.804 146.669 861.294 146.669C860.794 146.669 860.329 146.794 859.899 147.044C859.479 147.284 859.139 147.639 858.879 148.109C858.629 148.569 858.504 149.104 858.504 149.714C858.504 150.334 858.629 150.879 858.879 151.349C859.139 151.809 859.479 152.164 859.899 152.414C860.329 152.654 860.794 152.774 861.294 152.774C861.804 152.774 862.269 152.654 862.689 152.414C863.119 152.164 863.459 151.809 863.709 151.349C863.959 150.879 864.084 150.329 864.084 149.699ZM868.641 142.739V153.839H867.276V142.739H868.641ZM878.467 149.414C878.467 149.674 878.452 149.949 878.422 150.239H871.852C871.902 151.049 872.177 151.684 872.677 152.144C873.187 152.594 873.802 152.819 874.522 152.819C875.112 152.819 875.602 152.684 875.992 152.414C876.392 152.134 876.672 151.764 876.832 151.304H878.302C878.082 152.094 877.642 152.739 876.982 153.239C876.322 153.729 875.502 153.974 874.522 153.974C873.742 153.974 873.042 153.799 872.422 153.449C871.812 153.099 871.332 152.604 870.982 151.964C870.632 151.314 870.457 150.564 870.457 149.714C870.457 148.864 870.627 148.119 870.967 147.479C871.307 146.839 871.782 146.349 872.392 146.009C873.012 145.659 873.722 145.484 874.522 145.484C875.302 145.484 875.992 145.654 876.592 145.994C877.192 146.334 877.652 146.804 877.972 147.404C878.302 147.994 878.467 148.664 878.467 149.414ZM877.057 149.129C877.057 148.609 876.942 148.164 876.712 147.794C876.482 147.414 876.167 147.129 875.767 146.939C875.377 146.739 874.942 146.639 874.462 146.639C873.772 146.639 873.182 146.859 872.692 147.299C872.212 147.739 871.937 148.349 871.867 149.129H877.057ZM885.633 147.149C885.913 146.659 886.323 146.259 886.863 145.949C887.403 145.639 888.018 145.484 888.708 145.484C889.448 145.484 890.113 145.659 890.703 146.009C891.293 146.359 891.758 146.854 892.098 147.494C892.438 148.124 892.608 148.859 892.608 149.699C892.608 150.529 892.438 151.269 892.098 151.919C891.758 152.569 891.288 153.074 890.688 153.434C890.098 153.794 889.438 153.974 888.708 153.974C887.998 153.974 887.373 153.819 886.833 153.509C886.303 153.199 885.903 152.804 885.633 152.324V153.839H884.268V142.739H885.633V147.149ZM891.213 149.699C891.213 149.079 891.088 148.539 890.838 148.079C890.588 147.619 890.248 147.269 889.818 147.029C889.398 146.789 888.933 146.669 888.423 146.669C887.923 146.669 887.458 146.794 887.028 147.044C886.608 147.284 886.268 147.639 886.008 148.109C885.758 148.569 885.633 149.104 885.633 149.714C885.633 150.334 885.758 150.879 886.008 151.349C886.268 151.809 886.608 152.164 887.028 152.414C887.458 152.654 887.923 152.774 888.423 152.774C888.933 152.774 889.398 152.654 889.818 152.414C890.248 152.164 890.588 151.809 890.838 151.349C891.088 150.879 891.213 150.329 891.213 149.699ZM897.99 153.974C897.22 153.974 896.52 153.799 895.89 153.449C895.27 153.099 894.78 152.604 894.42 151.964C894.07 151.314 893.895 150.564 893.895 149.714C893.895 148.874 894.075 148.134 894.435 147.494C894.805 146.844 895.305 146.349 895.935 146.009C896.565 145.659 897.27 145.484 898.05 145.484C898.83 145.484 899.535 145.659 900.165 146.009C900.795 146.349 901.29 146.839 901.65 147.479C902.02 148.119 902.205 148.864 902.205 149.714C902.205 150.564 902.015 151.314 901.635 151.964C901.265 152.604 900.76 153.099 900.12 153.449C899.48 153.799 898.77 153.974 897.99 153.974ZM897.99 152.774C898.48 152.774 898.94 152.659 899.37 152.429C899.8 152.199 900.145 151.854 900.405 151.394C900.675 150.934 900.81 150.374 900.81 149.714C900.81 149.054 900.68 148.494 900.42 148.034C900.16 147.574 899.82 147.234 899.4 147.014C898.98 146.784 898.525 146.669 898.035 146.669C897.535 146.669 897.075 146.784 896.655 147.014C896.245 147.234 895.915 147.574 895.665 148.034C895.415 148.494 895.29 149.054 895.29 149.714C895.29 150.384 895.41 150.949 895.65 151.409C895.9 151.869 896.23 152.214 896.64 152.444C897.05 152.664 897.5 152.774 897.99 152.774ZM905.664 146.744V151.589C905.664 151.989 905.749 152.274 905.919 152.444C906.089 152.604 906.384 152.684 906.804 152.684H907.809V153.839H906.579C905.819 153.839 905.249 153.664 904.869 153.314C904.489 152.964 904.299 152.389 904.299 151.589V146.744H903.234V145.619H904.299V143.549H905.664V145.619H907.809V146.744H905.664ZM913.543 145.469C914.163 145.469 914.723 145.604 915.223 145.874C915.723 146.134 916.113 146.529 916.393 147.059C916.683 147.589 916.828 148.234 916.828 148.994V153.839H915.478V149.189C915.478 148.369 915.273 147.744 914.863 147.314C914.453 146.874 913.893 146.654 913.183 146.654C912.463 146.654 911.888 146.879 911.458 147.329C911.038 147.779 910.828 148.434 910.828 149.294V153.839H909.463V142.739H910.828V146.789C911.098 146.369 911.468 146.044 911.938 145.814C912.418 145.584 912.953 145.469 913.543 145.469ZM923.762 144.284C923.502 144.284 923.282 144.194 923.102 144.014C922.922 143.834 922.832 143.614 922.832 143.354C922.832 143.094 922.922 142.874 923.102 142.694C923.282 142.514 923.502 142.424 923.762 142.424C924.012 142.424 924.222 142.514 924.392 142.694C924.572 142.874 924.662 143.094 924.662 143.354C924.662 143.614 924.572 143.834 924.392 144.014C924.222 144.194 924.012 144.284 923.762 144.284ZM924.422 145.619V153.839H923.057V145.619H924.422ZM930.753 145.469C931.753 145.469 932.563 145.774 933.183 146.384C933.803 146.984 934.113 147.854 934.113 148.994V153.839H932.763V149.189C932.763 148.369 932.558 147.744 932.148 147.314C931.738 146.874 931.178 146.654 930.468 146.654C929.748 146.654 929.173 146.879 928.743 147.329C928.323 147.779 928.113 148.434 928.113 149.294V153.839H926.748V145.619H928.113V146.789C928.383 146.369 928.748 146.044 929.208 145.814C929.678 145.584 930.193 145.469 930.753 145.469ZM809.681 166.384C810.821 166.384 811.806 166.599 812.636 167.029C813.476 167.449 814.116 168.054 814.556 168.844C815.006 169.634 815.231 170.564 815.231 171.634C815.231 172.704 815.006 173.634 814.556 174.424C814.116 175.204 813.476 175.804 812.636 176.224C811.806 176.634 810.821 176.839 809.681 176.839H806.426V166.384H809.681ZM809.681 175.714C811.031 175.714 812.061 175.359 812.771 174.649C813.481 173.929 813.836 172.924 813.836 171.634C813.836 170.334 813.476 169.319 812.756 168.589C812.046 167.859 811.021 167.494 809.681 167.494H807.791V175.714H809.681ZM816.521 172.699C816.521 171.859 816.691 171.124 817.031 170.494C817.371 169.854 817.836 169.359 818.426 169.009C819.026 168.659 819.691 168.484 820.421 168.484C821.141 168.484 821.766 168.639 822.296 168.949C822.826 169.259 823.221 169.649 823.481 170.119V168.619H824.861V176.839H823.481V175.309C823.211 175.789 822.806 176.189 822.266 176.509C821.736 176.819 821.116 176.974 820.406 176.974C819.676 176.974 819.016 176.794 818.426 176.434C817.836 176.074 817.371 175.569 817.031 174.919C816.691 174.269 816.521 173.529 816.521 172.699ZM823.481 172.714C823.481 172.094 823.356 171.554 823.106 171.094C822.856 170.634 822.516 170.284 822.086 170.044C821.666 169.794 821.201 169.669 820.691 169.669C820.181 169.669 819.716 169.789 819.296 170.029C818.876 170.269 818.541 170.619 818.291 171.079C818.041 171.539 817.916 172.079 817.916 172.699C817.916 173.329 818.041 173.879 818.291 174.349C818.541 174.809 818.876 175.164 819.296 175.414C819.716 175.654 820.181 175.774 820.691 175.774C821.201 175.774 821.666 175.654 822.086 175.414C822.516 175.164 822.856 174.809 823.106 174.349C823.356 173.879 823.481 173.334 823.481 172.714ZM828.533 169.954C828.773 169.484 829.113 169.119 829.553 168.859C830.003 168.599 830.548 168.469 831.188 168.469V169.879H830.828C829.298 169.879 828.533 170.709 828.533 172.369V176.839H827.168V168.619H828.533V169.954ZM837.354 176.839L834.129 173.209V176.839H832.764V165.739H834.129V172.264L837.294 168.619H839.199L835.329 172.714L839.214 176.839H837.354ZM852.508 176.839L851.143 175.459C850.633 175.989 850.088 176.384 849.508 176.644C848.928 176.894 848.273 177.019 847.543 177.019C846.823 177.019 846.183 176.889 845.623 176.629C845.073 176.369 844.643 175.999 844.333 175.519C844.033 175.039 843.883 174.479 843.883 173.839C843.883 173.109 844.088 172.469 844.498 171.919C844.918 171.359 845.533 170.919 846.343 170.599C846.023 170.219 845.793 169.869 845.653 169.549C845.513 169.229 845.443 168.879 845.443 168.499C845.443 168.059 845.553 167.664 845.773 167.314C846.003 166.954 846.328 166.674 846.748 166.474C847.168 166.274 847.653 166.174 848.203 166.174C848.743 166.174 849.213 166.279 849.613 166.489C850.013 166.699 850.313 166.994 850.513 167.374C850.713 167.744 850.803 168.159 850.783 168.619H849.418C849.428 168.209 849.313 167.889 849.073 167.659C848.833 167.419 848.523 167.299 848.143 167.299C847.743 167.299 847.418 167.414 847.168 167.644C846.928 167.864 846.808 168.149 846.808 168.499C846.808 168.799 846.888 169.089 847.048 169.369C847.218 169.649 847.498 169.994 847.888 170.404L851.008 173.539L851.278 173.119L852.298 171.409H853.768L852.538 173.539C852.368 173.839 852.168 174.154 851.938 174.484L854.293 176.839H852.508ZM847.543 175.849C848.083 175.849 848.568 175.744 848.998 175.534C849.438 175.324 849.853 174.999 850.243 174.559L847.168 171.469C845.888 171.959 845.248 172.734 845.248 173.794C845.248 174.384 845.458 174.874 845.878 175.264C846.308 175.654 846.863 175.849 847.543 175.849ZM860.936 175.729H864.596V176.839H859.571V166.384H860.936V175.729ZM866.75 167.284C866.49 167.284 866.27 167.194 866.09 167.014C865.91 166.834 865.82 166.614 865.82 166.354C865.82 166.094 865.91 165.874 866.09 165.694C866.27 165.514 866.49 165.424 866.75 165.424C867 165.424 867.21 165.514 867.38 165.694C867.56 165.874 867.65 166.094 867.65 166.354C867.65 166.614 867.56 166.834 867.38 167.014C867.21 167.194 867 167.284 866.75 167.284ZM867.41 168.619V176.839H866.045V168.619H867.41ZM873.127 168.484C873.837 168.484 874.457 168.639 874.987 168.949C875.527 169.259 875.927 169.649 876.187 170.119V168.619H877.567V177.019C877.567 177.769 877.407 178.434 877.087 179.014C876.767 179.604 876.307 180.064 875.707 180.394C875.117 180.724 874.427 180.889 873.637 180.889C872.557 180.889 871.657 180.634 870.937 180.124C870.217 179.614 869.792 178.919 869.662 178.039H871.012C871.162 178.539 871.472 178.939 871.942 179.239C872.412 179.549 872.977 179.704 873.637 179.704C874.387 179.704 874.997 179.469 875.467 178.999C875.947 178.529 876.187 177.869 876.187 177.019V175.294C875.917 175.774 875.517 176.174 874.987 176.494C874.457 176.814 873.837 176.974 873.127 176.974C872.397 176.974 871.732 176.794 871.132 176.434C870.542 176.074 870.077 175.569 869.737 174.919C869.397 174.269 869.227 173.529 869.227 172.699C869.227 171.859 869.397 171.124 869.737 170.494C870.077 169.854 870.542 169.359 871.132 169.009C871.732 168.659 872.397 168.484 873.127 168.484ZM876.187 172.714C876.187 172.094 876.062 171.554 875.812 171.094C875.562 170.634 875.222 170.284 874.792 170.044C874.372 169.794 873.907 169.669 873.397 169.669C872.887 169.669 872.422 169.789 872.002 170.029C871.582 170.269 871.247 170.619 870.997 171.079C870.747 171.539 870.622 172.079 870.622 172.699C870.622 173.329 870.747 173.879 870.997 174.349C871.247 174.809 871.582 175.164 872.002 175.414C872.422 175.654 872.887 175.774 873.397 175.774C873.907 175.774 874.372 175.654 874.792 175.414C875.222 175.164 875.562 174.809 875.812 174.349C876.062 173.879 876.187 173.334 876.187 172.714ZM883.953 168.469C884.573 168.469 885.133 168.604 885.633 168.874C886.133 169.134 886.523 169.529 886.803 170.059C887.093 170.589 887.238 171.234 887.238 171.994V176.839H885.888V172.189C885.888 171.369 885.683 170.744 885.273 170.314C884.863 169.874 884.303 169.654 883.593 169.654C882.873 169.654 882.298 169.879 881.868 170.329C881.448 170.779 881.238 171.434 881.238 172.294V176.839H879.873V165.739H881.238V169.789C881.508 169.369 881.878 169.044 882.348 168.814C882.828 168.584 883.363 168.469 883.953 168.469ZM891.133 169.744V174.589C891.133 174.989 891.218 175.274 891.388 175.444C891.558 175.604 891.853 175.684 892.273 175.684H893.278V176.839H892.048C891.288 176.839 890.718 176.664 890.338 176.314C889.958 175.964 889.768 175.389 889.768 174.589V169.744H888.703V168.619H889.768V166.549H891.133V168.619H893.278V169.744H891.133ZM909.536 166.459V176.839H908.171V169.099L904.721 176.839H903.761L900.296 169.084V176.839H898.931V166.459H900.401L904.241 175.039L908.081 166.459H909.536ZM915.436 176.974C914.666 176.974 913.966 176.799 913.336 176.449C912.716 176.099 912.226 175.604 911.866 174.964C911.516 174.314 911.341 173.564 911.341 172.714C911.341 171.874 911.521 171.134 911.881 170.494C912.251 169.844 912.751 169.349 913.381 169.009C914.011 168.659 914.716 168.484 915.496 168.484C916.276 168.484 916.981 168.659 917.611 169.009C918.241 169.349 918.736 169.839 919.096 170.479C919.466 171.119 919.651 171.864 919.651 172.714C919.651 173.564 919.461 174.314 919.081 174.964C918.711 175.604 918.206 176.099 917.566 176.449C916.926 176.799 916.216 176.974 915.436 176.974ZM915.436 175.774C915.926 175.774 916.386 175.659 916.816 175.429C917.246 175.199 917.591 174.854 917.851 174.394C918.121 173.934 918.256 173.374 918.256 172.714C918.256 172.054 918.126 171.494 917.866 171.034C917.606 170.574 917.266 170.234 916.846 170.014C916.426 169.784 915.971 169.669 915.481 169.669C914.981 169.669 914.521 169.784 914.101 170.014C913.691 170.234 913.361 170.574 913.111 171.034C912.861 171.494 912.736 172.054 912.736 172.714C912.736 173.384 912.856 173.949 913.096 174.409C913.346 174.869 913.676 175.214 914.086 175.444C914.496 175.664 914.946 175.774 915.436 175.774ZM920.936 172.699C920.936 171.859 921.106 171.124 921.446 170.494C921.786 169.854 922.251 169.359 922.841 169.009C923.441 168.659 924.111 168.484 924.851 168.484C925.491 168.484 926.086 168.634 926.636 168.934C927.186 169.224 927.606 169.609 927.896 170.089V165.739H929.276V176.839H927.896V175.294C927.626 175.784 927.226 176.189 926.696 176.509C926.166 176.819 925.546 176.974 924.836 176.974C924.106 176.974 923.441 176.794 922.841 176.434C922.251 176.074 921.786 175.569 921.446 174.919C921.106 174.269 920.936 173.529 920.936 172.699ZM927.896 172.714C927.896 172.094 927.771 171.554 927.521 171.094C927.271 170.634 926.931 170.284 926.501 170.044C926.081 169.794 925.616 169.669 925.106 169.669C924.596 169.669 924.131 169.789 923.711 170.029C923.291 170.269 922.956 170.619 922.706 171.079C922.456 171.539 922.331 172.079 922.331 172.699C922.331 173.329 922.456 173.879 922.706 174.349C922.956 174.809 923.291 175.164 923.711 175.414C924.131 175.654 924.596 175.774 925.106 175.774C925.616 175.774 926.081 175.654 926.501 175.414C926.931 175.164 927.271 174.809 927.521 174.349C927.771 173.879 927.896 173.334 927.896 172.714ZM939.082 172.414C939.082 172.674 939.067 172.949 939.037 173.239H932.467C932.517 174.049 932.792 174.684 933.292 175.144C933.802 175.594 934.417 175.819 935.137 175.819C935.727 175.819 936.217 175.684 936.607 175.414C937.007 175.134 937.287 174.764 937.447 174.304H938.917C938.697 175.094 938.257 175.739 937.597 176.239C936.937 176.729 936.117 176.974 935.137 176.974C934.357 176.974 933.657 176.799 933.037 176.449C932.427 176.099 931.947 175.604 931.597 174.964C931.247 174.314 931.072 173.564 931.072 172.714C931.072 171.864 931.242 171.119 931.582 170.479C931.922 169.839 932.397 169.349 933.007 169.009C933.627 168.659 934.337 168.484 935.137 168.484C935.917 168.484 936.607 168.654 937.207 168.994C937.807 169.334 938.267 169.804 938.587 170.404C938.917 170.994 939.082 171.664 939.082 172.414ZM937.672 172.129C937.672 171.609 937.557 171.164 937.327 170.794C937.097 170.414 936.782 170.129 936.382 169.939C935.992 169.739 935.557 169.639 935.077 169.639C934.387 169.639 933.797 169.859 933.307 170.299C932.827 170.739 932.552 171.349 932.482 172.129H937.672Z" fill="#D7C5C5"/>
<defs>
<filter id="filter0_d_1_136" x="0" y="124.839" width="41" height="41" filterUnits="userSpaceOnUse" color-interpolation-filters="sRGB">
<feFlood flood-opacity="0" result="BackgroundImageFix"/>
<feColorMatrix in="SourceAlpha" type="matrix" values="0 0 0 0 0 0 0 0 0 0 0 0 0 0 0 0 0 0 127 0" result="hardAlpha"/>
<feOffset dy="6"/>
<feGaussianBlur stdDeviation="4"/>
<feComposite in2="hardAlpha" operator="out"/>
<feColorMatrix type="matrix" values="0 0 0 0 0 0 0 0 0 0 0 0 0 0 0 0 0 0 0.07 0"/>
<feBlend mode="normal" in2="BackgroundImageFix" result="effect1_dropShadow_1_136"/>
<feBlend mode="normal" in="SourceGraphic" in2="effect1_dropShadow_1_136" result="shape"/>
</filter>
<filter id="filter1_d_1_136" x="128" y="89.8394" width="56.0002" height="56" filterUnits="userSpaceOnUse" color-interpolation-filters="sRGB">
<feFlood flood-opacity="0" result="BackgroundImageFix"/>
<feColorMatrix in="SourceAlpha" type="matrix" values="0 0 0 0 0 0 0 0 0 0 0 0 0 0 0 0 0 0 127 0" result="hardAlpha"/>
<feOffset dy="6"/>
<feGaussianBlur stdDeviation="4"/>
<feComposite in2="hardAlpha" operator="out"/>
<feColorMatrix type="matrix" values="0 0 0 0 0 0 0 0 0 0 0 0 0 0 0 0 0 0 0.07 0"/>
<feBlend mode="normal" in2="BackgroundImageFix" result="effect1_dropShadow_1_136"/>
<feBlend mode="normal" in="SourceGraphic" in2="effect1_dropShadow_1_136" result="shape"/>
</filter>
<filter id="filter2_d_1_136" x="358" y="124.839" width="41" height="41" filterUnits="userSpaceOnUse" color-interpolation-filters="sRGB">
<feFlood flood-opacity="0" result="BackgroundImageFix"/>
<feColorMatrix in="SourceAlpha" type="matrix" values="0 0 0 0 0 0 0 0 0 0 0 0 0 0 0 0 0 0 127 0" result="hardAlpha"/>
<feOffset dy="6"/>
<feGaussianBlur stdDeviation="4"/>
<feComposite in2="hardAlpha" operator="out"/>
<feColorMatrix type="matrix" values="0 0 0 0 0 0 0 0 0 0 0 0 0 0 0 0 0 0 0.07 0"/>
<feBlend mode="normal" in2="BackgroundImageFix" result="effect1_dropShadow_1_136"/>
<feBlend mode="normal" in="SourceGraphic" in2="effect1_dropShadow_1_136" result="shape"/>
</filter>
<filter id="filter3_d_1_136" x="486.5" y="88.8394" width="56" height="56" filterUnits="userSpaceOnUse" color-interpolation-filters="sRGB">
<feFlood flood-opacity="0" result="BackgroundImageFix"/>
<feColorMatrix in="SourceAlpha" type="matrix" values="0 0 0 0 0 0 0 0 0 0 0 0 0 0 0 0 0 0 127 0" result="hardAlpha"/>
<feOffset dy="6"/>
<feGaussianBlur stdDeviation="4"/>
<feComposite in2="hardAlpha" operator="out"/>
<feColorMatrix type="matrix" values="0 0 0 0 0 0 0 0 0 0 0 0 0 0 0 0 0 0 0.07 0"/>
<feBlend mode="normal" in2="BackgroundImageFix" result="effect1_dropShadow_1_136"/>
<feBlend mode="normal" in="SourceGraphic" in2="effect1_dropShadow_1_136" result="shape"/>
</filter>
<filter id="filter4_d_1_136" x="716" y="124.839" width="41" height="41" filterUnits="userSpaceOnUse" color-interpolation-filters="sRGB">
<feFlood flood-opacity="0" result="BackgroundImageFix"/>
<feColorMatrix in="SourceAlpha" type="matrix" values="0 0 0 0 0 0 0 0 0 0 0 0 0 0 0 0 0 0 127 0" result="hardAlpha"/>
<feOffset dy="6"/>
<feGaussianBlur stdDeviation="4"/>
<feComposite in2="hardAlpha" operator="out"/>
<feColorMatrix type="matrix" values="0 0 0 0 0 0 0 0 0 0 0 0 0 0 0 0 0 0 0.07 0"/>
<feBlend mode="normal" in2="BackgroundImageFix" result="effect1_dropShadow_1_136"/>
<feBlend mode="normal" in="SourceGraphic" in2="effect1_dropShadow_1_136" result="shape"/>
</filter>
<filter id="filter5_d_1_136" x="843.5" y="88.8394" width="58.701" height="56" filterUnits="userSpaceOnUse" color-interpolation-filters="sRGB">
<feFlood flood-opacity="0" result="BackgroundImageFix"/>
<feColorMatrix in="SourceAlpha" type="matrix" values="0 0 0 0 0 0 0 0 0 0 0 0 0 0 0 0 0 0 127 0" result="hardAlpha"/>
<feOffset dy="6"/>
<feGaussianBlur stdDeviation="4"/>
<feComposite in2="hardAlpha" operator="out"/>
<feColorMatrix type="matrix" values="0 0 0 0 0 0 0 0 0 0 0 0 0 0 0 0 0 0 0.07 0"/>
<feBlend mode="normal" in2="BackgroundImageFix" result="effect1_dropShadow_1_136"/>
<feBlend mode="normal" in="SourceGraphic" in2="effect1_dropShadow_1_136" result="shape"/>
</filter>
<linearGradient id="paint0_linear_1_136" x1="10.8842" y1="139.141" x2="29.83" y2="139.273" gradientUnits="userSpaceOnUse">
<stop stop-color="#1881BC"/>
<stop offset="1" stop-color="#59E5B3"/>
</linearGradient>
<linearGradient id="paint1_linear_1_136" x1="137.684" y1="111.462" x2="173.772" y2="111.712" gradientUnits="userSpaceOnUse">
<stop stop-color="#1881BC"/>
<stop offset="1" stop-color="#59E5B3"/>
</linearGradient>
<linearGradient id="paint2_linear_1_136" x1="368.884" y1="139.141" x2="387.83" y2="139.273" gradientUnits="userSpaceOnUse">
<stop stop-color="#1881BC"/>
<stop offset="1" stop-color="#59E5B3"/>
</linearGradient>
<linearGradient id="paint3_linear_1_136" x1="496.184" y1="110.462" x2="532.271" y2="110.712" gradientUnits="userSpaceOnUse">
<stop stop-color="#1881BC"/>
<stop offset="1" stop-color="#59E5B3"/>
</linearGradient>
<linearGradient id="paint4_linear_1_136" x1="497.912" y1="124.467" x2="503.686" y2="124.507" gradientUnits="userSpaceOnUse">
<stop stop-color="#1881BC"/>
<stop offset="1" stop-color="#59E5B3"/>
</linearGradient>
<linearGradient id="paint5_linear_1_136" x1="726.884" y1="139.141" x2="745.83" y2="139.273" gradientUnits="userSpaceOnUse">
<stop stop-color="#1881BC"/>
<stop offset="1" stop-color="#59E5B3"/>
</linearGradient>
<linearGradient id="paint6_linear_1_136" x1="858.467" y1="95.9669" x2="861.095" y2="95.9837" gradientUnits="userSpaceOnUse">
<stop stop-color="#1881BC"/>
<stop offset="1" stop-color="#59E5B3"/>
</linearGradient>
<linearGradient id="paint7_linear_1_136" x1="851.646" y1="116.461" x2="854.765" y2="116.489" gradientUnits="userSpaceOnUse">
<stop stop-color="#1881BC"/>
<stop offset="1" stop-color="#59E5B3"/>
</linearGradient>
<linearGradient id="paint8_linear_1_136" x1="869.612" y1="92.5213" x2="871.674" y2="92.5308" gradientUnits="userSpaceOnUse">
<stop stop-color="#1881BC"/>
<stop offset="1" stop-color="#59E5B3"/>
</linearGradient>
<linearGradient id="paint9_linear_1_136" x1="851.699" y1="105.235" x2="854.875" y2="105.264" gradientUnits="userSpaceOnUse">
<stop stop-color="#1881BC"/>
<stop offset="1" stop-color="#59E5B3"/>
</linearGradient>
<linearGradient id="paint10_linear_1_136" x1="858.467" y1="125.639" x2="861.095" y2="125.655" gradientUnits="userSpaceOnUse">
<stop stop-color="#1881BC"/>
<stop offset="1" stop-color="#59E5B3"/>
</linearGradient>
<linearGradient id="paint11_linear_1_136" x1="857.418" y1="110.369" x2="892.061" y2="110.673" gradientUnits="userSpaceOnUse">
<stop stop-color="#1881BC"/>
<stop offset="1" stop-color="#59E5B3"/>
</linearGradient>
<linearGradient id="paint12_linear_1_136" x1="880.067" y1="125.681" x2="882.695" y2="125.698" gradientUnits="userSpaceOnUse">
<stop stop-color="#1881BC"/>
<stop offset="1" stop-color="#59E5B3"/>
</linearGradient>
<linearGradient id="paint13_linear_1_136" x1="869.612" y1="129.093" x2="871.674" y2="129.102" gradientUnits="userSpaceOnUse">
<stop stop-color="#1881BC"/>
<stop offset="1" stop-color="#59E5B3"/>
</linearGradient>
<clipPath id="clip0_1_136">
<rect width="42" height="42" fill="white" transform="translate(134.5 90.8394)"/>
</clipPath>
<clipPath id="clip1_1_136">
<rect width="42" height="42" fill="white" transform="translate(493.5 89.8394)"/>
</clipPath>
<clipPath id="clip2_1_136">
<rect width="42" height="42" fill="white" transform="translate(851.5 89.8394)"/>
</clipPath>
</defs>
</svg>
