<svg width="44" height="45" viewBox="0 0 44 45" fill="none" xmlns="http://www.w3.org/2000/svg">
<path d="M8.57143 38.2679H15.4286V24.5536H29.1429V38.2679H36V17.6965L22.2857 7.41078L8.57143 17.6965V38.2679ZM8.57143 42.8394C7.31429 42.8394 6.23772 42.3914 5.34172 41.4954C4.44572 40.5994 3.99848 39.5235 4 38.2679V17.6965C4 16.9727 4.16229 16.287 4.48686 15.6394C4.81143 14.9917 5.25867 14.4584 5.82858 14.0394L19.5429 3.75364C19.9619 3.44888 20.4 3.22031 20.8571 3.06793C21.3143 2.91555 21.7905 2.83936 22.2857 2.83936C22.781 2.83936 23.2571 2.91555 23.7143 3.06793C24.1714 3.22031 24.6095 3.44888 25.0286 3.75364L38.7429 14.0394C39.3143 14.4584 39.7623 14.9917 40.0869 15.6394C40.4114 16.287 40.5729 16.9727 40.5714 17.6965V38.2679C40.5714 39.5251 40.1234 40.6016 39.2274 41.4976C38.3314 42.3936 37.2556 42.8409 36 42.8394H24.5714V29.1251H20V42.8394H8.57143Z" fill="url(#paint0_linear_1_67)"/>
<defs>
<linearGradient id="paint0_linear_1_67" x1="40.5714" y1="2.83932" x2="3.16988" y2="3.63119" gradientUnits="userSpaceOnUse">
<stop stop-color="#1881BC"/>
<stop offset="1" stop-color="#59E6B3"/>
</linearGradient>
</defs>
</svg>
