<svg width="447" height="122" viewBox="0 0 447 122" fill="none" xmlns="http://www.w3.org/2000/svg">
<path d="M132.454 108.109C132.454 115.524 102.803 121.534 66.227 121.534C29.6507 121.534 0 115.524 0 108.109C0 100.695 29.6507 94.6851 66.227 94.6851C102.803 94.6851 132.454 100.695 132.454 108.109Z" fill="url(#paint0_radial_1_16)" fill-opacity="0.3"/>
<path d="M33.6535 88.6472C31.9556 88.6472 30.5787 87.2898 30.5787 85.6159V72.8845H18.0747C16.7389 72.8845 15.5558 72.0339 15.1474 70.7802C14.7391 69.5264 15.1985 68.1557 16.2845 67.3888L65.8389 32.3968C66.9151 31.6365 68.364 31.6414 69.4358 32.4077L81.9577 41.3676L82.2376 28.9641C82.2751 27.2902 83.6833 25.9644 85.38 26.0007C87.0779 26.0377 88.4235 27.4248 88.386 29.0987L87.9758 47.2865C87.9506 48.4135 87.2925 49.4338 86.268 49.9346C85.2435 50.4354 84.0216 50.3341 83.096 49.6721L67.6186 38.5976L27.6496 66.8213H33.6554C35.3533 66.8213 36.7302 68.1787 36.7302 69.8526V85.6153C36.7302 87.2892 35.3533 88.6466 33.6554 88.6466L33.6535 88.6472Z" fill="url(#paint1_linear_1_16)"/>
<path d="M102.781 88.5544C101.098 88.5544 99.7342 87.197 99.7342 85.5231V69.1539C99.7342 67.48 101.098 66.1226 102.781 66.1226H106.246L91.7014 56.0841C90.8806 55.5178 90.3914 54.5872 90.3914 53.5935V28.9386C90.3914 27.2647 91.7556 25.9072 93.438 25.9072C95.1204 25.9072 96.4846 27.2647 96.4846 28.9386V52.007L117.72 66.6634C118.814 67.4188 119.289 68.7944 118.891 70.0591C118.493 71.3244 117.315 72.1853 115.983 72.1853H105.827V85.5231C105.827 87.197 104.463 88.5544 102.781 88.5544Z" fill="url(#paint2_linear_1_16)"/>
<path d="M80.5021 15.8646L77.5668 12.8594C78.9413 11.485 80.5547 10.3961 82.4073 9.59287C84.2598 8.78962 86.2572 8.38753 88.3995 8.3866C90.5427 8.3866 92.5406 8.79428 94.3931 9.60964C96.2456 10.425 97.8586 11.5316 99.2322 12.9293L96.2969 15.8646C95.2718 14.8396 94.0837 14.0359 92.7325 13.4535C91.3814 12.8711 89.937 12.5799 88.3995 12.5799C86.8619 12.5799 85.4176 12.8711 84.0664 13.4535C82.7152 14.0359 81.5271 14.8396 80.5021 15.8646ZM74.5616 9.92414L71.6263 6.98883C73.7695 4.799 76.2739 3.08673 79.1393 1.85204C82.0047 0.617346 85.0914 0 88.3995 0C91.7075 0 94.7943 0.617346 97.6597 1.85204C100.525 3.08673 103.029 4.799 105.173 6.98883L102.237 9.92414C100.444 8.13034 98.3641 6.72652 95.9991 5.71267C93.6341 4.69882 91.1009 4.19237 88.3995 4.1933C85.6971 4.1933 83.1634 4.70022 80.7984 5.71407C78.4334 6.72791 76.3545 8.13127 74.5616 9.92414ZM88.3995 23.762L93.3266 18.8C92.6976 18.171 91.9638 17.6757 91.1251 17.3141C90.2865 16.9526 89.3779 16.7723 88.3995 16.7732C87.421 16.7732 86.5125 16.954 85.6738 17.3155C84.8352 17.6771 84.1013 18.1719 83.4723 18.8L88.3995 23.762Z" fill="url(#paint3_linear_1_16)"/>
<path d="M139.515 51.2423H141.955V53.7954H134.071V51.2423H136.436V37.5755H134.071V35.0224H139.515V51.2423ZM137.975 28.1139C138.501 28.1139 138.939 28.3142 139.29 28.7146C139.665 29.0901 139.853 29.5532 139.853 30.1039C139.853 30.6295 139.665 31.0801 139.29 31.4555C138.939 31.8059 138.489 31.9812 137.938 31.9812C137.412 31.9812 136.962 31.8059 136.586 31.4555C136.236 31.0801 136.061 30.6295 136.061 30.1039C136.061 29.5532 136.248 29.0901 136.624 28.7146C136.999 28.3142 137.45 28.1139 137.975 28.1139Z" fill="#1A84B9"/>
<path d="M163.274 51.2423V53.7954H156.028V51.2423H157.83V37.3502L150.358 42.0435V51.2423H152.198V53.7954H144.952V51.2423H147.317V28.189H144.952V25.6359H150.358V39.0023L156.591 35.0975C157.067 34.7971 157.63 34.6469 158.281 34.6469C158.931 34.6469 159.52 34.9097 160.045 35.4354C160.596 35.936 160.871 36.6619 160.871 37.6131V51.2423H163.274ZM169.783 53.7954C168.507 53.7954 167.605 53.5076 167.08 52.9319C166.554 52.3311 166.291 51.5051 166.291 50.4538V38.364C166.291 37.3628 166.517 36.5618 166.967 35.961C167.443 35.3353 168.381 35.0224 169.783 35.0224H176.729C178.106 35.0224 179.032 35.3353 179.508 35.961C179.983 36.5618 180.221 37.3628 180.221 38.364V50.4538C180.221 51.5051 179.958 52.3311 179.432 52.9319C178.907 53.5076 178.006 53.7954 176.729 53.7954H169.783ZM169.333 51.2423H177.18V37.5755H169.333V51.2423ZM205.571 34.6469C207.523 34.6469 208.5 35.6106 208.5 37.538V51.2423H210.902V53.7954H203.656V51.2423H205.458V37.2751L198.587 41.5554V51.2423H200.427V53.7954H193.706V51.2423H195.509L195.546 51.0921V37.2376L188.638 41.5554V51.2423H190.477V53.7954H183.231V51.2423H185.596V37.538H183.231V35.0224H188.638V38.5893L194.307 35.0224C194.708 34.7721 195.158 34.6469 195.659 34.6469C197.611 34.6469 198.587 35.6106 198.587 37.538V38.5517L204.219 35.0224C204.62 34.7721 205.07 34.6469 205.571 34.6469ZM214.296 38.7019C214.296 36.2239 215.585 34.9848 218.163 34.9848H224.509C225.735 34.9848 226.624 35.2226 227.174 35.6982C227.725 36.1738 228 37.0499 228 38.3264V41.8182L217.3 48.5765V51.2423H225.034V49.0646H228V51.0545C228 51.8055 227.763 52.4563 227.287 53.0069C226.836 53.5326 226.073 53.7954 224.997 53.7954H217.3C216.223 53.7954 215.447 53.5326 214.972 53.0069C214.521 52.4563 214.296 51.8055 214.296 51.0545V38.7019ZM217.3 45.5353L224.997 40.6918V37.5755H217.3V45.5353Z" fill="#333333"/>
<path d="M136.716 81.7049C136.015 81.7049 135.386 81.5881 134.83 81.3544C134.274 81.1097 133.834 80.776 133.512 80.3532C133.189 79.9193 133.011 79.4243 132.978 78.8681H134.546C134.591 79.3242 134.802 79.6969 135.18 79.9861C135.57 80.2753 136.076 80.42 136.699 80.42C137.277 80.42 137.733 80.292 138.067 80.0362C138.401 79.7803 138.568 79.4577 138.568 79.0683C138.568 78.6678 138.39 78.373 138.034 78.1839C137.678 77.9836 137.127 77.789 136.382 77.5998C135.703 77.4218 135.147 77.2438 134.713 77.0658C134.29 76.8767 133.923 76.6042 133.612 76.2482C133.311 75.8811 133.161 75.4027 133.161 74.8131C133.161 74.3458 133.3 73.9175 133.578 73.5282C133.857 73.1388 134.251 72.8329 134.763 72.6104C135.275 72.3768 135.859 72.26 136.515 72.26C137.528 72.26 138.345 72.5158 138.968 73.0276C139.591 73.5393 139.925 74.2402 139.97 75.1301H138.451C138.418 74.6518 138.223 74.268 137.867 73.9787C137.522 73.6895 137.055 73.5449 136.465 73.5449C135.92 73.5449 135.486 73.6617 135.164 73.8953C134.841 74.1289 134.68 74.4348 134.68 74.8131C134.68 75.1135 134.774 75.3638 134.963 75.564C135.164 75.7531 135.408 75.9089 135.698 76.0312C135.998 76.1425 136.41 76.2704 136.933 76.4151C137.589 76.593 138.123 76.771 138.534 76.949C138.946 77.1159 139.297 77.3718 139.586 77.7166C139.886 78.0615 140.042 78.5121 140.053 79.0683C140.053 79.5689 139.914 80.0195 139.636 80.42C139.358 80.8205 138.963 81.1375 138.451 81.3711C137.95 81.5936 137.372 81.7049 136.716 81.7049ZM153.193 72.2433C153.905 72.2433 154.54 72.3935 155.096 72.6938C155.652 72.9831 156.091 73.4225 156.414 74.0121C156.737 74.6017 156.898 75.3193 156.898 76.1647V81.5547H155.396V76.3817C155.396 75.4694 155.168 74.7741 154.712 74.2958C154.267 73.8063 153.661 73.5616 152.893 73.5616C152.103 73.5616 151.475 73.8174 151.007 74.3292C150.54 74.8298 150.307 75.5584 150.307 76.5152V81.5547H148.805V76.3817C148.805 75.4694 148.577 74.7741 148.121 74.2958C147.676 73.8063 147.069 73.5616 146.302 73.5616C145.512 73.5616 144.883 73.8174 144.416 74.3292C143.949 74.8298 143.715 75.5584 143.715 76.5152V81.5547H142.197V72.4101H143.715V73.7284C144.016 73.2501 144.416 72.8829 144.917 72.6271C145.428 72.3712 145.99 72.2433 146.602 72.2433C147.37 72.2433 148.048 72.4157 148.638 72.7606C149.227 73.1054 149.667 73.6116 149.956 74.2791C150.212 73.6339 150.635 73.1332 151.224 72.7773C151.814 72.4213 152.47 72.2433 153.193 72.2433ZM158.822 76.949C158.822 76.0146 159.011 75.1969 159.389 74.496C159.767 73.784 160.284 73.2334 160.941 72.844C161.608 72.4546 162.348 72.26 163.16 72.26C163.961 72.26 164.657 72.4324 165.246 72.7773C165.836 73.1221 166.275 73.556 166.564 74.0789V72.4101H168.1V81.5547H166.564V79.8526C166.264 80.3866 165.813 80.8316 165.213 81.1876C164.623 81.5324 163.933 81.7049 163.144 81.7049C162.331 81.7049 161.597 81.5046 160.941 81.1041C160.284 80.7036 159.767 80.1418 159.389 79.4187C159.011 78.6956 158.822 77.8724 158.822 76.949ZM166.564 76.9657C166.564 76.276 166.425 75.6753 166.147 75.1635C165.869 74.6518 165.491 74.2624 165.013 73.9954C164.545 73.7173 164.028 73.5782 163.461 73.5782C162.893 73.5782 162.376 73.7117 161.909 73.9787C161.441 74.2457 161.069 74.6351 160.791 75.1468C160.513 75.6586 160.373 76.2593 160.373 76.949C160.373 77.6499 160.513 78.2618 160.791 78.7846C161.069 79.2964 161.441 79.6913 161.909 79.9694C162.376 80.2364 162.893 80.3699 163.461 80.3699C164.028 80.3699 164.545 80.2364 165.013 79.9694C165.491 79.6913 165.869 79.2964 166.147 78.7846C166.425 78.2618 166.564 77.6555 166.564 76.9657ZM172.184 73.8953C172.451 73.3724 172.83 72.9664 173.319 72.6771C173.82 72.3879 174.426 72.2433 175.138 72.2433V73.8119H174.737C173.035 73.8119 172.184 74.7352 172.184 76.5819V81.5547H170.666V72.4101H172.184V73.8953ZM178.743 73.6617V79.0516C178.743 79.4966 178.838 79.8137 179.027 80.0028C179.216 80.1808 179.544 80.2698 180.011 80.2698H181.129V81.5547H179.761C178.916 81.5547 178.281 81.36 177.859 80.9706C177.436 80.5813 177.225 79.9416 177.225 79.0516V73.6617H176.04V72.4101H177.225V70.1073H178.743V72.4101H181.129V73.6617H178.743ZM191.957 72.2433C192.647 72.2433 193.27 72.3935 193.826 72.6938C194.382 72.9831 194.816 73.4225 195.128 74.0121C195.45 74.6017 195.612 75.3193 195.612 76.1647V81.5547H194.11V76.3817C194.11 75.4694 193.882 74.7741 193.425 74.2958C192.969 73.8063 192.346 73.5616 191.557 73.5616C190.756 73.5616 190.116 73.8119 189.638 74.3125C189.17 74.8131 188.937 75.5418 188.937 76.4985V81.5547H187.418V69.2062H188.937V73.7117C189.237 73.2445 189.649 72.8829 190.171 72.6271C190.705 72.3712 191.301 72.2433 191.957 72.2433ZM202.08 81.7049C201.224 81.7049 200.445 81.5102 199.744 81.1208C199.054 80.7315 198.509 80.1808 198.109 79.4688C197.719 78.7457 197.525 77.9113 197.525 76.9657C197.525 76.0312 197.725 75.208 198.125 74.496C198.537 73.7729 199.093 73.2222 199.794 72.844C200.495 72.4546 201.279 72.26 202.147 72.26C203.015 72.26 203.799 72.4546 204.5 72.844C205.201 73.2222 205.751 73.7674 206.152 74.4793C206.564 75.1913 206.769 76.0201 206.769 76.9657C206.769 77.9113 206.558 78.7457 206.135 79.4688C205.724 80.1808 205.162 80.7315 204.45 81.1208C203.738 81.5102 202.948 81.7049 202.08 81.7049ZM202.08 80.3699C202.625 80.3699 203.137 80.242 203.615 79.9861C204.094 79.7302 204.478 79.3464 204.767 78.8347C205.067 78.3229 205.217 77.7 205.217 76.9657C205.217 76.2315 205.073 75.6085 204.784 75.0968C204.494 74.585 204.116 74.2068 203.649 73.962C203.182 73.7062 202.675 73.5782 202.13 73.5782C201.574 73.5782 201.062 73.7062 200.595 73.962C200.139 74.2068 199.772 74.585 199.494 75.0968C199.216 75.6085 199.077 76.2315 199.077 76.9657C199.077 77.7111 199.21 78.3396 199.477 78.8514C199.755 79.3631 200.122 79.7469 200.578 80.0028C201.035 80.2475 201.535 80.3699 202.08 80.3699ZM219.763 72.2433C220.475 72.2433 221.109 72.3935 221.665 72.6938C222.221 72.9831 222.661 73.4225 222.983 74.0121C223.306 74.6017 223.467 75.3193 223.467 76.1647V81.5547H221.965V76.3817C221.965 75.4694 221.737 74.7741 221.281 74.2958C220.836 73.8063 220.23 73.5616 219.462 73.5616C218.673 73.5616 218.044 73.8174 217.577 74.3292C217.109 74.8298 216.876 75.5584 216.876 76.5152V81.5547H215.374V76.3817C215.374 75.4694 215.146 74.7741 214.69 74.2958C214.245 73.8063 213.639 73.5616 212.871 73.5616C212.081 73.5616 211.453 73.8174 210.985 74.3292C210.518 74.8298 210.284 75.5584 210.284 76.5152V81.5547H208.766V72.4101H210.284V73.7284C210.585 73.2501 210.985 72.8829 211.486 72.6271C211.998 72.3712 212.559 72.2433 213.171 72.2433C213.939 72.2433 214.618 72.4157 215.207 72.7606C215.797 73.1054 216.236 73.6116 216.525 74.2791C216.781 73.6339 217.204 73.1332 217.794 72.7773C218.383 72.4213 219.04 72.2433 219.763 72.2433ZM234.302 76.632C234.302 76.9212 234.285 77.2272 234.252 77.5498H226.943C226.998 78.4509 227.304 79.1573 227.861 79.669C228.428 80.1697 229.112 80.42 229.913 80.42C230.569 80.42 231.115 80.2698 231.548 79.9694C231.993 79.6579 232.305 79.2463 232.483 78.7346H234.118C233.873 79.6134 233.384 80.331 232.65 80.8872C231.916 81.4323 231.003 81.7049 229.913 81.7049C229.045 81.7049 228.267 81.5102 227.577 81.1208C226.898 80.7315 226.364 80.1808 225.975 79.4688C225.586 78.7457 225.391 77.9113 225.391 76.9657C225.391 76.0201 225.58 75.1913 225.958 74.4793C226.336 73.7674 226.865 73.2222 227.543 72.844C228.233 72.4546 229.023 72.26 229.913 72.26C230.781 72.26 231.548 72.4491 232.216 72.8273C232.883 73.2056 233.395 73.7284 233.751 74.3959C234.118 75.0523 234.302 75.7976 234.302 76.632ZM232.733 76.3149C232.733 75.7364 232.605 75.2414 232.349 74.8298C232.094 74.407 231.743 74.09 231.298 73.8786C230.864 73.6561 230.38 73.5449 229.846 73.5449C229.079 73.5449 228.422 73.7896 227.877 74.2791C227.343 74.7686 227.037 75.4472 226.959 76.3149H232.733ZM251.752 72.2433C252.464 72.2433 253.098 72.3935 253.654 72.6938C254.21 72.9831 254.65 73.4225 254.972 74.0121C255.295 74.6017 255.456 75.3193 255.456 76.1647V81.5547H253.955V76.3817C253.955 75.4694 253.726 74.7741 253.27 74.2958C252.825 73.8063 252.219 73.5616 251.451 73.5616C250.662 73.5616 250.033 73.8174 249.566 74.3292C249.099 74.8298 248.865 75.5584 248.865 76.5152V81.5547H247.363V76.3817C247.363 75.4694 247.135 74.7741 246.679 74.2958C246.234 73.8063 245.628 73.5616 244.86 73.5616C244.07 73.5616 243.442 73.8174 242.974 74.3292C242.507 74.8298 242.274 75.5584 242.274 76.5152V81.5547H240.755V72.4101H242.274V73.7284C242.574 73.2501 242.974 72.8829 243.475 72.6271C243.987 72.3712 244.549 72.2433 245.16 72.2433C245.928 72.2433 246.607 72.4157 247.196 72.7606C247.786 73.1054 248.225 73.6116 248.515 74.2791C248.77 73.6339 249.193 73.1332 249.783 72.7773C250.372 72.4213 251.029 72.2433 251.752 72.2433ZM261.936 81.7049C261.079 81.7049 260.3 81.5102 259.599 81.1208C258.91 80.7315 258.365 80.1808 257.964 79.4688C257.575 78.7457 257.38 77.9113 257.38 76.9657C257.38 76.0312 257.58 75.208 257.981 74.496C258.392 73.7729 258.949 73.2222 259.649 72.844C260.35 72.4546 261.135 72.26 262.002 72.26C262.87 72.26 263.654 72.4546 264.355 72.844C265.056 73.2222 265.607 73.7674 266.007 74.4793C266.419 75.1913 266.625 76.0201 266.625 76.9657C266.625 77.9113 266.413 78.7457 265.991 79.4688C265.579 80.1808 265.017 80.7315 264.305 81.1208C263.593 81.5102 262.803 81.7049 261.936 81.7049ZM261.936 80.3699C262.481 80.3699 262.992 80.242 263.471 79.9861C263.949 79.7302 264.333 79.3464 264.622 78.8347C264.923 78.3229 265.073 77.7 265.073 76.9657C265.073 76.2315 264.928 75.6085 264.639 75.0968C264.35 74.585 263.971 74.2068 263.504 73.962C263.037 73.7062 262.531 73.5782 261.986 73.5782C261.429 73.5782 260.918 73.7062 260.45 73.962C259.994 74.2068 259.627 74.585 259.349 75.0968C259.071 75.6085 258.932 76.2315 258.932 76.9657C258.932 77.7111 259.065 78.3396 259.332 78.8514C259.61 79.3631 259.978 79.7469 260.434 80.0028C260.89 80.2475 261.39 80.3699 261.936 80.3699ZM270.14 74.1122C270.451 73.5671 270.907 73.1221 271.508 72.7773C272.109 72.4324 272.793 72.26 273.561 72.26C274.384 72.26 275.124 72.4546 275.78 72.844C276.436 73.2334 276.954 73.784 277.332 74.496C277.71 75.1969 277.899 76.0146 277.899 76.949C277.899 77.8724 277.71 78.6956 277.332 79.4187C276.954 80.1418 276.431 80.7036 275.763 81.1041C275.107 81.5046 274.373 81.7049 273.561 81.7049C272.771 81.7049 272.075 81.5324 271.475 81.1876C270.885 80.8427 270.44 80.4033 270.14 79.8693V81.5547H268.621V69.2062H270.14V74.1122ZM276.347 76.949C276.347 76.2593 276.208 75.6586 275.93 75.1468C275.652 74.6351 275.274 74.2457 274.795 73.9787C274.328 73.7117 273.811 73.5782 273.244 73.5782C272.687 73.5782 272.17 73.7173 271.692 73.9954C271.224 74.2624 270.846 74.6573 270.557 75.1802C270.279 75.6919 270.14 76.2871 270.14 76.9657C270.14 77.6555 270.279 78.2618 270.557 78.7846C270.846 79.2964 271.224 79.6913 271.692 79.9694C272.17 80.2364 272.687 80.3699 273.244 80.3699C273.811 80.3699 274.328 80.2364 274.795 79.9694C275.274 79.6913 275.652 79.2964 275.93 78.7846C276.208 78.2618 276.347 77.6499 276.347 76.949ZM280.682 70.925C280.393 70.925 280.148 70.8249 279.948 70.6246C279.748 70.4244 279.648 70.1796 279.648 69.8904C279.648 69.6011 279.748 69.3564 279.948 69.1561C280.148 68.9559 280.393 68.8558 280.682 68.8558C280.96 68.8558 281.194 68.9559 281.383 69.1561C281.583 69.3564 281.684 69.6011 281.684 69.8904C281.684 70.1796 281.583 70.4244 281.383 70.6246C281.194 70.8249 280.96 70.925 280.682 70.925ZM281.417 72.4101V81.5547H279.898V72.4101H281.417ZM285.523 69.2062V81.5547H284.005V69.2062H285.523ZM296.455 76.632C296.455 76.9212 296.438 77.2272 296.405 77.5498H289.096C289.151 78.4509 289.457 79.1573 290.014 79.669C290.581 80.1697 291.265 80.42 292.066 80.42C292.722 80.42 293.268 80.2698 293.701 79.9694C294.146 79.6579 294.458 79.2463 294.636 78.7346H296.271C296.027 79.6134 295.537 80.331 294.803 80.8872C294.069 81.4323 293.156 81.7049 292.066 81.7049C291.198 81.7049 290.42 81.5102 289.73 81.1208C289.051 80.7315 288.517 80.1808 288.128 79.4688C287.739 78.7457 287.544 77.9113 287.544 76.9657C287.544 76.0201 287.733 75.1913 288.111 74.4793C288.49 73.7674 289.018 73.2222 289.697 72.844C290.386 72.4546 291.176 72.26 292.066 72.26C292.934 72.26 293.701 72.4491 294.369 72.8273C295.036 73.2056 295.548 73.7284 295.904 74.3959C296.271 75.0523 296.455 75.7976 296.455 76.632ZM294.886 76.3149C294.886 75.7364 294.758 75.2414 294.502 74.8298C294.247 74.407 293.896 74.09 293.451 73.8786C293.017 73.6561 292.533 73.5449 291.999 73.5449C291.232 73.5449 290.575 73.7896 290.03 74.2791C289.496 74.7686 289.19 75.4472 289.112 76.3149H294.886ZM302.341 76.949C302.341 76.0146 302.53 75.1969 302.908 74.496C303.286 73.784 303.804 73.2334 304.46 72.844C305.127 72.4546 305.867 72.26 306.679 72.26C307.48 72.26 308.176 72.4324 308.765 72.7773C309.355 73.1221 309.794 73.556 310.084 74.0789V72.4101H311.619V81.5547H310.084V79.8526C309.783 80.3866 309.333 80.8316 308.732 81.1876C308.142 81.5324 307.453 81.7049 306.663 81.7049C305.851 81.7049 305.116 81.5046 304.46 81.1041C303.804 80.7036 303.286 80.1418 302.908 79.4187C302.53 78.6956 302.341 77.8724 302.341 76.949ZM310.084 76.9657C310.084 76.276 309.944 75.6753 309.666 75.1635C309.388 74.6518 309.01 74.2624 308.532 73.9954C308.064 73.7173 307.547 73.5782 306.98 73.5782C306.412 73.5782 305.895 73.7117 305.428 73.9787C304.961 74.2457 304.588 74.6351 304.31 75.1468C304.032 75.6586 303.893 76.2593 303.893 76.949C303.893 77.6499 304.032 78.2618 304.31 78.7846C304.588 79.2964 304.961 79.6913 305.428 79.9694C305.895 80.2364 306.412 80.3699 306.98 80.3699C307.547 80.3699 308.064 80.2364 308.532 79.9694C309.01 79.6913 309.388 79.2964 309.666 78.7846C309.944 78.2618 310.084 77.6555 310.084 76.9657ZM315.703 74.0955C316.004 73.5727 316.449 73.1388 317.038 72.7939C317.639 72.438 318.334 72.26 319.124 72.26C319.936 72.26 320.671 72.4546 321.327 72.844C321.994 73.2334 322.517 73.784 322.896 74.496C323.274 75.1969 323.463 76.0146 323.463 76.949C323.463 77.8724 323.274 78.6956 322.896 79.4187C322.517 80.1418 321.994 80.7036 321.327 81.1041C320.671 81.5046 319.936 81.7049 319.124 81.7049C318.346 81.7049 317.656 81.5324 317.055 81.1876C316.465 80.8316 316.015 80.3922 315.703 79.8693V85.8933H314.185V72.4101H315.703V74.0955ZM321.911 76.949C321.911 76.2593 321.772 75.6586 321.494 75.1468C321.216 74.6351 320.838 74.2457 320.359 73.9787C319.892 73.7117 319.375 73.5782 318.807 73.5782C318.251 73.5782 317.734 73.7173 317.255 73.9954C316.788 74.2624 316.41 74.6573 316.121 75.1802C315.843 75.6919 315.703 76.2871 315.703 76.9657C315.703 77.6555 315.843 78.2618 316.121 78.7846C316.41 79.2964 316.788 79.6913 317.255 79.9694C317.734 80.2364 318.251 80.3699 318.807 80.3699C319.375 80.3699 319.892 80.2364 320.359 79.9694C320.838 79.6913 321.216 79.2964 321.494 78.7846C321.772 78.2618 321.911 77.6499 321.911 76.949ZM326.98 74.0955C327.281 73.5727 327.726 73.1388 328.315 72.7939C328.916 72.438 329.611 72.26 330.401 72.26C331.213 72.26 331.947 72.4546 332.604 72.844C333.271 73.2334 333.794 73.784 334.172 74.496C334.551 75.1969 334.74 76.0146 334.74 76.949C334.74 77.8724 334.551 78.6956 334.172 79.4187C333.794 80.1418 333.271 80.7036 332.604 81.1041C331.947 81.5046 331.213 81.7049 330.401 81.7049C329.622 81.7049 328.933 81.5324 328.332 81.1876C327.742 80.8316 327.292 80.3922 326.98 79.8693V85.8933H325.462V72.4101H326.98V74.0955ZM333.188 76.949C333.188 76.2593 333.049 75.6586 332.771 75.1468C332.493 74.6351 332.114 74.2457 331.636 73.9787C331.169 73.7117 330.651 73.5782 330.084 73.5782C329.528 73.5782 329.011 73.7173 328.532 73.9954C328.065 74.2624 327.687 74.6573 327.397 75.1802C327.119 75.6919 326.98 76.2871 326.98 76.9657C326.98 77.6555 327.119 78.2618 327.397 78.7846C327.687 79.2964 328.065 79.6913 328.532 79.9694C329.011 80.2364 329.528 80.3699 330.084 80.3699C330.651 80.3699 331.169 80.2364 331.636 79.9694C332.114 79.6913 332.493 79.2964 332.771 78.7846C333.049 78.2618 333.188 77.6499 333.188 76.949Z" fill="#333333"/>
<defs>
<radialGradient id="paint0_radial_1_16" cx="0" cy="0" r="1" gradientUnits="userSpaceOnUse" gradientTransform="translate(66.227 107.16) scale(61.8279 11.2695)">
<stop offset="0.02" stop-color="#717070"/>
<stop offset="0.26" stop-color="#A3A2A2"/>
<stop offset="0.49" stop-color="#CBCACA"/>
<stop offset="0.69" stop-color="#E7E7E7"/>
<stop offset="0.87" stop-color="#F8F8F8"/>
<stop offset="1" stop-color="white"/>
</radialGradient>
<linearGradient id="paint1_linear_1_16" x1="51.6934" y1="26" x2="51.6934" y2="88.6472" gradientUnits="userSpaceOnUse">
<stop stop-color="#1881BC"/>
<stop offset="1" stop-color="#59E6B3"/>
</linearGradient>
<linearGradient id="paint2_linear_1_16" x1="104.711" y1="25.9072" x2="104.711" y2="88.5544" gradientUnits="userSpaceOnUse">
<stop stop-color="#1881BC"/>
<stop offset="1" stop-color="#59E6B3"/>
</linearGradient>
<linearGradient id="paint3_linear_1_16" x1="88.3995" y1="0" x2="88.3995" y2="23.762" gradientUnits="userSpaceOnUse">
<stop stop-color="#1881BC"/>
<stop offset="1" stop-color="#59E6B3"/>
</linearGradient>
</defs>
</svg>
