<svg width="44" height="45" viewBox="0 0 44 45" fill="none" xmlns="http://www.w3.org/2000/svg">
<path d="M8.63636 39.7089V35.8419H11.6909L15.4614 23.1291C15.7159 22.2913 16.1855 21.6223 16.8703 21.1221C17.555 20.622 18.3104 20.3726 19.1364 20.3739H24.8636C25.6909 20.3739 26.4469 20.6239 27.1316 21.1241C27.8164 21.6242 28.2854 22.2926 28.5386 23.1291L32.3091 35.8419H35.3636V39.7089H8.63636ZM15.7 35.8419H28.3L24.8636 24.2409H19.1364L15.7 35.8419ZM20.0909 16.5069V6.83936H23.9091V16.5069H20.0909ZM31.45 21.2923L28.7295 18.5371L35.5068 11.7215L38.1795 14.4284L31.45 21.2923ZM33.4545 30.0414V26.1744H43V30.0414H33.4545ZM12.55 21.2923L5.82045 14.4284L8.49318 11.7215L15.2705 18.5371L12.55 21.2923ZM1 30.0414V26.1744H10.5455V30.0414H1Z" fill="url(#paint0_linear_1_83)"/>
<defs>
<linearGradient id="paint0_linear_1_83" x1="43" y1="6.83933" x2="0.0650011" y2="8.10975" gradientUnits="userSpaceOnUse">
<stop stop-color="#1881BC"/>
<stop offset="1" stop-color="#59E6B3"/>
</linearGradient>
</defs>
</svg>
