<svg width="44" height="45" viewBox="0 0 44 45" fill="none" xmlns="http://www.w3.org/2000/svg">
<path d="M22.6021 23.2794C23.6221 22.3556 24.4402 21.2131 25.001 19.9294C25.5617 18.6457 25.8519 17.2508 25.8519 15.8394C25.8519 13.1872 24.8449 10.6437 23.0523 8.76829C21.2598 6.89292 18.8285 5.83936 16.2935 5.83936C13.7584 5.83936 11.3272 6.89292 9.53466 8.76829C7.74211 10.6437 6.73506 13.1872 6.73506 15.8394C6.73505 17.2508 7.02526 18.6457 7.586 19.9294C8.14674 21.2131 8.96489 22.3556 9.98493 23.2794C7.30883 24.5471 5.03837 26.5944 3.44501 29.1764C1.85165 31.7585 1.00281 34.766 1 37.8394C1 38.3698 1.20141 38.8785 1.55992 39.2536C1.91843 39.6286 2.40468 39.8394 2.91169 39.8394C3.4187 39.8394 3.90494 39.6286 4.26345 39.2536C4.62196 38.8785 4.82337 38.3698 4.82337 37.8394C4.82337 34.6568 6.03183 31.6045 8.18289 29.3541C10.334 27.1036 13.2514 25.8394 16.2935 25.8394C19.3356 25.8394 22.253 27.1036 24.4041 29.3541C26.5552 31.6045 27.7636 34.6568 27.7636 37.8394C27.7636 38.3698 27.965 38.8785 28.3235 39.2536C28.682 39.6286 29.1683 39.8394 29.6753 39.8394C30.1823 39.8394 30.6686 39.6286 31.0271 39.2536C31.3856 38.8785 31.587 38.3698 31.587 37.8394C31.5842 34.766 30.7353 31.7585 29.142 29.1764C27.5486 26.5944 25.2782 24.5471 22.6021 23.2794ZM16.2935 21.8394C15.1592 21.8394 14.0504 21.4875 13.1073 20.8282C12.1641 20.1689 11.4291 19.2318 10.995 18.1355C10.5609 17.0391 10.4473 15.8327 10.6686 14.6688C10.8899 13.5049 11.4361 12.4358 12.2382 11.5967C13.0403 10.7576 14.0621 10.1862 15.1746 9.95464C16.2871 9.72313 17.4403 9.84195 18.4882 10.2961C19.5361 10.7502 20.4318 11.5192 21.062 12.5059C21.6922 13.4926 22.0286 14.6527 22.0286 15.8394C22.0286 17.4307 21.4243 18.9568 20.3488 20.082C19.2733 21.2072 17.8145 21.8394 16.2935 21.8394ZM34.9133 22.4794C36.1367 21.038 36.9359 19.2575 37.2146 17.352C37.4933 15.4466 37.2397 13.4975 36.4843 11.7394C35.7289 9.98121 34.5038 8.48895 32.9567 7.4422C31.4095 6.39546 29.6061 5.83884 27.7636 5.83936C27.2566 5.83936 26.7704 6.05007 26.4118 6.42514C26.0533 6.80021 25.8519 7.30892 25.8519 7.83936C25.8519 8.36979 26.0533 8.8785 26.4118 9.25357C26.7704 9.62864 27.2566 9.83936 27.7636 9.83936C29.2846 9.83936 30.7434 10.4715 31.8189 11.5967C32.8944 12.7219 33.4987 14.2481 33.4987 15.8394C33.496 16.8898 33.2297 17.9212 32.7265 18.8302C32.2232 19.7392 31.5007 20.4941 30.6311 21.0194C30.3477 21.1904 30.111 21.4347 29.9436 21.7288C29.7763 22.023 29.6839 22.3572 29.6753 22.6994C29.6673 23.0389 29.7421 23.3749 29.8926 23.6759C30.0431 23.9768 30.2644 24.2327 30.5356 24.4194L31.2811 24.9394L31.5296 25.0794C33.834 26.2228 35.778 28.0313 37.1327 30.292C38.4875 32.5526 39.1965 35.1712 39.1764 37.8394C39.1764 38.3698 39.3778 38.8785 39.7363 39.2536C40.0948 39.6286 40.5811 39.8394 41.0881 39.8394C41.5951 39.8394 42.0813 39.6286 42.4398 39.2536C42.7983 38.8785 42.9998 38.3698 42.9998 37.8394C43.0154 34.7702 42.2806 31.7479 40.8653 29.0595C39.45 26.3711 37.4011 24.106 34.9133 22.4794Z" fill="url(#paint0_linear_1_73)"/>
<defs>
<linearGradient id="paint0_linear_1_73" x1="43" y1="5.83933" x2="0.062545" y2="7.06758" gradientUnits="userSpaceOnUse">
<stop stop-color="#1881BC"/>
<stop offset="1" stop-color="#59E6B3"/>
</linearGradient>
</defs>
</svg>
