<svg width="44" height="49" viewBox="0 0 44 49" fill="none" xmlns="http://www.w3.org/2000/svg">
<path d="M39.0188 45.2144C34.45 45.2144 29.9967 44.1958 25.6589 42.1586C21.321 40.1214 17.4783 37.4298 14.1307 34.0836C10.7832 30.7374 8.0915 26.8947 6.05575 22.5555C4.02 18.2162 3.00142 13.7629 3 9.19561C3 8.55811 3.2125 8.02686 3.6375 7.60186C4.0625 7.17686 4.59375 6.96436 5.23125 6.96436H13.8375C14.3333 6.96436 14.776 7.12373 15.1656 7.44248C15.5552 7.76123 15.7854 8.16852 15.8563 8.66436L17.2375 16.1019C17.3083 16.5977 17.2991 17.0496 17.2099 17.4576C17.1206 17.8656 16.9173 18.2283 16.6 18.5456L11.5 23.7519C12.9875 26.3019 14.8469 28.6925 17.0781 30.9237C19.3094 33.155 21.7708 35.0852 24.4625 36.7144L29.4562 31.7206C29.775 31.4019 30.1915 31.1631 30.7057 31.0045C31.22 30.8458 31.7243 30.8012 32.2188 30.8706L39.55 32.3581C40.0458 32.4644 40.4531 32.7038 40.7719 33.0764C41.0906 33.4489 41.25 33.8824 41.25 34.3769V42.9831C41.25 43.6206 41.0375 44.1519 40.6125 44.5769C40.1875 45.0019 39.6562 45.2144 39.0188 45.2144ZM32.75 26.0894V18.0144L27.8625 22.9019L26.375 21.4144L32.325 15.4644L26.375 9.51436L27.8625 8.02686L32.75 12.9144V4.83936H33.8125L39.8688 11.0019L35.3 15.4644L39.8688 20.0331L33.8125 26.0894H32.75ZM34.875 22.0519L36.8938 20.0331L34.875 18.0144V22.0519ZM34.875 12.9144L36.8938 11.0019L34.875 8.98311V12.9144Z" fill="url(#paint0_linear_1_62)"/>
<defs>
<linearGradient id="paint0_linear_1_62" x1="41.25" y1="4.83932" x2="2.13307" y2="5.69747" gradientUnits="userSpaceOnUse">
<stop stop-color="#1881BC"/>
<stop offset="1" stop-color="#59E6B3"/>
</linearGradient>
</defs>
</svg>
