<svg width="44" height="45" viewBox="0 0 44 45" fill="none" xmlns="http://www.w3.org/2000/svg">
<path d="M22.0558 43.8393C21.665 43.8393 21.3004 43.8123 20.9621 43.7583C20.6238 43.7043 20.3133 43.6247 20.0304 43.5195C15.6244 41.885 12.0178 38.9713 9.21065 34.7784C6.40355 30.5855 5 25.9662 5 20.9205V10.847C5 9.95863 5.25797 9.15914 5.77391 8.44848C6.28985 7.73782 6.95573 7.2226 7.77157 6.9028L20.5634 2.10585C21.0609 1.92819 21.5584 1.83936 22.0558 1.83936C22.5533 1.83936 23.0507 1.92819 23.5482 2.10585L36.3401 6.9028C37.1573 7.2226 37.8239 7.73782 38.3399 8.44848C38.8558 9.15914 39.1131 9.95863 39.1116 10.847V20.9205C39.1116 25.9662 37.7081 30.5855 34.901 34.7784C32.0939 38.9713 28.4873 41.885 24.0812 43.5195C23.7969 43.6261 23.4864 43.7064 23.1495 43.7604C22.8127 43.8144 22.4481 43.8407 22.0558 43.8393ZM22.0558 39.6819C25.5025 38.616 28.3807 36.511 30.6903 33.367C33 30.2231 34.3502 26.7138 34.7411 22.8393H22.0558V6.05001L9.26395 10.847V21.8799C9.26395 22.1287 9.29949 22.4485 9.37055 22.8393H22.0558V39.6819Z" fill="url(#paint0_linear_1_51)"/>
<defs>
<linearGradient id="paint0_linear_1_51" x1="39.1116" y1="1.83932" x2="4.22242" y2="2.4955" gradientUnits="userSpaceOnUse">
<stop stop-color="#1881BC"/>
<stop offset="1" stop-color="#59E6B3"/>
</linearGradient>
</defs>
</svg>
