<svg width="44" height="45" viewBox="0 0 44 45" fill="none" xmlns="http://www.w3.org/2000/svg">
<path d="M21.9891 0.839355C19.1007 0.840078 16.2408 1.4097 13.5725 2.5157C10.9043 3.62169 8.48004 5.24241 6.43817 7.2853C4.3963 9.3282 2.77679 11.7533 1.67213 14.422C0.567469 17.0908 -0.000721675 19.951 6.87909e-07 22.8394C-0.00125034 28.1654 1.92961 33.311 5.43427 37.3214C8.93894 41.3318 13.7794 43.9346 19.0576 44.647V40.2112C19.0604 39.6009 18.8717 39.0051 18.518 38.5078C18.1642 38.0104 17.6633 37.6367 17.0858 37.4392C13.9689 36.3899 11.2695 34.3706 9.38278 31.6768C7.49603 28.983 6.52088 25.756 6.60002 22.4682C6.68242 18.4178 8.36351 14.5643 11.2764 11.7488C14.1894 8.93322 18.0977 7.38407 22.1486 7.43937C24.2055 7.46142 26.2371 7.8954 28.1235 8.71568C30.0099 9.53597 31.7128 10.7259 33.1317 12.2153C34.5506 13.7046 35.6566 15.4632 36.3845 17.3871C37.1125 19.3111 37.4475 21.3614 37.3699 23.4169L37.3644 23.5434C37.3561 23.7196 37.3451 23.8956 37.3314 24.0714L37.3176 24.2392C37.295 24.5003 37.2648 24.7608 37.2269 25.0202L37.1994 25.2072C35.3156 37.6262 19.1483 44.6057 19.0603 44.6442C22.1682 45.061 25.3293 44.8084 28.3316 43.9034C31.3339 42.9983 34.1079 41.4618 36.4677 39.3968C38.8275 37.3318 40.7185 34.7861 42.0138 31.9305C43.3092 29.0748 43.9789 25.9751 43.9781 22.8394C43.9789 17.0066 41.6627 11.4123 37.539 7.28708C33.4153 3.16186 27.8219 0.843564 21.9891 0.842105V0.839355Z" fill="url(#paint0_linear_1_57)"/>
<defs>
<linearGradient id="paint0_linear_1_57" x1="43.9781" y1="0.83932" x2="-0.994305" y2="1.88022" gradientUnits="userSpaceOnUse">
<stop stop-color="#1881BC"/>
<stop offset="1" stop-color="#59E6B3"/>
</linearGradient>
</defs>
</svg>
